# Converted from Blockbench for Create Echo Radars
mtllib echo_sounder.mtl

o head
v 0.57279687 0.86509554 0.43836397
v 0.57279687 0.80970015 0.36617129
v 0.57279687 0.74958726 0.52699659
v 0.57279687 0.69419187 0.45480391
v 0.42720313 0.80970015 0.36617129
v 0.42720313 0.86509554 0.43836397
v 0.42720313 0.69419187 0.45480391
v 0.42720313 0.74958726 0.52699659
vt 0.2 0.83076923
vt 0.30666667 0.83076923
vt 0.30666667 0.76923077
vt 0.2 0.76923077
vn 0 -0.60876143 -0.79335334
usemtl texture
f 4/4/1 7/3/1 5/2/1 2/1/1
vt 0.13333333 0.83076923
vt 0.2 0.83076923
vt 0.2 0.76923077
vt 0.13333333 0.76923077
vn 1 0 0
usemtl texture
f 3/8/2 4/7/2 2/6/2 1/5/2
vt 0.37333333 0.83076923
vt 0.48 0.83076923
vt 0.48 0.76923077
vt 0.37333333 0.76923077
vn 0 0.60876143 0.79335334
usemtl texture
f 8/12/3 3/11/3 1/10/3 6/9/3
vt 0.30666667 0.83076923
vt 0.37333333 0.83076923
vt 0.37333333 0.76923077
vt 0.30666667 0.76923077
vn -1 0 0
usemtl texture
f 7/16/4 8/15/4 6/14/4 5/13/4
vt 0.30666667 0.83076923
vt 0.2 0.83076923
vt 0.2 0.86923077
vt 0.30666667 0.86923077
vn 0 0.79335334 -0.60876143
usemtl texture
f 6/20/5 1/19/5 2/18/5 5/17/5
vt 0.41333333 0.86923077
vt 0.30666667 0.86923077
vt 0.30666667 0.83076923
vt 0.41333333 0.83076923
vn 0 -0.79335334 0.60876143
usemtl texture
f 7/24/6 4/23/6 3/22/6 8/21/6

o left_tendril
v 0.42720313 0.88688835 0.37840181
v 0.42720313 0.88688835 0.37840181
v 0.42720313 0.77138007 0.46703443
v 0.42720313 0.77138007 0.46703443
v 0.2816075 0.88688835 0.37840181
v 0.2816075 0.88688835 0.37840181
v 0.2816075 0.77138007 0.46703443
v 0.2816075 0.77138007 0.46703443
vt 0.52 0.99230769
vt 0.62666667 0.99230769
vt 0.62666667 0.93076923
vt 0.52 0.93076923
vn 0 -0.60876143 -0.79335334
usemtl texture
f 12/28/7 15/27/7 13/26/7 10/25/7
vt 0.52 0.99230769
vt 0.52 0.99230769
vt 0.52 0.93076923
vt 0.52 0.93076923
vn 1 0 0
usemtl texture
f 11/32/8 12/31/8 10/30/8 9/29/8
vt 0.62666667 0.99230769
vt 0.73333333 0.99230769
vt 0.73333333 0.93076923
vt 0.62666667 0.93076923
vn 0 0.60876143 0.79335334
usemtl texture
f 16/36/9 11/35/9 9/34/9 14/33/9
vt 0.62666667 0.99230769
vt 0.62666667 0.99230769
vt 0.62666667 0.93076923
vt 0.62666667 0.93076923
vn -1 0 0
usemtl texture
f 15/40/10 16/39/10 14/38/10 13/37/10
vt 0.62666667 0.99230769
vt 0.52 0.99230769
vt 0.52 0.99230769
vt 0.62666667 0.99230769
vn 0 0.79335334 -0.60876143
usemtl texture
f 14/44/11 9/43/11 10/42/11 13/41/11
vt 0.73333333 0.99230769
vt 0.62666667 0.99230769
vt 0.62666667 0.99230769
vt 0.73333333 0.99230769
vn 0 -0.79335334 0.60876143
usemtl texture
f 15/48/12 12/47/12 11/46/12 16/45/12

o right_tendril
v 0.7183925 0.88688835 0.37840181
v 0.7183925 0.88688835 0.37840181
v 0.7183925 0.77138007 0.46703443
v 0.7183925 0.77138007 0.46703443
v 0.57279687 0.88688835 0.37840181
v 0.57279687 0.88688835 0.37840181
v 0.57279687 0.77138007 0.46703443
v 0.57279687 0.77138007 0.46703443
vt 0.48 0.86923077
vt 0.58666667 0.86923077
vt 0.58666667 0.80769231
vt 0.48 0.80769231
vn 0 -0.60876143 -0.79335334
usemtl texture
f 20/52/13 23/51/13 21/50/13 18/49/13
vt 0.48 0.86923077
vt 0.48 0.86923077
vt 0.48 0.80769231
vt 0.48 0.80769231
vn 1 0 0
usemtl texture
f 19/56/14 20/55/14 18/54/14 17/53/14
vt 0.58666667 0.86923077
vt 0.69333333 0.86923077
vt 0.69333333 0.80769231
vt 0.58666667 0.80769231
vn 0 0.60876143 0.79335334
usemtl texture
f 24/60/15 19/59/15 17/58/15 22/57/15
vt 0.58666667 0.86923077
vt 0.58666667 0.86923077
vt 0.58666667 0.80769231
vt 0.58666667 0.80769231
vn -1 0 0
usemtl texture
f 23/64/16 24/63/16 22/62/16 21/61/16
vt 0.58666667 0.86923077
vt 0.48 0.86923077
vt 0.48 0.86923077
vt 0.58666667 0.86923077
vn 0 0.79335334 -0.60876143
usemtl texture
f 22/68/17 17/67/17 18/66/17 21/65/17
vt 0.69333333 0.86923077
vt 0.58666667 0.86923077
vt 0.58666667 0.86923077
vt 0.69333333 0.86923077
vn 0 -0.79335334 0.60876143
usemtl texture
f 23/72/18 20/71/18 19/70/18 24/69/18

o torso
v 0.58189687 0.72188938 0.55459813
v 0.58189687 0.72188938 0.45450187
v 0.58189687 0.53079562 0.55459813
v 0.58189687 0.53079562 0.45450187
v 0.41810313 0.72188938 0.45450187
v 0.41810313 0.72188938 0.55459813
v 0.41810313 0.53079562 0.45450187
v 0.41810313 0.53079562 0.55459813
vt 0.20666667 0.95
vt 0.32666667 0.95
vt 0.32666667 0.86923077
vt 0.20666667 0.86923077
vn 0 0 -1
usemtl texture
f 28/76/19 31/75/19 29/74/19 26/73/19
vt 0.13333333 0.95
vt 0.20666667 0.95
vt 0.20666667 0.86923077
vt 0.13333333 0.86923077
vn 1 0 0
usemtl texture
f 27/80/20 28/79/20 26/78/20 25/77/20
vt 0.4 0.95
vt 0.52 0.95
vt 0.52 0.86923077
vt 0.4 0.86923077
vn 0 0 1
usemtl texture
f 32/84/21 27/83/21 25/82/21 30/81/21
vt 0.32666667 0.95
vt 0.4 0.95
vt 0.4 0.86923077
vt 0.32666667 0.86923077
vn -1 0 0
usemtl texture
f 31/88/22 32/87/22 30/86/22 29/85/22
vt 0.32666667 0.95
vt 0.20666667 0.95
vt 0.20666667 0.99230769
vt 0.32666667 0.99230769
vn 0 1 0
usemtl texture
f 30/92/23 25/91/23 26/90/23 29/89/23
vt 0.44666667 0.99230769
vt 0.32666667 0.99230769
vt 0.32666667 0.95
vt 0.44666667 0.95
vn 0 -1 0
usemtl texture
f 31/96/24 28/95/24 27/94/24 32/93/24

o left_ribcage
v 0.5 0.72188938 0.45359187
v 0.5 0.72188938 0.45359187
v 0.5 0.53079562 0.45359187
v 0.5 0.53079562 0.45359187
v 0.41810313 0.72188938 0.45359187
v 0.41810313 0.72188938 0.45359187
v 0.41810313 0.53079562 0.45359187
v 0.41810313 0.53079562 0.45359187
vt 0.79333333 0.95
vt 0.73333333 0.95
vt 0.73333333 0.86923077
vt 0.79333333 0.86923077
vn 0 0 -1
usemtl texture
f 36/100/25 39/99/25 37/98/25 34/97/25
vt 0.79333333 0.95
vt 0.79333333 0.95
vt 0.79333333 0.86923077
vt 0.79333333 0.86923077
vn 1 0 0
usemtl texture
f 35/104/26 36/103/26 34/102/26 33/101/26
vt 0.85333333 0.95
vt 0.79333333 0.95
vt 0.79333333 0.86923077
vt 0.85333333 0.86923077
vn 0 0 1
usemtl texture
f 40/108/27 35/107/27 33/106/27 38/105/27
vt 0.73333333 0.95
vt 0.73333333 0.95
vt 0.73333333 0.86923077
vt 0.73333333 0.86923077
vn -1 0 0
usemtl texture
f 39/112/28 40/111/28 38/110/28 37/109/28
vt 0.73333333 0.95
vt 0.79333333 0.95
vt 0.79333333 0.95
vt 0.73333333 0.95
vn 0 1 0
usemtl texture
f 38/116/29 33/115/29 34/114/29 37/113/29
vt 0.79333333 0.95
vt 0.85333333 0.95
vt 0.85333333 0.95
vt 0.79333333 0.95
vn 0 -1 0
usemtl texture
f 39/120/30 36/119/30 35/118/30 40/117/30

o right_ribcage
v 0.58189687 0.72188938 0.45359187
v 0.58189687 0.72188938 0.45359187
v 0.58189687 0.53079562 0.45359187
v 0.58189687 0.53079562 0.45359187
v 0.5 0.72188938 0.45359187
v 0.5 0.72188938 0.45359187
v 0.5 0.53079562 0.45359187
v 0.5 0.53079562 0.45359187
vt 0.73333333 0.95
vt 0.79333333 0.95
vt 0.79333333 0.86923077
vt 0.73333333 0.86923077
vn 0 0 -1
usemtl texture
f 44/124/31 47/123/31 45/122/31 42/121/31
vt 0.73333333 0.95
vt 0.73333333 0.95
vt 0.73333333 0.86923077
vt 0.73333333 0.86923077
vn 1 0 0
usemtl texture
f 43/128/32 44/127/32 42/126/32 41/125/32
vt 0.79333333 0.95
vt 0.85333333 0.95
vt 0.85333333 0.86923077
vt 0.79333333 0.86923077
vn 0 0 1
usemtl texture
f 48/132/33 43/131/33 41/130/33 46/129/33
vt 0.79333333 0.95
vt 0.79333333 0.95
vt 0.79333333 0.86923077
vt 0.79333333 0.86923077
vn -1 0 0
usemtl texture
f 47/136/34 48/135/34 46/134/34 45/133/34
vt 0.79333333 0.95
vt 0.73333333 0.95
vt 0.73333333 0.95
vt 0.79333333 0.95
vn 0 1 0
usemtl texture
f 46/140/35 41/139/35 42/138/35 45/137/35
vt 0.85333333 0.95
vt 0.79333333 0.95
vt 0.79333333 0.95
vt 0.85333333 0.95
vn 0 -1 0
usemtl texture
f 47/144/36 44/143/36 43/142/36 48/141/36

o left_arm
v 0.4084695 0.69812505 0.5369949
v 0.42527658 0.73041113 0.47395042
v 0.379258 0.47608186 0.41549555
v 0.39606508 0.50836795 0.35245106
v 0.35493864 0.74565383 0.463005
v 0.33813157 0.71336775 0.52604949
v 0.32572714 0.52361064 0.34150565
v 0.30892007 0.49132456 0.40455014
vt 0.18666667 0.73846154
vt 0.24 0.73846154
vt 0.24 0.63076923
vt 0.18666667 0.63076923
vn 0.23087431 0.44350536 -0.86602543
usemtl texture
f 52/148/37 55/147/37 53/146/37 50/145/37
vt 0.13333333 0.73846154
vt 0.18666667 0.73846154
vt 0.18666667 0.63076923
vt 0.13333333 0.63076923
vn 0.96620532 -0.2093831 0.15035293
usemtl texture
f 51/152/38 52/151/38 50/150/38 49/149/38
vt 0.29333333 0.73846154
vt 0.34666667 0.73846154
vt 0.34666667 0.63076923
vt 0.29333333 0.63076923
vn -0.23087431 -0.44350536 0.86602543
usemtl texture
f 56/156/39 51/155/39 49/154/39 54/153/39
vt 0.24 0.73846154
vt 0.29333333 0.73846154
vt 0.29333333 0.63076923
vt 0.24 0.63076923
vn -0.96620532 0.2093831 -0.15035293
usemtl texture
f 55/160/40 56/159/40 54/158/40 53/157/40
vt 0.24 0.73846154
vt 0.18666667 0.73846154
vt 0.18666667 0.76923077
vt 0.24 0.76923077
vn 0.11464876 0.87147101 0.47685841
usemtl texture
f 54/164/41 49/163/41 50/162/41 53/161/41
vt 0.29333333 0.76923077
vt 0.24 0.76923077
vt 0.24 0.73846154
vt 0.29333333 0.73846154
vn -0.11464876 -0.87147101 -0.47685841
usemtl texture
f 55/168/42 52/167/42 51/166/42 56/165/42

o right_arm
v 0.65455649 0.7036106 0.53163573
v 0.65455649 0.74536553 0.47200351
v 0.67676301 0.49569204 0.3860496
v 0.67676301 0.53744697 0.32641738
v 0.58203538 0.74016819 0.4683643
v 0.58203538 0.69841327 0.52799652
v 0.60424191 0.53224963 0.32277816
v 0.60424191 0.4904947 0.38241039
vt 0.48 0.76923077
vt 0.53333333 0.76923077
vt 0.53333333 0.66153846
vt 0.48 0.66153846
vn 4e-8 0.57357641 -0.81915206
usemtl texture
f 60/172/43 63/171/43 61/170/43 58/169/43
vt 0.42666667 0.76923077
vt 0.48 0.76923077
vt 0.48 0.66153846
vt 0.42666667 0.66153846
vn 0.9961947 0.07139379 0.04999052
usemtl texture
f 59/176/44 60/175/44 58/174/44 57/173/44
vt 0.58666667 0.76923077
vt 0.64 0.76923077
vt 0.64 0.66153846
vt 0.58666667 0.66153846
vn -4e-8 -0.57357641 0.81915206
usemtl texture
f 64/180/45 59/179/45 57/178/45 62/177/45
vt 0.53333333 0.76923077
vt 0.58666667 0.76923077
vt 0.58666667 0.66153846
vt 0.53333333 0.66153846
vn -0.9961947 -0.07139379 -0.04999052
usemtl texture
f 63/184/46 64/183/46 62/182/46 61/181/46
vt 0.53333333 0.76923077
vt 0.48 0.76923077
vt 0.48 0.8
vt 0.53333333 0.8
vn -0.08715575 0.81603494 0.57139377
usemtl texture
f 62/188/47 57/187/47 58/186/47 61/185/47
vt 0.58666667 0.8
vt 0.53333333 0.8
vt 0.53333333 0.76923077
vt 0.58666667 0.76923077
vn 0.08715575 -0.81603494 -0.57139377
usemtl texture
f 63/192/48 60/191/48 59/190/48 64/189/48

o left_leg
v 0.47179063 0.50349625 0.4909
v 0.47179063 0.55809438 0.4909
v 0.47179063 0.50349625 0.37260437
v 0.47179063 0.55809438 0.37260437
v 0.4171925 0.55809438 0.4909
v 0.4171925 0.50349625 0.4909
v 0.4171925 0.55809438 0.37260437
v 0.4171925 0.50349625 0.37260437
vt 0.68 0.67692308
vt 0.72 0.67692308
vt 0.72 0.62692308
vt 0.68 0.62692308
vn 0 1 0
usemtl texture
f 68/196/49 71/195/49 69/194/49 66/193/49
vt 0.64 0.67692308
vt 0.68 0.67692308
vt 0.68 0.62692308
vt 0.64 0.62692308
vn 1 0 0
usemtl texture
f 67/200/50 68/199/50 66/198/50 65/197/50
vt 0.76 0.67692308
vt 0.8 0.67692308
vt 0.8 0.62692308
vt 0.76 0.62692308
vn 0 -1 0
usemtl texture
f 72/204/51 67/203/51 65/202/51 70/201/51
vt 0.72 0.67692308
vt 0.76 0.67692308
vt 0.76 0.62692308
vt 0.72 0.62692308
vn -1 0 0
usemtl texture
f 71/208/52 72/207/52 70/206/52 69/205/52
vt 0.72 0.67692308
vt 0.68 0.67692308
vt 0.68 0.7
vt 0.72 0.7
vn 0 0 1
usemtl texture
f 70/212/53 65/211/53 66/210/53 69/209/53
vt 0.76 0.7
vt 0.72 0.7
vt 0.72 0.67692308
vt 0.76 0.67692308
vn 0 0 -1
usemtl texture
f 71/216/54 68/215/54 67/214/54 72/213/54

o right_leg
v 0.5828075 0.50349625 0.4909
v 0.5828075 0.55809438 0.4909
v 0.5828075 0.50349625 0.37260437
v 0.5828075 0.55809438 0.37260437
v 0.52820937 0.55809438 0.4909
v 0.52820937 0.50349625 0.4909
v 0.52820937 0.55809438 0.37260437
v 0.52820937 0.50349625 0.37260437
vt 0.68 0.78461538
vt 0.72 0.78461538
vt 0.72 0.73461538
vt 0.68 0.73461538
vn 0 1 0
usemtl texture
f 76/220/55 79/219/55 77/218/55 74/217/55
vt 0.64 0.78461538
vt 0.68 0.78461538
vt 0.68 0.73461538
vt 0.64 0.73461538
vn 1 0 0
usemtl texture
f 75/224/56 76/223/56 74/222/56 73/221/56
vt 0.76 0.78461538
vt 0.8 0.78461538
vt 0.8 0.73461538
vt 0.76 0.73461538
vn 0 -1 0
usemtl texture
f 80/228/57 75/227/57 73/226/57 78/225/57
vt 0.72 0.78461538
vt 0.76 0.78461538
vt 0.76 0.73461538
vt 0.72 0.73461538
vn -1 0 0
usemtl texture
f 79/232/58 80/231/58 78/230/58 77/229/58
vt 0.72 0.78461538
vt 0.68 0.78461538
vt 0.68 0.80769231
vt 0.72 0.80769231
vn 0 0 1
usemtl texture
f 78/236/59 73/235/59 74/234/59 77/233/59
vt 0.76 0.80769231
vt 0.72 0.80769231
vt 0.72 0.78461538
vt 0.76 0.78461538
vn 0 0 -1
usemtl texture
f 79/240/60 76/239/60 75/238/60 80/237/60

o cube
v 1 0.4375 0
v 1 0.4375 1
v 1 0.8125 0
v 1 0.8125 1
v 0 0.4375 1
v 0 0.4375 0
v 0 0.8125 1
v 0 0.8125 0
vt 0.25333333 0.46153846
vt 0.36 0.46153846
vt 0.36 0.43076923
vt 0.25333333 0.43076923
vn 0 0 1
usemtl texture
f 84/244/61 87/243/61 85/242/61 82/241/61
vt 0.13333333 0.39230769
vt 0.24 0.39230769
vt 0.24 0.36153846
vt 0.13333333 0.36153846
vn 1 0 0
usemtl texture
f 83/248/62 84/247/62 82/246/62 81/245/62
vt 0.25333333 0.46153846
vt 0.36 0.46153846
vt 0.36 0.43076923
vt 0.25333333 0.43076923
vn 0 0 -1
usemtl texture
f 88/252/63 83/251/63 81/250/63 86/249/63
vt 0.13333333 0.39230769
vt 0.24 0.39230769
vt 0.24 0.36153846
vt 0.13333333 0.36153846
vn -1 0 0
usemtl texture
f 87/256/64 88/255/64 86/254/64 85/253/64
vt 0.73333333 0.49230769
vt 0.84 0.49230769
vt 0.84 0.43076923
vt 0.73333333 0.43076923
vn 0 -1 0
usemtl texture
f 86/260/65 81/259/65 82/258/65 85/257/65
vt 0.25333333 0.49230769
vt 0.36 0.49230769
vt 0.36 0.43076923
vt 0.25333333 0.43076923
vn 0 1 0
usemtl texture
f 87/264/66 84/263/66 83/262/66 88/261/66

o cube
v 0.875 0.375 0.125
v 0.875 0.375 0.875
v 0.875 0.75 0.125
v 0.875 0.75 0.875
v 0.125 0.375 0.875
v 0.125 0.375 0.125
v 0.125 0.75 0.875
v 0.125 0.75 0.125
vt 0.49333333 0.46153846
vt 0.6 0.46153846
vt 0.6 0.43076923
vt 0.49333333 0.43076923
vn 0 0 1
usemtl texture
f 92/268/67 95/267/67 93/266/67 90/265/67
vt 0.49333333 0.46153846
vt 0.6 0.46153846
vt 0.6 0.43076923
vt 0.49333333 0.43076923
vn 1 0 0
usemtl texture
f 91/272/68 92/271/68 90/270/68 89/269/68
vt 0.49333333 0.46153846
vt 0.6 0.46153846
vt 0.6 0.43076923
vt 0.49333333 0.43076923
vn 0 0 -1
usemtl texture
f 96/276/69 91/275/69 89/274/69 94/273/69
vt 0.49333333 0.46153846
vt 0.6 0.46153846
vt 0.6 0.43076923
vt 0.49333333 0.43076923
vn -1 0 0
usemtl texture
f 95/280/70 96/279/70 94/278/70 93/277/70
vt 0.61333333 0.49230769
vt 0.72 0.49230769
vt 0.72 0.43076923
vt 0.61333333 0.43076923
vn 0 -1 0
usemtl texture
f 94/284/71 89/283/71 90/282/71 93/281/71
vt 0.37333333 0.49230769
vt 0.48 0.49230769
vt 0.48 0.43076923
vt 0.37333333 0.43076923
vn 0 1 0
usemtl texture
f 95/288/72 92/287/72 91/286/72 96/285/72

o cube
v 0.15088835 0 0.84911165
v 0.15088835 0 0.84911165
v 0.15088835 0.5 0.84911165
v 0.15088835 0.5 0.84911165
v -0.02588835 0 1.02588835
v -0.02588835 0 1.02588835
v -0.02588835 0.5 1.02588835
v -0.02588835 0.5 1.02588835
vt 0.04 0.96153846
vt 0.09333333 0.96153846
vt 0.09333333 0.93076923
vt 0.04 0.93076923
vn 0.70710678 0 0.70710678
usemtl texture
f 100/292/73 103/291/73 101/290/73 98/289/73
vt 0.09333333 0.96153846
vt 0.04 0.96153846
vt 0.04 0.93076923
vt 0.09333333 0.93076923
vn -0.70710678 0 -0.70710678
usemtl texture
f 104/296/74 99/295/74 97/294/74 102/293/74

o cube
v 0.125 0.5 0.125
v 0.125 0.5 0.0625
v 0.125 0.4375 0.125
v 0.125 0.4375 0.0625
v 0.0625 0.5 0.0625
v 0.0625 0.5 0.125
v 0.0625 0.4375 0.0625
v 0.0625 0.4375 0.125
vt 0.62 0.47692308
vt 0.62666667 0.47692308
vt 0.62666667 0.47307692
vt 0.62 0.47307692
vn 0 0 -1
usemtl texture
f 108/300/75 111/299/75 109/298/75 106/297/75
vt 0.62 0.47692308
vt 0.62666667 0.47692308
vt 0.62666667 0.47307692
vt 0.62 0.47307692
vn 1 0 0
usemtl texture
f 107/304/76 108/303/76 106/302/76 105/301/76
vt 0.62 0.47692308
vt 0.62666667 0.47692308
vt 0.62666667 0.47307692
vt 0.62 0.47307692
vn 0 0 1
usemtl texture
f 112/308/77 107/307/77 105/306/77 110/305/77
vt 0.62 0.47692308
vt 0.62666667 0.47692308
vt 0.62666667 0.47307692
vt 0.62 0.47307692
vn -1 0 0
usemtl texture
f 111/312/78 112/311/78 110/310/78 109/309/78
vt 0.62 0.47692308
vt 0.62666667 0.47692308
vt 0.62666667 0.47307692
vt 0.62 0.47307692
vn 0 1 0
usemtl texture
f 110/316/79 105/315/79 106/314/79 109/313/79
vt 0.62 0.47692308
vt 0.62666667 0.47692308
vt 0.62666667 0.47307692
vt 0.62 0.47307692
vn 0 -1 0
usemtl texture
f 111/320/80 108/319/80 107/318/80 112/317/80

o cube
v 0.9375 0.5 0.125
v 0.9375 0.5 0.0625
v 0.9375 0.4375 0.125
v 0.9375 0.4375 0.0625
v 0.875 0.5 0.0625
v 0.875 0.5 0.125
v 0.875 0.4375 0.0625
v 0.875 0.4375 0.125
vt 0.62 0.47692308
vt 0.62666667 0.47692308
vt 0.62666667 0.47307692
vt 0.62 0.47307692
vn 0 0 -1
usemtl texture
f 116/324/81 119/323/81 117/322/81 114/321/81
vt 0.62 0.47692308
vt 0.62666667 0.47692308
vt 0.62666667 0.47307692
vt 0.62 0.47307692
vn 1 0 0
usemtl texture
f 115/328/82 116/327/82 114/326/82 113/325/82
vt 0.62 0.47692308
vt 0.62666667 0.47692308
vt 0.62666667 0.47307692
vt 0.62 0.47307692
vn 0 0 1
usemtl texture
f 120/332/83 115/331/83 113/330/83 118/329/83
vt 0.62 0.47692308
vt 0.62666667 0.47692308
vt 0.62666667 0.47307692
vt 0.62 0.47307692
vn -1 0 0
usemtl texture
f 119/336/84 120/335/84 118/334/84 117/333/84
vt 0.62 0.47692308
vt 0.62666667 0.47692308
vt 0.62666667 0.47307692
vt 0.62 0.47307692
vn 0 1 0
usemtl texture
f 118/340/85 113/339/85 114/338/85 117/337/85
vt 0.62 0.47692308
vt 0.62666667 0.47692308
vt 0.62666667 0.47307692
vt 0.62 0.47307692
vn 0 -1 0
usemtl texture
f 119/344/86 116/343/86 115/342/86 120/341/86

o cube
v 0.9375 0.5 0.9375
v 0.9375 0.5 0.875
v 0.9375 0.4375 0.9375
v 0.9375 0.4375 0.875
v 0.875 0.5 0.875
v 0.875 0.5 0.9375
v 0.875 0.4375 0.875
v 0.875 0.4375 0.9375
vt 0.62 0.47692308
vt 0.62666667 0.47692308
vt 0.62666667 0.47307692
vt 0.62 0.47307692
vn 0 0 -1
usemtl texture
f 124/348/87 127/347/87 125/346/87 122/345/87
vt 0.62 0.47692308
vt 0.62666667 0.47692308
vt 0.62666667 0.47307692
vt 0.62 0.47307692
vn 1 0 0
usemtl texture
f 123/352/88 124/351/88 122/350/88 121/349/88
vt 0.62 0.47692308
vt 0.62666667 0.47692308
vt 0.62666667 0.47307692
vt 0.62 0.47307692
vn 0 0 1
usemtl texture
f 128/356/89 123/355/89 121/354/89 126/353/89
vt 0.62 0.47692308
vt 0.62666667 0.47692308
vt 0.62666667 0.47307692
vt 0.62 0.47307692
vn -1 0 0
usemtl texture
f 127/360/90 128/359/90 126/358/90 125/357/90
vt 0.62 0.47692308
vt 0.62666667 0.47692308
vt 0.62666667 0.47307692
vt 0.62 0.47307692
vn 0 1 0
usemtl texture
f 126/364/91 121/363/91 122/362/91 125/361/91
vt 0.62 0.47692308
vt 0.62666667 0.47692308
vt 0.62666667 0.47307692
vt 0.62 0.47307692
vn 0 -1 0
usemtl texture
f 127/368/92 124/367/92 123/366/92 128/365/92

o cube
v 0.125 0.5 0.9375
v 0.125 0.5 0.875
v 0.125 0.4375 0.9375
v 0.125 0.4375 0.875
v 0.0625 0.5 0.875
v 0.0625 0.5 0.9375
v 0.0625 0.4375 0.875
v 0.0625 0.4375 0.9375
vt 0.62 0.47692308
vt 0.62666667 0.47692308
vt 0.62666667 0.47307692
vt 0.62 0.47307692
vn 0 0 -1
usemtl texture
f 132/372/93 135/371/93 133/370/93 130/369/93
vt 0.62 0.47692308
vt 0.62666667 0.47692308
vt 0.62666667 0.47307692
vt 0.62 0.47307692
vn 1 0 0
usemtl texture
f 131/376/94 132/375/94 130/374/94 129/373/94
vt 0.62 0.47692308
vt 0.62666667 0.47692308
vt 0.62666667 0.47307692
vt 0.62 0.47307692
vn 0 0 1
usemtl texture
f 136/380/95 131/379/95 129/378/95 134/377/95
vt 0.62 0.47692308
vt 0.62666667 0.47692308
vt 0.62666667 0.47307692
vt 0.62 0.47307692
vn -1 0 0
usemtl texture
f 135/384/96 136/383/96 134/382/96 133/381/96
vt 0.62 0.47692308
vt 0.62666667 0.47692308
vt 0.62666667 0.47307692
vt 0.62 0.47307692
vn 0 1 0
usemtl texture
f 134/388/97 129/387/97 130/386/97 133/385/97
vt 0.62 0.47692308
vt 0.62666667 0.47692308
vt 0.62666667 0.47307692
vt 0.62 0.47307692
vn 0 -1 0
usemtl texture
f 135/392/98 132/391/98 131/390/98 136/389/98

o cube
v 0.56875 0.1875 0.4375
v 0.56875 0.125 0.4375
v 0.56875 0.1875 0.5625
v 0.56875 0.125 0.5625
v 0.44375 0.125 0.4375
v 0.44375 0.1875 0.4375
v 0.44375 0.125 0.5625
v 0.44375 0.1875 0.5625
vt 0.26 0.37692308
vt 0.27333333 0.37692308
vt 0.27333333 0.36923077
vt 0.26 0.36923077
vn 0 -1 0
usemtl texture
f 140/396/99 143/395/99 141/394/99 138/393/99
vt 0.3 0.37692308
vt 0.30666667 0.37692308
vt 0.30666667 0.36923077
vt 0.3 0.36923077
vn 1 0 0
usemtl texture
f 139/400/100 140/399/100 138/398/100 137/397/100
vt 0.27333333 0.37692308
vt 0.28666667 0.37692308
vt 0.28666667 0.36923077
vt 0.27333333 0.36923077
vn 0 1 0
usemtl texture
f 144/404/101 139/403/101 137/402/101 142/401/101
vt 0.33333333 0.38076923
vt 0.34 0.38076923
vt 0.34 0.37307692
vt 0.33333333 0.37307692
vn -1 0 0
usemtl texture
f 143/408/102 144/407/102 142/406/102 141/405/102
vt 0.35333333 0.41923077
vt 0.34 0.41923077
vt 0.34 0.42307692
vt 0.35333333 0.42307692
vn 0 0 -1
usemtl texture
f 142/412/103 137/411/103 138/410/103 141/409/103
vt 0.35333333 0.41923077
vt 0.34 0.41923077
vt 0.34 0.41538462
vt 0.35333333 0.41538462
vn 0 0 1
usemtl texture
f 143/416/104 140/415/104 139/414/104 144/413/104

o cube
v 0.63125 0.3125 0.375
v 0.63125 0.1875 0.375
v 0.63125 0.3125 0.625
v 0.63125 0.1875 0.625
v 0.38125 0.1875 0.375
v 0.38125 0.3125 0.375
v 0.38125 0.1875 0.625
v 0.38125 0.3125 0.625
vt 0.25333333 0.42307692
vt 0.28 0.42307692
vt 0.28 0.40769231
vt 0.25333333 0.40769231
vn 0 -1 0
usemtl texture
f 148/420/105 151/419/105 149/418/105 146/417/105
vt 0.25333333 0.39230769
vt 0.26 0.39230769
vt 0.26 0.37692308
vt 0.25333333 0.37692308
vn 1 0 0
usemtl texture
f 147/424/106 148/423/106 146/422/106 145/421/106
vt 0.25333333 0.40769231
vt 0.28 0.40769231
vt 0.28 0.39230769
vt 0.25333333 0.39230769
vn 0 1 0
usemtl texture
f 152/428/107 147/427/107 145/426/107 150/425/107
vt 0.30666667 0.42307692
vt 0.31333333 0.42307692
vt 0.31333333 0.40769231
vt 0.30666667 0.40769231
vn -1 0 0
usemtl texture
f 151/432/108 152/431/108 150/430/108 149/429/108
vt 0.33333333 0.40384615
vt 0.30666667 0.40384615
vt 0.30666667 0.40769231
vt 0.33333333 0.40769231
vn 0 0 -1
usemtl texture
f 150/436/109 145/435/109 146/434/109 149/433/109
vt 0.33333333 0.40384615
vt 0.30666667 0.40384615
vt 0.30666667 0.4
vt 0.33333333 0.4
vn 0 0 1
usemtl texture
f 151/440/110 148/439/110 147/438/110 152/437/110

o cube
v 0.38125 0.0625 0.3125
v 0.38125 0 0.3125
v 0.38125 0.0625 0.6875
v 0.38125 0 0.6875
v 0.31875 0 0.3125
v 0.31875 0.0625 0.3125
v 0.31875 0 0.6875
v 0.31875 0.0625 0.6875
vt 0.28 0.42307692
vt 0.28666667 0.42307692
vt 0.28666667 0.4
vt 0.28 0.4
vn 0 -1 0
usemtl texture
f 156/444/111 159/443/111 157/442/111 154/441/111
vt 0.28666667 0.42307692
vt 0.29333333 0.42307692
vt 0.29333333 0.4
vt 0.28666667 0.4
vn 1 0 0
usemtl texture
f 155/448/112 156/447/112 154/446/112 153/445/112
vt 0.29333333 0.42307692
vt 0.3 0.42307692
vt 0.3 0.4
vt 0.29333333 0.4
vn 0 1 0
usemtl texture
f 160/452/113 155/451/113 153/450/113 158/449/113
vt 0.28 0.4
vt 0.28666667 0.4
vt 0.28666667 0.37692308
vt 0.28 0.37692308
vn -1 0 0
usemtl texture
f 159/456/114 160/455/114 158/454/114 157/453/114
vt 0.34666667 0.41153846
vt 0.34 0.41153846
vt 0.34 0.41538462
vt 0.34666667 0.41538462
vn 0 0 -1
usemtl texture
f 158/460/115 153/459/115 154/458/115 157/457/115
vt 0.34666667 0.41153846
vt 0.34 0.41153846
vt 0.34 0.40769231
vt 0.34666667 0.40769231
vn 0 0 1
usemtl texture
f 159/464/116 156/463/116 155/462/116 160/461/116

o cube
v 0.63125 0.0625 0.625
v 0.63125 0 0.625
v 0.63125 0.0625 0.6875
v 0.63125 0 0.6875
v 0.38125 0 0.625
v 0.38125 0.0625 0.625
v 0.38125 0 0.6875
v 0.38125 0.0625 0.6875
vt 0.30666667 0.4
vt 0.33333333 0.4
vt 0.33333333 0.39615385
vt 0.30666667 0.39615385
vn 0 -1 0
usemtl texture
f 164/468/117 167/467/117 165/466/117 162/465/117
vt 0.34 0.38076923
vt 0.34666667 0.38076923
vt 0.34666667 0.37692308
vt 0.34 0.37692308
vn 1 0 0
usemtl texture
f 163/472/118 164/471/118 162/470/118 161/469/118
vt 0.30666667 0.39615385
vt 0.33333333 0.39615385
vt 0.33333333 0.39230769
vt 0.30666667 0.39230769
vn 0 1 0
usemtl texture
f 168/476/119 163/475/119 161/474/119 166/473/119
vt 0.33333333 0.37307692
vt 0.34 0.37307692
vt 0.34 0.36923077
vt 0.33333333 0.36923077
vn -1 0 0
usemtl texture
f 167/480/120 168/479/120 166/478/120 165/477/120
vt 0.33333333 0.38846154
vt 0.30666667 0.38846154
vt 0.30666667 0.39230769
vt 0.33333333 0.39230769
vn 0 0 -1
usemtl texture
f 166/484/121 161/483/121 162/482/121 165/481/121
vt 0.34 0.42307692
vt 0.31333333 0.42307692
vt 0.31333333 0.41923077
vt 0.34 0.41923077
vn 0 0 1
usemtl texture
f 167/488/122 164/487/122 163/486/122 168/485/122

o cube
v 0.69375 0.0625 0.3125
v 0.69375 0 0.3125
v 0.69375 0.0625 0.6875
v 0.69375 0 0.6875
v 0.63125 0 0.3125
v 0.63125 0.0625 0.3125
v 0.63125 0 0.6875
v 0.63125 0.0625 0.6875
vt 0.28666667 0.4
vt 0.29333333 0.4
vt 0.29333333 0.37692308
vt 0.28666667 0.37692308
vn 0 -1 0
usemtl texture
f 172/492/123 175/491/123 173/490/123 170/489/123
vt 0.29333333 0.4
vt 0.3 0.4
vt 0.3 0.37692308
vt 0.29333333 0.37692308
vn 1 0 0
usemtl texture
f 171/496/124 172/495/124 170/494/124 169/493/124
vt 0.3 0.42307692
vt 0.30666667 0.42307692
vt 0.30666667 0.4
vt 0.3 0.4
vn 0 1 0
usemtl texture
f 176/500/125 171/499/125 169/498/125 174/497/125
vt 0.3 0.4
vt 0.30666667 0.4
vt 0.30666667 0.37692308
vt 0.3 0.37692308
vn -1 0 0
usemtl texture
f 175/504/126 176/503/126 174/502/126 173/501/126
vt 0.29333333 0.36923077
vt 0.28666667 0.36923077
vt 0.28666667 0.37307692
vt 0.29333333 0.37307692
vn 0 0 -1
usemtl texture
f 174/508/127 169/507/127 170/506/127 173/505/127
vt 0.3 0.37307692
vt 0.29333333 0.37307692
vt 0.29333333 0.36923077
vt 0.3 0.36923077
vn 0 0 1
usemtl texture
f 175/512/128 172/511/128 171/510/128 176/509/128

o cube
v 0.63125 0.0625 0.3125
v 0.63125 0 0.3125
v 0.63125 0.0625 0.375
v 0.63125 0 0.375
v 0.38125 0 0.3125
v 0.38125 0.0625 0.3125
v 0.38125 0 0.375
v 0.38125 0.0625 0.375
vt 0.31333333 0.41923077
vt 0.34 0.41923077
vt 0.34 0.41538462
vt 0.31333333 0.41538462
vn 0 -1 0
usemtl texture
f 180/516/129 183/515/129 181/514/129 178/513/129
vt 0.34 0.37692308
vt 0.34666667 0.37692308
vt 0.34666667 0.37307692
vt 0.34 0.37307692
vn 1 0 0
usemtl texture
f 179/520/130 180/519/130 178/518/130 177/517/130
vt 0.31333333 0.41538462
vt 0.34 0.41538462
vt 0.34 0.41153846
vt 0.31333333 0.41153846
vn 0 1 0
usemtl texture
f 184/524/131 179/523/131 177/522/131 182/521/131
vt 0.34 0.37307692
vt 0.34666667 0.37307692
vt 0.34666667 0.36923077
vt 0.34 0.36923077
vn -1 0 0
usemtl texture
f 183/528/132 184/527/132 182/526/132 181/525/132
vt 0.34 0.40769231
vt 0.31333333 0.40769231
vt 0.31333333 0.41153846
vt 0.34 0.41153846
vn 0 0 -1
usemtl texture
f 182/532/133 177/531/133 178/530/133 181/529/133
vt 0.33333333 0.38846154
vt 0.30666667 0.38846154
vt 0.30666667 0.38461538
vt 0.33333333 0.38461538
vn 0 0 1
usemtl texture
f 183/536/134 180/535/134 179/534/134 184/533/134

o cube
v 0.63125 0.125 0.375
v 0.63125 0.0625 0.375
v 0.63125 0.125 0.625
v 0.63125 0.0625 0.625
v 0.56875 0.0625 0.375
v 0.56875 0.125 0.375
v 0.56875 0.0625 0.625
v 0.56875 0.125 0.625
vt 0.26 0.39230769
vt 0.26666667 0.39230769
vt 0.26666667 0.37692308
vt 0.26 0.37692308
vn 0 -1 0
usemtl texture
f 188/540/135 191/539/135 189/538/135 186/537/135
vt 0.25333333 0.37692308
vt 0.26 0.37692308
vt 0.26 0.36153846
vt 0.25333333 0.36153846
vn 1 0 0
usemtl texture
f 187/544/136 188/543/136 186/542/136 185/541/136
vt 0.27333333 0.39230769
vt 0.28 0.39230769
vt 0.28 0.37692308
vt 0.27333333 0.37692308
vn 0 1 0
usemtl texture
f 192/548/137 187/547/137 185/546/137 190/545/137
vt 0.30666667 0.38461538
vt 0.31333333 0.38461538
vt 0.31333333 0.36923077
vt 0.30666667 0.36923077
vn -1 0 0
usemtl texture
f 191/552/138 192/551/138 190/550/138 189/549/138
vt 0.26666667 0.36538462
vt 0.26 0.36538462
vt 0.26 0.36923077
vt 0.26666667 0.36923077
vn 0 0 -1
usemtl texture
f 190/556/139 185/555/139 186/554/139 189/553/139
vt 0.27333333 0.36923077
vt 0.26666667 0.36923077
vt 0.26666667 0.36538462
vt 0.27333333 0.36538462
vn 0 0 1
usemtl texture
f 191/560/140 188/559/140 187/558/140 192/557/140

o cube
v 0.56875 0.125 0.5625
v 0.56875 0.0625 0.5625
v 0.56875 0.125 0.625
v 0.56875 0.0625 0.625
v 0.44375 0.0625 0.5625
v 0.44375 0.125 0.5625
v 0.44375 0.0625 0.625
v 0.44375 0.125 0.625
vt 0.33333333 0.40769231
vt 0.34666667 0.40769231
vt 0.34666667 0.40384615
vt 0.33333333 0.40384615
vn 0 -1 0
usemtl texture
f 196/564/141 199/563/141 197/562/141 194/561/141
vt 0.34666667 0.41153846
vt 0.35333333 0.41153846
vt 0.35333333 0.40769231
vt 0.34666667 0.40769231
vn 1 0 0
usemtl texture
f 195/568/142 196/567/142 194/566/142 193/565/142
vt 0.28666667 0.37692308
vt 0.3 0.37692308
vt 0.3 0.37307692
vt 0.28666667 0.37307692
vn 0 1 0
usemtl texture
f 200/572/143 195/571/143 193/570/143 198/569/143
vt 0.28 0.36923077
vt 0.28666667 0.36923077
vt 0.28666667 0.36538462
vt 0.28 0.36538462
vn -1 0 0
usemtl texture
f 199/576/144 200/575/144 198/574/144 197/573/144
vt 0.34666667 0.4
vt 0.33333333 0.4
vt 0.33333333 0.40384615
vt 0.34666667 0.40384615
vn 0 0 -1
usemtl texture
f 198/580/145 193/579/145 194/578/145 197/577/145
vt 0.34666667 0.4
vt 0.33333333 0.4
vt 0.33333333 0.39615385
vt 0.34666667 0.39615385
vn 0 0 1
usemtl texture
f 199/584/146 196/583/146 195/582/146 200/581/146

o cube
v 0.44375 0.125 0.375
v 0.44375 0.0625 0.375
v 0.44375 0.125 0.625
v 0.44375 0.0625 0.625
v 0.38125 0.0625 0.375
v 0.38125 0.125 0.375
v 0.38125 0.0625 0.625
v 0.38125 0.125 0.625
vt 0.31333333 0.38461538
vt 0.32 0.38461538
vt 0.32 0.36923077
vt 0.31333333 0.36923077
vn 0 -1 0
usemtl texture
f 204/588/147 207/587/147 205/586/147 202/585/147
vt 0.32 0.38461538
vt 0.32666667 0.38461538
vt 0.32666667 0.36923077
vt 0.32 0.36923077
vn 1 0 0
usemtl texture
f 203/592/148 204/591/148 202/590/148 201/589/148
vt 0.32666667 0.38461538
vt 0.33333333 0.38461538
vt 0.33333333 0.36923077
vt 0.32666667 0.36923077
vn 0 1 0
usemtl texture
f 208/596/149 203/595/149 201/594/149 206/593/149
vt 0.25333333 0.37692308
vt 0.26 0.37692308
vt 0.26 0.36153846
vt 0.25333333 0.36153846
vn -1 0 0
usemtl texture
f 207/600/150 208/599/150 206/598/150 205/597/150
vt 0.35333333 0.41153846
vt 0.34666667 0.41153846
vt 0.34666667 0.41538462
vt 0.35333333 0.41538462
vn 0 0 -1
usemtl texture
f 206/604/151 201/603/151 202/602/151 205/601/151
vt 0.28 0.36923077
vt 0.27333333 0.36923077
vt 0.27333333 0.36538462
vt 0.28 0.36538462
vn 0 0 1
usemtl texture
f 207/608/152 204/607/152 203/606/152 208/605/152

o cube
v 0.56875 0.125 0.375
v 0.56875 0.0625 0.375
v 0.56875 0.125 0.4375
v 0.56875 0.0625 0.4375
v 0.44375 0.0625 0.375
v 0.44375 0.125 0.375
v 0.44375 0.0625 0.4375
v 0.44375 0.125 0.4375
vt 0.33333333 0.39615385
vt 0.34666667 0.39615385
vt 0.34666667 0.39230769
vt 0.33333333 0.39230769
vn 0 -1 0
usemtl texture
f 212/612/153 215/611/153 213/610/153 210/609/153
vt 0.34666667 0.40769231
vt 0.35333333 0.40769231
vt 0.35333333 0.40384615
vt 0.34666667 0.40384615
vn 1 0 0
usemtl texture
f 211/616/154 212/615/154 210/614/154 209/613/154
vt 0.33333333 0.39230769
vt 0.34666667 0.39230769
vt 0.34666667 0.38846154
vt 0.33333333 0.38846154
vn 0 1 0
usemtl texture
f 216/620/155 211/619/155 209/618/155 214/617/155
vt 0.28666667 0.36923077
vt 0.29333333 0.36923077
vt 0.29333333 0.36538462
vt 0.28666667 0.36538462
vn -1 0 0
usemtl texture
f 215/624/156 216/623/156 214/622/156 213/621/156
vt 0.34666667 0.38461538
vt 0.33333333 0.38461538
vt 0.33333333 0.38846154
vt 0.34666667 0.38846154
vn 0 0 -1
usemtl texture
f 214/628/157 209/627/157 210/626/157 213/625/157
vt 0.34666667 0.38461538
vt 0.33333333 0.38461538
vt 0.33333333 0.38076923
vt 0.34666667 0.38076923
vn 0 0 1
usemtl texture
f 215/632/158 212/631/158 211/630/158 216/629/158

o cube
v 0.41097439 0.22732983 0.4375
v 0.38141732 0.19507395 0.4375
v 0.41097439 0.22732983 0.5625
v 0.38141732 0.19507395 0.5625
v 0.2201379 0.34285931 0.4375
v 0.24969497 0.37511519 0.4375
v 0.2201379 0.34285931 0.5625
v 0.24969497 0.37511519 0.5625
vt 0.25333333 0.42307692
vt 0.28666667 0.42307692
vt 0.28666667 0.41538462
vt 0.25333333 0.41538462
vn -0.67559021 -0.73727734 0
usemtl texture
f 220/636/159 223/635/159 221/634/159 218/633/159
vt 0.25333333 0.39230769
vt 0.26 0.39230769
vt 0.26 0.37692308
vt 0.25333333 0.37692308
vn 0.73727734 -0.67559021 0
usemtl texture
f 219/640/160 220/639/160 218/638/160 217/637/160
vt 0.25333333 0.41538462
vt 0.28666667 0.41538462
vt 0.28666667 0.40769231
vt 0.25333333 0.40769231
vn 0.67559021 0.73727734 0
usemtl texture
f 224/644/161 219/643/161 217/642/161 222/641/161
vt 0.30666667 0.42307692
vt 0.31333333 0.42307692
vt 0.31333333 0.40769231
vt 0.30666667 0.40769231
vn -0.73727734 0.67559021 0
usemtl texture
f 223/648/162 224/647/162 222/646/162 221/645/162
vt 0.33333333 0.40384615
vt 0.30666667 0.40384615
vt 0.30666667 0.40769231
vt 0.33333333 0.40769231
vn 0 0 -1
usemtl texture
f 222/652/163 217/651/163 218/650/163 221/649/163
vt 0.33333333 0.40384615
vt 0.30666667 0.40384615
vt 0.30666667 0.4
vt 0.33333333 0.4
vn 0 0 1
usemtl texture
f 223/656/164 220/655/164 219/654/164 224/653/164

o cube
v 0.15088835 0 0.84911165
v 0.15088835 0 0.84911165
v 0.15088835 0.5 0.84911165
v 0.15088835 0.5 0.84911165
v -0.02588835 0 1.02588835
v -0.02588835 0 1.02588835
v -0.02588835 0.5 1.02588835
v -0.02588835 0.5 1.02588835
vt 0.04 0.9
vt 0.09333333 0.9
vt 0.09333333 0.86923077
vt 0.04 0.86923077
vn 0.70710678 0 0.70710678
usemtl texture
f 228/660/165 231/659/165 229/658/165 226/657/165
vt 0.09333333 0.9
vt 0.04 0.9
vt 0.04 0.86923077
vt 0.09333333 0.86923077
vn -0.70710678 0 -0.70710678
usemtl texture
f 232/664/166 227/663/166 225/662/166 230/661/166

o cube
v 0.15088835 0 0.84911165
v 0.15088835 0 0.84911165
v 0.15088835 0.5 0.84911165
v 0.15088835 0.5 0.84911165
v -0.02588835 0 1.02588835
v -0.02588835 0 1.02588835
v -0.02588835 0.5 1.02588835
v -0.02588835 0.5 1.02588835
vt 0.04 0.83846154
vt 0.09333333 0.83846154
vt 0.09333333 0.80769231
vt 0.04 0.80769231
vn 0.70710678 0 0.70710678
usemtl texture
f 236/668/167 239/667/167 237/666/167 234/665/167
vt 0.09333333 0.83846154
vt 0.04 0.83846154
vt 0.04 0.80769231
vt 0.09333333 0.80769231
vn -0.70710678 0 -0.70710678
usemtl texture
f 240/672/168 235/671/168 233/670/168 238/669/168

o cube
v 0.15088835 0 0.84911165
v 0.15088835 0 0.84911165
v 0.15088835 0.5 0.84911165
v 0.15088835 0.5 0.84911165
v -0.02588835 0 1.02588835
v -0.02588835 0 1.02588835
v -0.02588835 0.5 1.02588835
v -0.02588835 0.5 1.02588835
vt 0.04 0.77692308
vt 0.09333333 0.77692308
vt 0.09333333 0.74615385
vt 0.04 0.74615385
vn 0.70710678 0 0.70710678
usemtl texture
f 244/676/169 247/675/169 245/674/169 242/673/169
vt 0.09333333 0.77692308
vt 0.04 0.77692308
vt 0.04 0.74615385
vt 0.09333333 0.74615385
vn -0.70710678 0 -0.70710678
usemtl texture
f 248/680/170 243/679/170 241/678/170 246/677/170

o cube
v 0.15088835 0 0.84911165
v 0.15088835 0 0.84911165
v 0.15088835 0.5 0.84911165
v 0.15088835 0.5 0.84911165
v -0.02588835 0 1.02588835
v -0.02588835 0 1.02588835
v -0.02588835 0.5 1.02588835
v -0.02588835 0.5 1.02588835
vt 0.04 0.71538462
vt 0.09333333 0.71538462
vt 0.09333333 0.68461538
vt 0.04 0.68461538
vn 0.70710678 0 0.70710678
usemtl texture
f 252/684/171 255/683/171 253/682/171 250/681/171
vt 0.09333333 0.71538462
vt 0.04 0.71538462
vt 0.04 0.68461538
vt 0.09333333 0.68461538
vn -0.70710678 0 -0.70710678
usemtl texture
f 256/688/172 251/687/172 249/686/172 254/685/172

o cube
v 0.15088835 0 0.84911165
v 0.15088835 0 0.84911165
v 0.15088835 0.5 0.84911165
v 0.15088835 0.5 0.84911165
v -0.02588835 0 1.02588835
v -0.02588835 0 1.02588835
v -0.02588835 0.5 1.02588835
v -0.02588835 0.5 1.02588835
vt 0.04 0.65384615
vt 0.09333333 0.65384615
vt 0.09333333 0.62307692
vt 0.04 0.62307692
vn 0.70710678 0 0.70710678
usemtl texture
f 260/692/173 263/691/173 261/690/173 258/689/173
vt 0.09333333 0.65384615
vt 0.04 0.65384615
vt 0.04 0.62307692
vt 0.09333333 0.62307692
vn -0.70710678 0 -0.70710678
usemtl texture
f 264/696/174 259/695/174 257/694/174 262/693/174

o cube
v 0.15088835 0 0.84911165
v 0.15088835 0 0.84911165
v 0.15088835 0.5 0.84911165
v 0.15088835 0.5 0.84911165
v -0.02588835 0 1.02588835
v -0.02588835 0 1.02588835
v -0.02588835 0.5 1.02588835
v -0.02588835 0.5 1.02588835
vt 0.04 0.59230769
vt 0.09333333 0.59230769
vt 0.09333333 0.56153846
vt 0.04 0.56153846
vn 0.70710678 0 0.70710678
usemtl texture
f 268/700/175 271/699/175 269/698/175 266/697/175
vt 0.09333333 0.59230769
vt 0.04 0.59230769
vt 0.04 0.56153846
vt 0.09333333 0.56153846
vn -0.70710678 0 -0.70710678
usemtl texture
f 272/704/176 267/703/176 265/702/176 270/701/176

o cube
v 0.15088835 0 0.84911165
v 0.15088835 0 0.84911165
v 0.15088835 0.5 0.84911165
v 0.15088835 0.5 0.84911165
v -0.02588835 0 1.02588835
v -0.02588835 0 1.02588835
v -0.02588835 0.5 1.02588835
v -0.02588835 0.5 1.02588835
vt 0.04 0.53076923
vt 0.09333333 0.53076923
vt 0.09333333 0.5
vt 0.04 0.5
vn 0.70710678 0 0.70710678
usemtl texture
f 276/708/177 279/707/177 277/706/177 274/705/177
vt 0.09333333 0.53076923
vt 0.04 0.53076923
vt 0.04 0.5
vt 0.09333333 0.5
vn -0.70710678 0 -0.70710678
usemtl texture
f 280/712/178 275/711/178 273/710/178 278/709/178

o cube
v 0.15088835 0 0.84911165
v 0.15088835 0 0.84911165
v 0.15088835 0.5 0.84911165
v 0.15088835 0.5 0.84911165
v -0.02588835 0 1.02588835
v -0.02588835 0 1.02588835
v -0.02588835 0.5 1.02588835
v -0.02588835 0.5 1.02588835
vt 0.04 0.46923077
vt 0.09333333 0.46923077
vt 0.09333333 0.43846154
vt 0.04 0.43846154
vn 0.70710678 0 0.70710678
usemtl texture
f 284/716/179 287/715/179 285/714/179 282/713/179
vt 0.09333333 0.46923077
vt 0.04 0.46923077
vt 0.04 0.43846154
vt 0.09333333 0.43846154
vn -0.70710678 0 -0.70710678
usemtl texture
f 288/720/180 283/719/180 281/718/180 286/717/180

o cube
v 0.15088835 0 0.84911165
v 0.15088835 0 0.84911165
v 0.15088835 0.5 0.84911165
v 0.15088835 0.5 0.84911165
v -0.02588835 0 1.02588835
v -0.02588835 0 1.02588835
v -0.02588835 0.5 1.02588835
v -0.02588835 0.5 1.02588835
vt 0.04 0.40769231
vt 0.09333333 0.40769231
vt 0.09333333 0.37692308
vt 0.04 0.37692308
vn 0.70710678 0 0.70710678
usemtl texture
f 292/724/181 295/723/181 293/722/181 290/721/181
vt 0.09333333 0.40769231
vt 0.04 0.40769231
vt 0.04 0.37692308
vt 0.09333333 0.37692308
vn -0.70710678 0 -0.70710678
usemtl texture
f 296/728/182 291/727/182 289/726/182 294/725/182

o cube
v 0.15088835 0 0.84911165
v 0.15088835 0 0.84911165
v 0.15088835 0.5 0.84911165
v 0.15088835 0.5 0.84911165
v -0.02588835 0 1.02588835
v -0.02588835 0 1.02588835
v -0.02588835 0.5 1.02588835
v -0.02588835 0.5 1.02588835
vt 0.04 0.34615385
vt 0.09333333 0.34615385
vt 0.09333333 0.31538462
vt 0.04 0.31538462
vn 0.70710678 0 0.70710678
usemtl texture
f 300/732/183 303/731/183 301/730/183 298/729/183
vt 0.09333333 0.34615385
vt 0.04 0.34615385
vt 0.04 0.31538462
vt 0.09333333 0.31538462
vn -0.70710678 0 -0.70710678
usemtl texture
f 304/736/184 299/735/184 297/734/184 302/733/184

o cube
v 0.15088835 0 0.84911165
v 0.15088835 0 0.84911165
v 0.15088835 0.5 0.84911165
v 0.15088835 0.5 0.84911165
v -0.02588835 0 1.02588835
v -0.02588835 0 1.02588835
v -0.02588835 0.5 1.02588835
v -0.02588835 0.5 1.02588835
vt 0.04 0.28461538
vt 0.09333333 0.28461538
vt 0.09333333 0.25384615
vt 0.04 0.25384615
vn 0.70710678 0 0.70710678
usemtl texture
f 308/740/185 311/739/185 309/738/185 306/737/185
vt 0.09333333 0.28461538
vt 0.04 0.28461538
vt 0.04 0.25384615
vt 0.09333333 0.25384615
vn -0.70710678 0 -0.70710678
usemtl texture
f 312/744/186 307/743/186 305/742/186 310/741/186

o cube
v 0.15088835 0 0.84911165
v 0.15088835 0 0.84911165
v 0.15088835 0.5 0.84911165
v 0.15088835 0.5 0.84911165
v -0.02588835 0 1.02588835
v -0.02588835 0 1.02588835
v -0.02588835 0.5 1.02588835
v -0.02588835 0.5 1.02588835
vt 0.04 0.22307692
vt 0.09333333 0.22307692
vt 0.09333333 0.19230769
vt 0.04 0.19230769
vn 0.70710678 0 0.70710678
usemtl texture
f 316/748/187 319/747/187 317/746/187 314/745/187
vt 0.09333333 0.22307692
vt 0.04 0.22307692
vt 0.04 0.19230769
vt 0.09333333 0.19230769
vn -0.70710678 0 -0.70710678
usemtl texture
f 320/752/188 315/751/188 313/750/188 318/749/188

o cube
v 0.15088835 0 0.84911165
v 0.15088835 0 0.84911165
v 0.15088835 0.5 0.84911165
v 0.15088835 0.5 0.84911165
v -0.02588835 0 1.02588835
v -0.02588835 0 1.02588835
v -0.02588835 0.5 1.02588835
v -0.02588835 0.5 1.02588835
vt 0.04 0.16153846
vt 0.09333333 0.16153846
vt 0.09333333 0.13076923
vt 0.04 0.13076923
vn 0.70710678 0 0.70710678
usemtl texture
f 324/756/189 327/755/189 325/754/189 322/753/189
vt 0.09333333 0.16153846
vt 0.04 0.16153846
vt 0.04 0.13076923
vt 0.09333333 0.13076923
vn -0.70710678 0 -0.70710678
usemtl texture
f 328/760/190 323/759/190 321/758/190 326/757/190

o cube
v 0.15088835 0 0.84911165
v 0.15088835 0 0.84911165
v 0.15088835 0.5 0.84911165
v 0.15088835 0.5 0.84911165
v -0.02588835 0 1.02588835
v -0.02588835 0 1.02588835
v -0.02588835 0.5 1.02588835
v -0.02588835 0.5 1.02588835
vt 0.04 0.1
vt 0.09333333 0.1
vt 0.09333333 0.06923077
vt 0.04 0.06923077
vn 0.70710678 0 0.70710678
usemtl texture
f 332/764/191 335/763/191 333/762/191 330/761/191
vt 0.09333333 0.1
vt 0.04 0.1
vt 0.04 0.06923077
vt 0.09333333 0.06923077
vn -0.70710678 0 -0.70710678
usemtl texture
f 336/768/192 331/767/192 329/766/192 334/765/192

o cube
v 0.15088835 0 0.84911165
v 0.15088835 0 0.84911165
v 0.15088835 0.5 0.84911165
v 0.15088835 0.5 0.84911165
v -0.02588835 0 1.02588835
v -0.02588835 0 1.02588835
v -0.02588835 0.5 1.02588835
v -0.02588835 0.5 1.02588835
vt 0.04 0.03846154
vt 0.09333333 0.03846154
vt 0.09333333 0.00769231
vt 0.04 0.00769231
vn 0.70710678 0 0.70710678
usemtl texture
f 340/772/193 343/771/193 341/770/193 338/769/193
vt 0.09333333 0.03846154
vt 0.04 0.03846154
vt 0.04 0.00769231
vt 0.09333333 0.00769231
vn -0.70710678 0 -0.70710678
usemtl texture
f 344/776/194 339/775/194 337/774/194 342/773/194

o cube
v 0.84911165 0 0.84911165
v 0.84911165 0 0.84911165
v 0.84911165 0.5 0.84911165
v 0.84911165 0.5 0.84911165
v 1.02588835 0 1.02588835
v 1.02588835 0 1.02588835
v 1.02588835 0.5 1.02588835
v 1.02588835 0.5 1.02588835
vt 0.04 0.96153846
vt 0.09333333 0.96153846
vt 0.09333333 0.93076923
vt 0.04 0.93076923
vn 0.70710678 0 -0.70710678
usemtl texture
f 348/780/195 351/779/195 349/778/195 346/777/195
vt 0.09333333 0.96153846
vt 0.04 0.96153846
vt 0.04 0.93076923
vt 0.09333333 0.93076923
vn -0.70710678 0 0.70710678
usemtl texture
f 352/784/196 347/783/196 345/782/196 350/781/196

o cube
v 0.84911165 0 0.84911165
v 0.84911165 0 0.84911165
v 0.84911165 0.5 0.84911165
v 0.84911165 0.5 0.84911165
v 1.02588835 0 1.02588835
v 1.02588835 0 1.02588835
v 1.02588835 0.5 1.02588835
v 1.02588835 0.5 1.02588835
vt 0.04 0.9
vt 0.09333333 0.9
vt 0.09333333 0.86923077
vt 0.04 0.86923077
vn 0.70710678 0 -0.70710678
usemtl texture
f 356/788/197 359/787/197 357/786/197 354/785/197
vt 0.09333333 0.9
vt 0.04 0.9
vt 0.04 0.86923077
vt 0.09333333 0.86923077
vn -0.70710678 0 0.70710678
usemtl texture
f 360/792/198 355/791/198 353/790/198 358/789/198

o cube
v 0.84911165 0 0.84911165
v 0.84911165 0 0.84911165
v 0.84911165 0.5 0.84911165
v 0.84911165 0.5 0.84911165
v 1.02588835 0 1.02588835
v 1.02588835 0 1.02588835
v 1.02588835 0.5 1.02588835
v 1.02588835 0.5 1.02588835
vt 0.04 0.83846154
vt 0.09333333 0.83846154
vt 0.09333333 0.80769231
vt 0.04 0.80769231
vn 0.70710678 0 -0.70710678
usemtl texture
f 364/796/199 367/795/199 365/794/199 362/793/199
vt 0.09333333 0.83846154
vt 0.04 0.83846154
vt 0.04 0.80769231
vt 0.09333333 0.80769231
vn -0.70710678 0 0.70710678
usemtl texture
f 368/800/200 363/799/200 361/798/200 366/797/200

o cube
v 0.84911165 0 0.84911165
v 0.84911165 0 0.84911165
v 0.84911165 0.5 0.84911165
v 0.84911165 0.5 0.84911165
v 1.02588835 0 1.02588835
v 1.02588835 0 1.02588835
v 1.02588835 0.5 1.02588835
v 1.02588835 0.5 1.02588835
vt 0.04 0.77692308
vt 0.09333333 0.77692308
vt 0.09333333 0.74615385
vt 0.04 0.74615385
vn 0.70710678 0 -0.70710678
usemtl texture
f 372/804/201 375/803/201 373/802/201 370/801/201
vt 0.09333333 0.77692308
vt 0.04 0.77692308
vt 0.04 0.74615385
vt 0.09333333 0.74615385
vn -0.70710678 0 0.70710678
usemtl texture
f 376/808/202 371/807/202 369/806/202 374/805/202

o cube
v 0.84911165 0 0.84911165
v 0.84911165 0 0.84911165
v 0.84911165 0.5 0.84911165
v 0.84911165 0.5 0.84911165
v 1.02588835 0 1.02588835
v 1.02588835 0 1.02588835
v 1.02588835 0.5 1.02588835
v 1.02588835 0.5 1.02588835
vt 0.04 0.71538462
vt 0.09333333 0.71538462
vt 0.09333333 0.68461538
vt 0.04 0.68461538
vn 0.70710678 0 -0.70710678
usemtl texture
f 380/812/203 383/811/203 381/810/203 378/809/203
vt 0.09333333 0.71538462
vt 0.04 0.71538462
vt 0.04 0.68461538
vt 0.09333333 0.68461538
vn -0.70710678 0 0.70710678
usemtl texture
f 384/816/204 379/815/204 377/814/204 382/813/204

o cube
v 0.84911165 0 0.84911165
v 0.84911165 0 0.84911165
v 0.84911165 0.5 0.84911165
v 0.84911165 0.5 0.84911165
v 1.02588835 0 1.02588835
v 1.02588835 0 1.02588835
v 1.02588835 0.5 1.02588835
v 1.02588835 0.5 1.02588835
vt 0.04 0.65384615
vt 0.09333333 0.65384615
vt 0.09333333 0.62307692
vt 0.04 0.62307692
vn 0.70710678 0 -0.70710678
usemtl texture
f 388/820/205 391/819/205 389/818/205 386/817/205
vt 0.09333333 0.65384615
vt 0.04 0.65384615
vt 0.04 0.62307692
vt 0.09333333 0.62307692
vn -0.70710678 0 0.70710678
usemtl texture
f 392/824/206 387/823/206 385/822/206 390/821/206

o cube
v 0.84911165 0 0.84911165
v 0.84911165 0 0.84911165
v 0.84911165 0.5 0.84911165
v 0.84911165 0.5 0.84911165
v 1.02588835 0 1.02588835
v 1.02588835 0 1.02588835
v 1.02588835 0.5 1.02588835
v 1.02588835 0.5 1.02588835
vt 0.04 0.59230769
vt 0.09333333 0.59230769
vt 0.09333333 0.56153846
vt 0.04 0.56153846
vn 0.70710678 0 -0.70710678
usemtl texture
f 396/828/207 399/827/207 397/826/207 394/825/207
vt 0.09333333 0.59230769
vt 0.04 0.59230769
vt 0.04 0.56153846
vt 0.09333333 0.56153846
vn -0.70710678 0 0.70710678
usemtl texture
f 400/832/208 395/831/208 393/830/208 398/829/208

o cube
v 0.84911165 0 0.84911165
v 0.84911165 0 0.84911165
v 0.84911165 0.5 0.84911165
v 0.84911165 0.5 0.84911165
v 1.02588835 0 1.02588835
v 1.02588835 0 1.02588835
v 1.02588835 0.5 1.02588835
v 1.02588835 0.5 1.02588835
vt 0.04 0.53076923
vt 0.09333333 0.53076923
vt 0.09333333 0.5
vt 0.04 0.5
vn 0.70710678 0 -0.70710678
usemtl texture
f 404/836/209 407/835/209 405/834/209 402/833/209
vt 0.09333333 0.53076923
vt 0.04 0.53076923
vt 0.04 0.5
vt 0.09333333 0.5
vn -0.70710678 0 0.70710678
usemtl texture
f 408/840/210 403/839/210 401/838/210 406/837/210

o cube
v 0.84911165 0 0.84911165
v 0.84911165 0 0.84911165
v 0.84911165 0.5 0.84911165
v 0.84911165 0.5 0.84911165
v 1.02588835 0 1.02588835
v 1.02588835 0 1.02588835
v 1.02588835 0.5 1.02588835
v 1.02588835 0.5 1.02588835
vt 0.04 0.46923077
vt 0.09333333 0.46923077
vt 0.09333333 0.43846154
vt 0.04 0.43846154
vn 0.70710678 0 -0.70710678
usemtl texture
f 412/844/211 415/843/211 413/842/211 410/841/211
vt 0.09333333 0.46923077
vt 0.04 0.46923077
vt 0.04 0.43846154
vt 0.09333333 0.43846154
vn -0.70710678 0 0.70710678
usemtl texture
f 416/848/212 411/847/212 409/846/212 414/845/212

o cube
v 0.84911165 0 0.84911165
v 0.84911165 0 0.84911165
v 0.84911165 0.5 0.84911165
v 0.84911165 0.5 0.84911165
v 1.02588835 0 1.02588835
v 1.02588835 0 1.02588835
v 1.02588835 0.5 1.02588835
v 1.02588835 0.5 1.02588835
vt 0.04 0.40769231
vt 0.09333333 0.40769231
vt 0.09333333 0.37692308
vt 0.04 0.37692308
vn 0.70710678 0 -0.70710678
usemtl texture
f 420/852/213 423/851/213 421/850/213 418/849/213
vt 0.09333333 0.40769231
vt 0.04 0.40769231
vt 0.04 0.37692308
vt 0.09333333 0.37692308
vn -0.70710678 0 0.70710678
usemtl texture
f 424/856/214 419/855/214 417/854/214 422/853/214

o cube
v 0.84911165 0 0.84911165
v 0.84911165 0 0.84911165
v 0.84911165 0.5 0.84911165
v 0.84911165 0.5 0.84911165
v 1.02588835 0 1.02588835
v 1.02588835 0 1.02588835
v 1.02588835 0.5 1.02588835
v 1.02588835 0.5 1.02588835
vt 0.04 0.34615385
vt 0.09333333 0.34615385
vt 0.09333333 0.31538462
vt 0.04 0.31538462
vn 0.70710678 0 -0.70710678
usemtl texture
f 428/860/215 431/859/215 429/858/215 426/857/215
vt 0.09333333 0.34615385
vt 0.04 0.34615385
vt 0.04 0.31538462
vt 0.09333333 0.31538462
vn -0.70710678 0 0.70710678
usemtl texture
f 432/864/216 427/863/216 425/862/216 430/861/216

o cube
v 0.84911165 0 0.84911165
v 0.84911165 0 0.84911165
v 0.84911165 0.5 0.84911165
v 0.84911165 0.5 0.84911165
v 1.02588835 0 1.02588835
v 1.02588835 0 1.02588835
v 1.02588835 0.5 1.02588835
v 1.02588835 0.5 1.02588835
vt 0.04 0.28461538
vt 0.09333333 0.28461538
vt 0.09333333 0.25384615
vt 0.04 0.25384615
vn 0.70710678 0 -0.70710678
usemtl texture
f 436/868/217 439/867/217 437/866/217 434/865/217
vt 0.09333333 0.28461538
vt 0.04 0.28461538
vt 0.04 0.25384615
vt 0.09333333 0.25384615
vn -0.70710678 0 0.70710678
usemtl texture
f 440/872/218 435/871/218 433/870/218 438/869/218

o cube
v 0.84911165 0 0.84911165
v 0.84911165 0 0.84911165
v 0.84911165 0.5 0.84911165
v 0.84911165 0.5 0.84911165
v 1.02588835 0 1.02588835
v 1.02588835 0 1.02588835
v 1.02588835 0.5 1.02588835
v 1.02588835 0.5 1.02588835
vt 0.04 0.22307692
vt 0.09333333 0.22307692
vt 0.09333333 0.19230769
vt 0.04 0.19230769
vn 0.70710678 0 -0.70710678
usemtl texture
f 444/876/219 447/875/219 445/874/219 442/873/219
vt 0.09333333 0.22307692
vt 0.04 0.22307692
vt 0.04 0.19230769
vt 0.09333333 0.19230769
vn -0.70710678 0 0.70710678
usemtl texture
f 448/880/220 443/879/220 441/878/220 446/877/220

o cube
v 0.84911165 0 0.84911165
v 0.84911165 0 0.84911165
v 0.84911165 0.5 0.84911165
v 0.84911165 0.5 0.84911165
v 1.02588835 0 1.02588835
v 1.02588835 0 1.02588835
v 1.02588835 0.5 1.02588835
v 1.02588835 0.5 1.02588835
vt 0.04 0.16153846
vt 0.09333333 0.16153846
vt 0.09333333 0.13076923
vt 0.04 0.13076923
vn 0.70710678 0 -0.70710678
usemtl texture
f 452/884/221 455/883/221 453/882/221 450/881/221
vt 0.09333333 0.16153846
vt 0.04 0.16153846
vt 0.04 0.13076923
vt 0.09333333 0.13076923
vn -0.70710678 0 0.70710678
usemtl texture
f 456/888/222 451/887/222 449/886/222 454/885/222

o cube
v 0.84911165 0 0.84911165
v 0.84911165 0 0.84911165
v 0.84911165 0.5 0.84911165
v 0.84911165 0.5 0.84911165
v 1.02588835 0 1.02588835
v 1.02588835 0 1.02588835
v 1.02588835 0.5 1.02588835
v 1.02588835 0.5 1.02588835
vt 0.04 0.1
vt 0.09333333 0.1
vt 0.09333333 0.06923077
vt 0.04 0.06923077
vn 0.70710678 0 -0.70710678
usemtl texture
f 460/892/223 463/891/223 461/890/223 458/889/223
vt 0.09333333 0.1
vt 0.04 0.1
vt 0.04 0.06923077
vt 0.09333333 0.06923077
vn -0.70710678 0 0.70710678
usemtl texture
f 464/896/224 459/895/224 457/894/224 462/893/224

o cube
v 0.84911165 0 0.84911165
v 0.84911165 0 0.84911165
v 0.84911165 0.5 0.84911165
v 0.84911165 0.5 0.84911165
v 1.02588835 0 1.02588835
v 1.02588835 0 1.02588835
v 1.02588835 0.5 1.02588835
v 1.02588835 0.5 1.02588835
vt 0.04 0.03846154
vt 0.09333333 0.03846154
vt 0.09333333 0.00769231
vt 0.04 0.00769231
vn 0.70710678 0 -0.70710678
usemtl texture
f 468/900/225 471/899/225 469/898/225 466/897/225
vt 0.09333333 0.03846154
vt 0.04 0.03846154
vt 0.04 0.00769231
vt 0.09333333 0.00769231
vn -0.70710678 0 0.70710678
usemtl texture
f 472/904/226 467/903/226 465/902/226 470/901/226

o cube
v 0.84911165 0 0.15088835
v 0.84911165 0 0.15088835
v 0.84911165 0.5 0.15088835
v 0.84911165 0.5 0.15088835
v 1.02588835 0 -0.02588835
v 1.02588835 0 -0.02588835
v 1.02588835 0.5 -0.02588835
v 1.02588835 0.5 -0.02588835
vt 0.04 0.96153846
vt 0.09333333 0.96153846
vt 0.09333333 0.93076923
vt 0.04 0.93076923
vn -0.70710678 0 -0.70710678
usemtl texture
f 476/908/227 479/907/227 477/906/227 474/905/227
vt 0.09333333 0.96153846
vt 0.04 0.96153846
vt 0.04 0.93076923
vt 0.09333333 0.93076923
vn 0.70710678 0 0.70710678
usemtl texture
f 480/912/228 475/911/228 473/910/228 478/909/228

o cube
v 0.84911165 0 0.15088835
v 0.84911165 0 0.15088835
v 0.84911165 0.5 0.15088835
v 0.84911165 0.5 0.15088835
v 1.02588835 0 -0.02588835
v 1.02588835 0 -0.02588835
v 1.02588835 0.5 -0.02588835
v 1.02588835 0.5 -0.02588835
vt 0.04 0.9
vt 0.09333333 0.9
vt 0.09333333 0.86923077
vt 0.04 0.86923077
vn -0.70710678 0 -0.70710678
usemtl texture
f 484/916/229 487/915/229 485/914/229 482/913/229
vt 0.09333333 0.9
vt 0.04 0.9
vt 0.04 0.86923077
vt 0.09333333 0.86923077
vn 0.70710678 0 0.70710678
usemtl texture
f 488/920/230 483/919/230 481/918/230 486/917/230

o cube
v 0.84911165 0 0.15088835
v 0.84911165 0 0.15088835
v 0.84911165 0.5 0.15088835
v 0.84911165 0.5 0.15088835
v 1.02588835 0 -0.02588835
v 1.02588835 0 -0.02588835
v 1.02588835 0.5 -0.02588835
v 1.02588835 0.5 -0.02588835
vt 0.04 0.83846154
vt 0.09333333 0.83846154
vt 0.09333333 0.80769231
vt 0.04 0.80769231
vn -0.70710678 0 -0.70710678
usemtl texture
f 492/924/231 495/923/231 493/922/231 490/921/231
vt 0.09333333 0.83846154
vt 0.04 0.83846154
vt 0.04 0.80769231
vt 0.09333333 0.80769231
vn 0.70710678 0 0.70710678
usemtl texture
f 496/928/232 491/927/232 489/926/232 494/925/232

o cube
v 0.84911165 0 0.15088835
v 0.84911165 0 0.15088835
v 0.84911165 0.5 0.15088835
v 0.84911165 0.5 0.15088835
v 1.02588835 0 -0.02588835
v 1.02588835 0 -0.02588835
v 1.02588835 0.5 -0.02588835
v 1.02588835 0.5 -0.02588835
vt 0.04 0.77692308
vt 0.09333333 0.77692308
vt 0.09333333 0.74615385
vt 0.04 0.74615385
vn -0.70710678 0 -0.70710678
usemtl texture
f 500/932/233 503/931/233 501/930/233 498/929/233
vt 0.09333333 0.77692308
vt 0.04 0.77692308
vt 0.04 0.74615385
vt 0.09333333 0.74615385
vn 0.70710678 0 0.70710678
usemtl texture
f 504/936/234 499/935/234 497/934/234 502/933/234

o cube
v 0.84911165 0 0.15088835
v 0.84911165 0 0.15088835
v 0.84911165 0.5 0.15088835
v 0.84911165 0.5 0.15088835
v 1.02588835 0 -0.02588835
v 1.02588835 0 -0.02588835
v 1.02588835 0.5 -0.02588835
v 1.02588835 0.5 -0.02588835
vt 0.04 0.71538462
vt 0.09333333 0.71538462
vt 0.09333333 0.68461538
vt 0.04 0.68461538
vn -0.70710678 0 -0.70710678
usemtl texture
f 508/940/235 511/939/235 509/938/235 506/937/235
vt 0.09333333 0.71538462
vt 0.04 0.71538462
vt 0.04 0.68461538
vt 0.09333333 0.68461538
vn 0.70710678 0 0.70710678
usemtl texture
f 512/944/236 507/943/236 505/942/236 510/941/236

o cube
v 0.84911165 0 0.15088835
v 0.84911165 0 0.15088835
v 0.84911165 0.5 0.15088835
v 0.84911165 0.5 0.15088835
v 1.02588835 0 -0.02588835
v 1.02588835 0 -0.02588835
v 1.02588835 0.5 -0.02588835
v 1.02588835 0.5 -0.02588835
vt 0.04 0.65384615
vt 0.09333333 0.65384615
vt 0.09333333 0.62307692
vt 0.04 0.62307692
vn -0.70710678 0 -0.70710678
usemtl texture
f 516/948/237 519/947/237 517/946/237 514/945/237
vt 0.09333333 0.65384615
vt 0.04 0.65384615
vt 0.04 0.62307692
vt 0.09333333 0.62307692
vn 0.70710678 0 0.70710678
usemtl texture
f 520/952/238 515/951/238 513/950/238 518/949/238

o cube
v 0.84911165 0 0.15088835
v 0.84911165 0 0.15088835
v 0.84911165 0.5 0.15088835
v 0.84911165 0.5 0.15088835
v 1.02588835 0 -0.02588835
v 1.02588835 0 -0.02588835
v 1.02588835 0.5 -0.02588835
v 1.02588835 0.5 -0.02588835
vt 0.04 0.59230769
vt 0.09333333 0.59230769
vt 0.09333333 0.56153846
vt 0.04 0.56153846
vn -0.70710678 0 -0.70710678
usemtl texture
f 524/956/239 527/955/239 525/954/239 522/953/239
vt 0.09333333 0.59230769
vt 0.04 0.59230769
vt 0.04 0.56153846
vt 0.09333333 0.56153846
vn 0.70710678 0 0.70710678
usemtl texture
f 528/960/240 523/959/240 521/958/240 526/957/240

o cube
v 0.84911165 0 0.15088835
v 0.84911165 0 0.15088835
v 0.84911165 0.5 0.15088835
v 0.84911165 0.5 0.15088835
v 1.02588835 0 -0.02588835
v 1.02588835 0 -0.02588835
v 1.02588835 0.5 -0.02588835
v 1.02588835 0.5 -0.02588835
vt 0.04 0.53076923
vt 0.09333333 0.53076923
vt 0.09333333 0.5
vt 0.04 0.5
vn -0.70710678 0 -0.70710678
usemtl texture
f 532/964/241 535/963/241 533/962/241 530/961/241
vt 0.09333333 0.53076923
vt 0.04 0.53076923
vt 0.04 0.5
vt 0.09333333 0.5
vn 0.70710678 0 0.70710678
usemtl texture
f 536/968/242 531/967/242 529/966/242 534/965/242

o cube
v 0.84911165 0 0.15088835
v 0.84911165 0 0.15088835
v 0.84911165 0.5 0.15088835
v 0.84911165 0.5 0.15088835
v 1.02588835 0 -0.02588835
v 1.02588835 0 -0.02588835
v 1.02588835 0.5 -0.02588835
v 1.02588835 0.5 -0.02588835
vt 0.04 0.46923077
vt 0.09333333 0.46923077
vt 0.09333333 0.43846154
vt 0.04 0.43846154
vn -0.70710678 0 -0.70710678
usemtl texture
f 540/972/243 543/971/243 541/970/243 538/969/243
vt 0.09333333 0.46923077
vt 0.04 0.46923077
vt 0.04 0.43846154
vt 0.09333333 0.43846154
vn 0.70710678 0 0.70710678
usemtl texture
f 544/976/244 539/975/244 537/974/244 542/973/244

o cube
v 0.84911165 0 0.15088835
v 0.84911165 0 0.15088835
v 0.84911165 0.5 0.15088835
v 0.84911165 0.5 0.15088835
v 1.02588835 0 -0.02588835
v 1.02588835 0 -0.02588835
v 1.02588835 0.5 -0.02588835
v 1.02588835 0.5 -0.02588835
vt 0.04 0.40769231
vt 0.09333333 0.40769231
vt 0.09333333 0.37692308
vt 0.04 0.37692308
vn -0.70710678 0 -0.70710678
usemtl texture
f 548/980/245 551/979/245 549/978/245 546/977/245
vt 0.09333333 0.40769231
vt 0.04 0.40769231
vt 0.04 0.37692308
vt 0.09333333 0.37692308
vn 0.70710678 0 0.70710678
usemtl texture
f 552/984/246 547/983/246 545/982/246 550/981/246

o cube
v 0.84911165 0 0.15088835
v 0.84911165 0 0.15088835
v 0.84911165 0.5 0.15088835
v 0.84911165 0.5 0.15088835
v 1.02588835 0 -0.02588835
v 1.02588835 0 -0.02588835
v 1.02588835 0.5 -0.02588835
v 1.02588835 0.5 -0.02588835
vt 0.04 0.34615385
vt 0.09333333 0.34615385
vt 0.09333333 0.31538462
vt 0.04 0.31538462
vn -0.70710678 0 -0.70710678
usemtl texture
f 556/988/247 559/987/247 557/986/247 554/985/247
vt 0.09333333 0.34615385
vt 0.04 0.34615385
vt 0.04 0.31538462
vt 0.09333333 0.31538462
vn 0.70710678 0 0.70710678
usemtl texture
f 560/992/248 555/991/248 553/990/248 558/989/248

o cube
v 0.84911165 0 0.15088835
v 0.84911165 0 0.15088835
v 0.84911165 0.5 0.15088835
v 0.84911165 0.5 0.15088835
v 1.02588835 0 -0.02588835
v 1.02588835 0 -0.02588835
v 1.02588835 0.5 -0.02588835
v 1.02588835 0.5 -0.02588835
vt 0.04 0.28461538
vt 0.09333333 0.28461538
vt 0.09333333 0.25384615
vt 0.04 0.25384615
vn -0.70710678 0 -0.70710678
usemtl texture
f 564/996/249 567/995/249 565/994/249 562/993/249
vt 0.09333333 0.28461538
vt 0.04 0.28461538
vt 0.04 0.25384615
vt 0.09333333 0.25384615
vn 0.70710678 0 0.70710678
usemtl texture
f 568/1000/250 563/999/250 561/998/250 566/997/250

o cube
v 0.84911165 0 0.15088835
v 0.84911165 0 0.15088835
v 0.84911165 0.5 0.15088835
v 0.84911165 0.5 0.15088835
v 1.02588835 0 -0.02588835
v 1.02588835 0 -0.02588835
v 1.02588835 0.5 -0.02588835
v 1.02588835 0.5 -0.02588835
vt 0.04 0.22307692
vt 0.09333333 0.22307692
vt 0.09333333 0.19230769
vt 0.04 0.19230769
vn -0.70710678 0 -0.70710678
usemtl texture
f 572/1004/251 575/1003/251 573/1002/251 570/1001/251
vt 0.09333333 0.22307692
vt 0.04 0.22307692
vt 0.04 0.19230769
vt 0.09333333 0.19230769
vn 0.70710678 0 0.70710678
usemtl texture
f 576/1008/252 571/1007/252 569/1006/252 574/1005/252

o cube
v 0.84911165 0 0.15088835
v 0.84911165 0 0.15088835
v 0.84911165 0.5 0.15088835
v 0.84911165 0.5 0.15088835
v 1.02588835 0 -0.02588835
v 1.02588835 0 -0.02588835
v 1.02588835 0.5 -0.02588835
v 1.02588835 0.5 -0.02588835
vt 0.04 0.16153846
vt 0.09333333 0.16153846
vt 0.09333333 0.13076923
vt 0.04 0.13076923
vn -0.70710678 0 -0.70710678
usemtl texture
f 580/1012/253 583/1011/253 581/1010/253 578/1009/253
vt 0.09333333 0.16153846
vt 0.04 0.16153846
vt 0.04 0.13076923
vt 0.09333333 0.13076923
vn 0.70710678 0 0.70710678
usemtl texture
f 584/1016/254 579/1015/254 577/1014/254 582/1013/254

o cube
v 0.84911165 0 0.15088835
v 0.84911165 0 0.15088835
v 0.84911165 0.5 0.15088835
v 0.84911165 0.5 0.15088835
v 1.02588835 0 -0.02588835
v 1.02588835 0 -0.02588835
v 1.02588835 0.5 -0.02588835
v 1.02588835 0.5 -0.02588835
vt 0.04 0.1
vt 0.09333333 0.1
vt 0.09333333 0.06923077
vt 0.04 0.06923077
vn -0.70710678 0 -0.70710678
usemtl texture
f 588/1020/255 591/1019/255 589/1018/255 586/1017/255
vt 0.09333333 0.1
vt 0.04 0.1
vt 0.04 0.06923077
vt 0.09333333 0.06923077
vn 0.70710678 0 0.70710678
usemtl texture
f 592/1024/256 587/1023/256 585/1022/256 590/1021/256

o cube
v 0.84911165 0 0.15088835
v 0.84911165 0 0.15088835
v 0.84911165 0.5 0.15088835
v 0.84911165 0.5 0.15088835
v 1.02588835 0 -0.02588835
v 1.02588835 0 -0.02588835
v 1.02588835 0.5 -0.02588835
v 1.02588835 0.5 -0.02588835
vt 0.04 0.03846154
vt 0.09333333 0.03846154
vt 0.09333333 0.00769231
vt 0.04 0.00769231
vn -0.70710678 0 -0.70710678
usemtl texture
f 596/1028/257 599/1027/257 597/1026/257 594/1025/257
vt 0.09333333 0.03846154
vt 0.04 0.03846154
vt 0.04 0.00769231
vt 0.09333333 0.00769231
vn 0.70710678 0 0.70710678
usemtl texture
f 600/1032/258 595/1031/258 593/1030/258 598/1029/258

o cube
v -0.02588835 0 -0.02588835
v -0.02588835 0 -0.02588835
v -0.02588835 0.5 -0.02588835
v -0.02588835 0.5 -0.02588835
v 0.15088835 0 0.15088835
v 0.15088835 0 0.15088835
v 0.15088835 0.5 0.15088835
v 0.15088835 0.5 0.15088835
vt 0.04 0.96153846
vt 0.09333333 0.96153846
vt 0.09333333 0.93076923
vt 0.04 0.93076923
vn 0.70710678 0 -0.70710678
usemtl texture
f 604/1036/259 607/1035/259 605/1034/259 602/1033/259
vt 0.09333333 0.96153846
vt 0.04 0.96153846
vt 0.04 0.93076923
vt 0.09333333 0.93076923
vn -0.70710678 0 0.70710678
usemtl texture
f 608/1040/260 603/1039/260 601/1038/260 606/1037/260

o cube
v -0.02588835 0 -0.02588835
v -0.02588835 0 -0.02588835
v -0.02588835 0.5 -0.02588835
v -0.02588835 0.5 -0.02588835
v 0.15088835 0 0.15088835
v 0.15088835 0 0.15088835
v 0.15088835 0.5 0.15088835
v 0.15088835 0.5 0.15088835
vt 0.04 0.9
vt 0.09333333 0.9
vt 0.09333333 0.86923077
vt 0.04 0.86923077
vn 0.70710678 0 -0.70710678
usemtl texture
f 612/1044/261 615/1043/261 613/1042/261 610/1041/261
vt 0.09333333 0.9
vt 0.04 0.9
vt 0.04 0.86923077
vt 0.09333333 0.86923077
vn -0.70710678 0 0.70710678
usemtl texture
f 616/1048/262 611/1047/262 609/1046/262 614/1045/262

o cube
v -0.02588835 0 -0.02588835
v -0.02588835 0 -0.02588835
v -0.02588835 0.5 -0.02588835
v -0.02588835 0.5 -0.02588835
v 0.15088835 0 0.15088835
v 0.15088835 0 0.15088835
v 0.15088835 0.5 0.15088835
v 0.15088835 0.5 0.15088835
vt 0.04 0.83846154
vt 0.09333333 0.83846154
vt 0.09333333 0.80769231
vt 0.04 0.80769231
vn 0.70710678 0 -0.70710678
usemtl texture
f 620/1052/263 623/1051/263 621/1050/263 618/1049/263
vt 0.09333333 0.83846154
vt 0.04 0.83846154
vt 0.04 0.80769231
vt 0.09333333 0.80769231
vn -0.70710678 0 0.70710678
usemtl texture
f 624/1056/264 619/1055/264 617/1054/264 622/1053/264

o cube
v -0.02588835 0 -0.02588835
v -0.02588835 0 -0.02588835
v -0.02588835 0.5 -0.02588835
v -0.02588835 0.5 -0.02588835
v 0.15088835 0 0.15088835
v 0.15088835 0 0.15088835
v 0.15088835 0.5 0.15088835
v 0.15088835 0.5 0.15088835
vt 0.04 0.77692308
vt 0.09333333 0.77692308
vt 0.09333333 0.74615385
vt 0.04 0.74615385
vn 0.70710678 0 -0.70710678
usemtl texture
f 628/1060/265 631/1059/265 629/1058/265 626/1057/265
vt 0.09333333 0.77692308
vt 0.04 0.77692308
vt 0.04 0.74615385
vt 0.09333333 0.74615385
vn -0.70710678 0 0.70710678
usemtl texture
f 632/1064/266 627/1063/266 625/1062/266 630/1061/266

o cube
v -0.02588835 0 -0.02588835
v -0.02588835 0 -0.02588835
v -0.02588835 0.5 -0.02588835
v -0.02588835 0.5 -0.02588835
v 0.15088835 0 0.15088835
v 0.15088835 0 0.15088835
v 0.15088835 0.5 0.15088835
v 0.15088835 0.5 0.15088835
vt 0.04 0.71538462
vt 0.09333333 0.71538462
vt 0.09333333 0.68461538
vt 0.04 0.68461538
vn 0.70710678 0 -0.70710678
usemtl texture
f 636/1068/267 639/1067/267 637/1066/267 634/1065/267
vt 0.09333333 0.71538462
vt 0.04 0.71538462
vt 0.04 0.68461538
vt 0.09333333 0.68461538
vn -0.70710678 0 0.70710678
usemtl texture
f 640/1072/268 635/1071/268 633/1070/268 638/1069/268

o cube
v -0.02588835 0 -0.02588835
v -0.02588835 0 -0.02588835
v -0.02588835 0.5 -0.02588835
v -0.02588835 0.5 -0.02588835
v 0.15088835 0 0.15088835
v 0.15088835 0 0.15088835
v 0.15088835 0.5 0.15088835
v 0.15088835 0.5 0.15088835
vt 0.04 0.65384615
vt 0.09333333 0.65384615
vt 0.09333333 0.62307692
vt 0.04 0.62307692
vn 0.70710678 0 -0.70710678
usemtl texture
f 644/1076/269 647/1075/269 645/1074/269 642/1073/269
vt 0.09333333 0.65384615
vt 0.04 0.65384615
vt 0.04 0.62307692
vt 0.09333333 0.62307692
vn -0.70710678 0 0.70710678
usemtl texture
f 648/1080/270 643/1079/270 641/1078/270 646/1077/270

o cube
v -0.02588835 0 -0.02588835
v -0.02588835 0 -0.02588835
v -0.02588835 0.5 -0.02588835
v -0.02588835 0.5 -0.02588835
v 0.15088835 0 0.15088835
v 0.15088835 0 0.15088835
v 0.15088835 0.5 0.15088835
v 0.15088835 0.5 0.15088835
vt 0.04 0.59230769
vt 0.09333333 0.59230769
vt 0.09333333 0.56153846
vt 0.04 0.56153846
vn 0.70710678 0 -0.70710678
usemtl texture
f 652/1084/271 655/1083/271 653/1082/271 650/1081/271
vt 0.09333333 0.59230769
vt 0.04 0.59230769
vt 0.04 0.56153846
vt 0.09333333 0.56153846
vn -0.70710678 0 0.70710678
usemtl texture
f 656/1088/272 651/1087/272 649/1086/272 654/1085/272

o cube
v -0.02588835 0 -0.02588835
v -0.02588835 0 -0.02588835
v -0.02588835 0.5 -0.02588835
v -0.02588835 0.5 -0.02588835
v 0.15088835 0 0.15088835
v 0.15088835 0 0.15088835
v 0.15088835 0.5 0.15088835
v 0.15088835 0.5 0.15088835
vt 0.04 0.53076923
vt 0.09333333 0.53076923
vt 0.09333333 0.5
vt 0.04 0.5
vn 0.70710678 0 -0.70710678
usemtl texture
f 660/1092/273 663/1091/273 661/1090/273 658/1089/273
vt 0.09333333 0.53076923
vt 0.04 0.53076923
vt 0.04 0.5
vt 0.09333333 0.5
vn -0.70710678 0 0.70710678
usemtl texture
f 664/1096/274 659/1095/274 657/1094/274 662/1093/274

o cube
v -0.02588835 0 -0.02588835
v -0.02588835 0 -0.02588835
v -0.02588835 0.5 -0.02588835
v -0.02588835 0.5 -0.02588835
v 0.15088835 0 0.15088835
v 0.15088835 0 0.15088835
v 0.15088835 0.5 0.15088835
v 0.15088835 0.5 0.15088835
vt 0.04 0.46923077
vt 0.09333333 0.46923077
vt 0.09333333 0.43846154
vt 0.04 0.43846154
vn 0.70710678 0 -0.70710678
usemtl texture
f 668/1100/275 671/1099/275 669/1098/275 666/1097/275
vt 0.09333333 0.46923077
vt 0.04 0.46923077
vt 0.04 0.43846154
vt 0.09333333 0.43846154
vn -0.70710678 0 0.70710678
usemtl texture
f 672/1104/276 667/1103/276 665/1102/276 670/1101/276

o cube
v -0.02588835 0 -0.02588835
v -0.02588835 0 -0.02588835
v -0.02588835 0.5 -0.02588835
v -0.02588835 0.5 -0.02588835
v 0.15088835 0 0.15088835
v 0.15088835 0 0.15088835
v 0.15088835 0.5 0.15088835
v 0.15088835 0.5 0.15088835
vt 0.04 0.40769231
vt 0.09333333 0.40769231
vt 0.09333333 0.37692308
vt 0.04 0.37692308
vn 0.70710678 0 -0.70710678
usemtl texture
f 676/1108/277 679/1107/277 677/1106/277 674/1105/277
vt 0.09333333 0.40769231
vt 0.04 0.40769231
vt 0.04 0.37692308
vt 0.09333333 0.37692308
vn -0.70710678 0 0.70710678
usemtl texture
f 680/1112/278 675/1111/278 673/1110/278 678/1109/278

o cube
v -0.02588835 0 -0.02588835
v -0.02588835 0 -0.02588835
v -0.02588835 0.5 -0.02588835
v -0.02588835 0.5 -0.02588835
v 0.15088835 0 0.15088835
v 0.15088835 0 0.15088835
v 0.15088835 0.5 0.15088835
v 0.15088835 0.5 0.15088835
vt 0.04 0.34615385
vt 0.09333333 0.34615385
vt 0.09333333 0.31538462
vt 0.04 0.31538462
vn 0.70710678 0 -0.70710678
usemtl texture
f 684/1116/279 687/1115/279 685/1114/279 682/1113/279
vt 0.09333333 0.34615385
vt 0.04 0.34615385
vt 0.04 0.31538462
vt 0.09333333 0.31538462
vn -0.70710678 0 0.70710678
usemtl texture
f 688/1120/280 683/1119/280 681/1118/280 686/1117/280

o cube
v -0.02588835 0 -0.02588835
v -0.02588835 0 -0.02588835
v -0.02588835 0.5 -0.02588835
v -0.02588835 0.5 -0.02588835
v 0.15088835 0 0.15088835
v 0.15088835 0 0.15088835
v 0.15088835 0.5 0.15088835
v 0.15088835 0.5 0.15088835
vt 0.04 0.28461538
vt 0.09333333 0.28461538
vt 0.09333333 0.25384615
vt 0.04 0.25384615
vn 0.70710678 0 -0.70710678
usemtl texture
f 692/1124/281 695/1123/281 693/1122/281 690/1121/281
vt 0.09333333 0.28461538
vt 0.04 0.28461538
vt 0.04 0.25384615
vt 0.09333333 0.25384615
vn -0.70710678 0 0.70710678
usemtl texture
f 696/1128/282 691/1127/282 689/1126/282 694/1125/282

o cube
v -0.02588835 0 -0.02588835
v -0.02588835 0 -0.02588835
v -0.02588835 0.5 -0.02588835
v -0.02588835 0.5 -0.02588835
v 0.15088835 0 0.15088835
v 0.15088835 0 0.15088835
v 0.15088835 0.5 0.15088835
v 0.15088835 0.5 0.15088835
vt 0.04 0.22307692
vt 0.09333333 0.22307692
vt 0.09333333 0.19230769
vt 0.04 0.19230769
vn 0.70710678 0 -0.70710678
usemtl texture
f 700/1132/283 703/1131/283 701/1130/283 698/1129/283
vt 0.09333333 0.22307692
vt 0.04 0.22307692
vt 0.04 0.19230769
vt 0.09333333 0.19230769
vn -0.70710678 0 0.70710678
usemtl texture
f 704/1136/284 699/1135/284 697/1134/284 702/1133/284

o cube
v -0.02588835 0 -0.02588835
v -0.02588835 0 -0.02588835
v -0.02588835 0.5 -0.02588835
v -0.02588835 0.5 -0.02588835
v 0.15088835 0 0.15088835
v 0.15088835 0 0.15088835
v 0.15088835 0.5 0.15088835
v 0.15088835 0.5 0.15088835
vt 0.04 0.16153846
vt 0.09333333 0.16153846
vt 0.09333333 0.13076923
vt 0.04 0.13076923
vn 0.70710678 0 -0.70710678
usemtl texture
f 708/1140/285 711/1139/285 709/1138/285 706/1137/285
vt 0.09333333 0.16153846
vt 0.04 0.16153846
vt 0.04 0.13076923
vt 0.09333333 0.13076923
vn -0.70710678 0 0.70710678
usemtl texture
f 712/1144/286 707/1143/286 705/1142/286 710/1141/286

o cube
v -0.02588835 0 -0.02588835
v -0.02588835 0 -0.02588835
v -0.02588835 0.5 -0.02588835
v -0.02588835 0.5 -0.02588835
v 0.15088835 0 0.15088835
v 0.15088835 0 0.15088835
v 0.15088835 0.5 0.15088835
v 0.15088835 0.5 0.15088835
vt 0.04 0.1
vt 0.09333333 0.1
vt 0.09333333 0.06923077
vt 0.04 0.06923077
vn 0.70710678 0 -0.70710678
usemtl texture
f 716/1148/287 719/1147/287 717/1146/287 714/1145/287
vt 0.09333333 0.1
vt 0.04 0.1
vt 0.04 0.06923077
vt 0.09333333 0.06923077
vn -0.70710678 0 0.70710678
usemtl texture
f 720/1152/288 715/1151/288 713/1150/288 718/1149/288

o cube
v -0.02588835 0 -0.02588835
v -0.02588835 0 -0.02588835
v -0.02588835 0.5 -0.02588835
v -0.02588835 0.5 -0.02588835
v 0.15088835 0 0.15088835
v 0.15088835 0 0.15088835
v 0.15088835 0.5 0.15088835
v 0.15088835 0.5 0.15088835
vt 0.04 0.03846154
vt 0.09333333 0.03846154
vt 0.09333333 0.00769231
vt 0.04 0.00769231
vn 0.70710678 0 -0.70710678
usemtl texture
f 724/1156/289 727/1155/289 725/1154/289 722/1153/289
vt 0.09333333 0.03846154
vt 0.04 0.03846154
vt 0.04 0.00769231
vt 0.09333333 0.00769231
vn -0.70710678 0 0.70710678
usemtl texture
f 728/1160/290 723/1159/290 721/1158/290 726/1157/290

o cube
v 0.9375 0.9375 0.625
v 0.9375 0.9375 0.375
v 0.9375 0.8125 0.625
v 0.9375 0.8125 0.375
v 0.8375 0.9375 0.375
v 0.8375 0.9375 0.625
v 0.8375 0.8125 0.375
v 0.8375 0.8125 0.625
vt 0.87333333 0.46923077
vt 0.88666667 0.46923077
vt 0.88666667 0.46153846
vt 0.87333333 0.46153846
vn 0 0 -1
usemtl texture
f 732/1164/291 735/1163/291 733/1162/291 730/1161/291
vt 0.85333333 0.47692308
vt 0.88 0.47692308
vt 0.88 0.46923077
vt 0.85333333 0.46923077
vn 1 0 0
usemtl texture
f 731/1168/292 732/1167/292 730/1166/292 729/1165/292
vt 0.88666667 0.46923077
vt 0.9 0.46923077
vt 0.9 0.46153846
vt 0.88666667 0.46153846
vn 0 0 1
usemtl texture
f 736/1172/293 731/1171/293 729/1170/293 734/1169/293
vt 0.88 0.49230769
vt 0.90666667 0.49230769
vt 0.90666667 0.48461538
vt 0.88 0.48461538
vn -1 0 0
usemtl texture
f 735/1176/294 736/1175/294 734/1174/294 733/1173/294
vt 0.89333333 0.46923077
vt 0.88 0.46923077
vt 0.88 0.48461538
vt 0.89333333 0.48461538
vn 0 1 0
usemtl texture
f 734/1180/295 729/1179/295 730/1178/295 733/1177/295
vt 0.86666667 0.46923077
vt 0.85333333 0.46923077
vt 0.85333333 0.45384615
vt 0.86666667 0.45384615
vn 0 -1 0
usemtl texture
f 735/1184/296 732/1183/296 731/1182/296 736/1181/296

o cube
v 0.38125 0.4375 0.625
v 0.38125 0.3125 0.625
v 0.38125 0.4375 0.375
v 0.38125 0.3125 0.375
v 0.63125 0.3125 0.625
v 0.63125 0.4375 0.625
v 0.63125 0.3125 0.375
v 0.63125 0.4375 0.375
vt 0.25333333 0.42307692
vt 0.28 0.42307692
vt 0.28 0.40769231
vt 0.25333333 0.40769231
vn 0 -1 0
usemtl texture
f 740/1188/297 743/1187/297 741/1186/297 738/1185/297
vt 0.25333333 0.39230769
vt 0.26 0.39230769
vt 0.26 0.37692308
vt 0.25333333 0.37692308
vn -1 0 0
usemtl texture
f 739/1192/298 740/1191/298 738/1190/298 737/1189/298
vt 0.25333333 0.40769231
vt 0.28 0.40769231
vt 0.28 0.39230769
vt 0.25333333 0.39230769
vn 0 1 0
usemtl texture
f 744/1196/299 739/1195/299 737/1194/299 742/1193/299
vt 0.30666667 0.42307692
vt 0.31333333 0.42307692
vt 0.31333333 0.40769231
vt 0.30666667 0.40769231
vn 1 0 0
usemtl texture
f 743/1200/300 744/1199/300 742/1198/300 741/1197/300
vt 0.33333333 0.40384615
vt 0.30666667 0.40384615
vt 0.30666667 0.40769231
vt 0.33333333 0.40769231
vn 0 0 1
usemtl texture
f 742/1204/301 737/1203/301 738/1202/301 741/1201/301
vt 0.33333333 0.40384615
vt 0.30666667 0.40384615
vt 0.30666667 0.4
vt 0.33333333 0.4
vn 0 0 -1
usemtl texture
f 743/1208/302 740/1207/302 739/1206/302 744/1205/302

o cube
v 0.62347439 0.19142017 0.4375
v 0.59391732 0.22367605 0.4375
v 0.62347439 0.19142017 0.5625
v 0.59391732 0.22367605 0.5625
v 0.75519673 0.37146141 0.4375
v 0.78475381 0.33920552 0.4375
v 0.75519673 0.37146141 0.5625
v 0.78475381 0.33920552 0.5625
vt 0.25333333 0.42307692
vt 0.28666667 0.42307692
vt 0.28666667 0.41538462
vt 0.25333333 0.41538462
vn -0.67559021 0.73727734 0
usemtl texture
f 748/1212/303 751/1211/303 749/1210/303 746/1209/303
vt 0.25333333 0.39230769
vt 0.26 0.39230769
vt 0.26 0.37692308
vt 0.25333333 0.37692308
vn -0.73727734 -0.67559021 0
usemtl texture
f 747/1216/304 748/1215/304 746/1214/304 745/1213/304
vt 0.25333333 0.41538462
vt 0.28666667 0.41538462
vt 0.28666667 0.40769231
vt 0.25333333 0.40769231
vn 0.67559021 -0.73727734 0
usemtl texture
f 752/1220/305 747/1219/305 745/1218/305 750/1217/305
vt 0.30666667 0.42307692
vt 0.31333333 0.42307692
vt 0.31333333 0.40769231
vt 0.30666667 0.40769231
vn 0.73727734 0.67559021 0
usemtl texture
f 751/1224/306 752/1223/306 750/1222/306 749/1221/306
vt 0.33333333 0.40384615
vt 0.30666667 0.40384615
vt 0.30666667 0.40769231
vt 0.33333333 0.40769231
vn 0 0 -1
usemtl texture
f 750/1228/307 745/1227/307 746/1226/307 749/1225/307
vt 0.33333333 0.40384615
vt 0.30666667 0.40384615
vt 0.30666667 0.4
vt 0.33333333 0.4
vn 0 0 1
usemtl texture
f 751/1232/308 748/1231/308 747/1230/308 752/1229/308

o cube
v 0.1625 0.9375 0.625
v 0.1625 0.9375 0.375
v 0.1625 0.8125 0.625
v 0.1625 0.8125 0.375
v 0.0625 0.9375 0.375
v 0.0625 0.9375 0.625
v 0.0625 0.8125 0.375
v 0.0625 0.8125 0.625
vt 0.87333333 0.46923077
vt 0.88666667 0.46923077
vt 0.88666667 0.46153846
vt 0.87333333 0.46153846
vn 0 0 -1
usemtl texture
f 756/1236/309 759/1235/309 757/1234/309 754/1233/309
vt 0.85333333 0.47692308
vt 0.88 0.47692308
vt 0.88 0.46923077
vt 0.85333333 0.46923077
vn 1 0 0
usemtl texture
f 755/1240/310 756/1239/310 754/1238/310 753/1237/310
vt 0.88666667 0.46923077
vt 0.9 0.46923077
vt 0.9 0.46153846
vt 0.88666667 0.46153846
vn 0 0 1
usemtl texture
f 760/1244/311 755/1243/311 753/1242/311 758/1241/311
vt 0.88 0.49230769
vt 0.90666667 0.49230769
vt 0.90666667 0.48461538
vt 0.88 0.48461538
vn -1 0 0
usemtl texture
f 759/1248/312 760/1247/312 758/1246/312 757/1245/312
vt 0.89333333 0.46923077
vt 0.88 0.46923077
vt 0.88 0.48461538
vt 0.89333333 0.48461538
vn 0 1 0
usemtl texture
f 758/1252/313 753/1251/313 754/1250/313 757/1249/313
vt 0.86666667 0.46923077
vt 0.85333333 0.46923077
vt 0.85333333 0.45384615
vt 0.86666667 0.45384615
vn 0 -1 0
usemtl texture
f 759/1256/314 756/1255/314 755/1254/314 760/1253/314

