# Converted from Blockbench for Create Echo Radars
mtllib mechanical_scanning_sonar.mtl

o head
v 0.57279687 0.86509554 0.43836397
v 0.57279687 0.80970015 0.36617129
v 0.57279687 0.74958726 0.52699659
v 0.57279687 0.69419187 0.45480391
v 0.42720313 0.80970015 0.36617129
v 0.42720313 0.86509554 0.43836397
v 0.42720313 0.69419187 0.45480391
v 0.42720313 0.74958726 0.52699659
vt 0.2 0.83076923
vt 0.30666667 0.83076923
vt 0.30666667 0.76923077
vt 0.2 0.76923077
vn 0 -0.60876143 -0.79335334
usemtl texture
f 4/4/1 7/3/1 5/2/1 2/1/1
vt 0.13333333 0.83076923
vt 0.2 0.83076923
vt 0.2 0.76923077
vt 0.13333333 0.76923077
vn 1 0 0
usemtl texture
f 3/8/2 4/7/2 2/6/2 1/5/2
vt 0.37333333 0.83076923
vt 0.48 0.83076923
vt 0.48 0.76923077
vt 0.37333333 0.76923077
vn 0 0.60876143 0.79335334
usemtl texture
f 8/12/3 3/11/3 1/10/3 6/9/3
vt 0.30666667 0.83076923
vt 0.37333333 0.83076923
vt 0.37333333 0.76923077
vt 0.30666667 0.76923077
vn -1 0 0
usemtl texture
f 7/16/4 8/15/4 6/14/4 5/13/4
vt 0.30666667 0.83076923
vt 0.2 0.83076923
vt 0.2 0.86923077
vt 0.30666667 0.86923077
vn 0 0.79335334 -0.60876143
usemtl texture
f 6/20/5 1/19/5 2/18/5 5/17/5
vt 0.41333333 0.86923077
vt 0.30666667 0.86923077
vt 0.30666667 0.83076923
vt 0.41333333 0.83076923
vn 0 -0.79335334 0.60876143
usemtl texture
f 7/24/6 4/23/6 3/22/6 8/21/6

o left_tendril
v 0.42720313 0.88688835 0.37840181
v 0.42720313 0.88688835 0.37840181
v 0.42720313 0.77138007 0.46703443
v 0.42720313 0.77138007 0.46703443
v 0.2816075 0.88688835 0.37840181
v 0.2816075 0.88688835 0.37840181
v 0.2816075 0.77138007 0.46703443
v 0.2816075 0.77138007 0.46703443
vt 0.52 0.99230769
vt 0.62666667 0.99230769
vt 0.62666667 0.93076923
vt 0.52 0.93076923
vn 0 -0.60876143 -0.79335334
usemtl texture
f 12/28/7 15/27/7 13/26/7 10/25/7
vt 0.52 0.99230769
vt 0.52 0.99230769
vt 0.52 0.93076923
vt 0.52 0.93076923
vn 1 0 0
usemtl texture
f 11/32/8 12/31/8 10/30/8 9/29/8
vt 0.62666667 0.99230769
vt 0.73333333 0.99230769
vt 0.73333333 0.93076923
vt 0.62666667 0.93076923
vn 0 0.60876143 0.79335334
usemtl texture
f 16/36/9 11/35/9 9/34/9 14/33/9
vt 0.62666667 0.99230769
vt 0.62666667 0.99230769
vt 0.62666667 0.93076923
vt 0.62666667 0.93076923
vn -1 0 0
usemtl texture
f 15/40/10 16/39/10 14/38/10 13/37/10
vt 0.62666667 0.99230769
vt 0.52 0.99230769
vt 0.52 0.99230769
vt 0.62666667 0.99230769
vn 0 0.79335334 -0.60876143
usemtl texture
f 14/44/11 9/43/11 10/42/11 13/41/11
vt 0.73333333 0.99230769
vt 0.62666667 0.99230769
vt 0.62666667 0.99230769
vt 0.73333333 0.99230769
vn 0 -0.79335334 0.60876143
usemtl texture
f 15/48/12 12/47/12 11/46/12 16/45/12

o right_tendril
v 0.7183925 0.88688835 0.37840181
v 0.7183925 0.88688835 0.37840181
v 0.7183925 0.77138007 0.46703443
v 0.7183925 0.77138007 0.46703443
v 0.57279687 0.88688835 0.37840181
v 0.57279687 0.88688835 0.37840181
v 0.57279687 0.77138007 0.46703443
v 0.57279687 0.77138007 0.46703443
vt 0.48 0.86923077
vt 0.58666667 0.86923077
vt 0.58666667 0.80769231
vt 0.48 0.80769231
vn 0 -0.60876143 -0.79335334
usemtl texture
f 20/52/13 23/51/13 21/50/13 18/49/13
vt 0.48 0.86923077
vt 0.48 0.86923077
vt 0.48 0.80769231
vt 0.48 0.80769231
vn 1 0 0
usemtl texture
f 19/56/14 20/55/14 18/54/14 17/53/14
vt 0.58666667 0.86923077
vt 0.69333333 0.86923077
vt 0.69333333 0.80769231
vt 0.58666667 0.80769231
vn 0 0.60876143 0.79335334
usemtl texture
f 24/60/15 19/59/15 17/58/15 22/57/15
vt 0.58666667 0.86923077
vt 0.58666667 0.86923077
vt 0.58666667 0.80769231
vt 0.58666667 0.80769231
vn -1 0 0
usemtl texture
f 23/64/16 24/63/16 22/62/16 21/61/16
vt 0.58666667 0.86923077
vt 0.48 0.86923077
vt 0.48 0.86923077
vt 0.58666667 0.86923077
vn 0 0.79335334 -0.60876143
usemtl texture
f 22/68/17 17/67/17 18/66/17 21/65/17
vt 0.69333333 0.86923077
vt 0.58666667 0.86923077
vt 0.58666667 0.86923077
vt 0.69333333 0.86923077
vn 0 -0.79335334 0.60876143
usemtl texture
f 23/72/18 20/71/18 19/70/18 24/69/18

o torso
v 0.58189687 0.72188938 0.55459813
v 0.58189687 0.72188938 0.45450187
v 0.58189687 0.53079562 0.55459813
v 0.58189687 0.53079562 0.45450187
v 0.41810313 0.72188938 0.45450187
v 0.41810313 0.72188938 0.55459813
v 0.41810313 0.53079562 0.45450187
v 0.41810313 0.53079562 0.55459813
vt 0.20666667 0.95
vt 0.32666667 0.95
vt 0.32666667 0.86923077
vt 0.20666667 0.86923077
vn 0 0 -1
usemtl texture
f 28/76/19 31/75/19 29/74/19 26/73/19
vt 0.13333333 0.95
vt 0.20666667 0.95
vt 0.20666667 0.86923077
vt 0.13333333 0.86923077
vn 1 0 0
usemtl texture
f 27/80/20 28/79/20 26/78/20 25/77/20
vt 0.4 0.95
vt 0.52 0.95
vt 0.52 0.86923077
vt 0.4 0.86923077
vn 0 0 1
usemtl texture
f 32/84/21 27/83/21 25/82/21 30/81/21
vt 0.32666667 0.95
vt 0.4 0.95
vt 0.4 0.86923077
vt 0.32666667 0.86923077
vn -1 0 0
usemtl texture
f 31/88/22 32/87/22 30/86/22 29/85/22
vt 0.32666667 0.95
vt 0.20666667 0.95
vt 0.20666667 0.99230769
vt 0.32666667 0.99230769
vn 0 1 0
usemtl texture
f 30/92/23 25/91/23 26/90/23 29/89/23
vt 0.44666667 0.99230769
vt 0.32666667 0.99230769
vt 0.32666667 0.95
vt 0.44666667 0.95
vn 0 -1 0
usemtl texture
f 31/96/24 28/95/24 27/94/24 32/93/24

o left_ribcage
v 0.5 0.72188938 0.45359187
v 0.5 0.72188938 0.45359187
v 0.5 0.53079562 0.45359187
v 0.5 0.53079562 0.45359187
v 0.41810313 0.72188938 0.45359187
v 0.41810313 0.72188938 0.45359187
v 0.41810313 0.53079562 0.45359187
v 0.41810313 0.53079562 0.45359187
vt 0.79333333 0.95
vt 0.73333333 0.95
vt 0.73333333 0.86923077
vt 0.79333333 0.86923077
vn 0 0 -1
usemtl texture
f 36/100/25 39/99/25 37/98/25 34/97/25
vt 0.79333333 0.95
vt 0.79333333 0.95
vt 0.79333333 0.86923077
vt 0.79333333 0.86923077
vn 1 0 0
usemtl texture
f 35/104/26 36/103/26 34/102/26 33/101/26
vt 0.85333333 0.95
vt 0.79333333 0.95
vt 0.79333333 0.86923077
vt 0.85333333 0.86923077
vn 0 0 1
usemtl texture
f 40/108/27 35/107/27 33/106/27 38/105/27
vt 0.73333333 0.95
vt 0.73333333 0.95
vt 0.73333333 0.86923077
vt 0.73333333 0.86923077
vn -1 0 0
usemtl texture
f 39/112/28 40/111/28 38/110/28 37/109/28
vt 0.73333333 0.95
vt 0.79333333 0.95
vt 0.79333333 0.95
vt 0.73333333 0.95
vn 0 1 0
usemtl texture
f 38/116/29 33/115/29 34/114/29 37/113/29
vt 0.79333333 0.95
vt 0.85333333 0.95
vt 0.85333333 0.95
vt 0.79333333 0.95
vn 0 -1 0
usemtl texture
f 39/120/30 36/119/30 35/118/30 40/117/30

o right_ribcage
v 0.58189687 0.72188938 0.45359187
v 0.58189687 0.72188938 0.45359187
v 0.58189687 0.53079562 0.45359187
v 0.58189687 0.53079562 0.45359187
v 0.5 0.72188938 0.45359187
v 0.5 0.72188938 0.45359187
v 0.5 0.53079562 0.45359187
v 0.5 0.53079562 0.45359187
vt 0.73333333 0.95
vt 0.79333333 0.95
vt 0.79333333 0.86923077
vt 0.73333333 0.86923077
vn 0 0 -1
usemtl texture
f 44/124/31 47/123/31 45/122/31 42/121/31
vt 0.73333333 0.95
vt 0.73333333 0.95
vt 0.73333333 0.86923077
vt 0.73333333 0.86923077
vn 1 0 0
usemtl texture
f 43/128/32 44/127/32 42/126/32 41/125/32
vt 0.79333333 0.95
vt 0.85333333 0.95
vt 0.85333333 0.86923077
vt 0.79333333 0.86923077
vn 0 0 1
usemtl texture
f 48/132/33 43/131/33 41/130/33 46/129/33
vt 0.79333333 0.95
vt 0.79333333 0.95
vt 0.79333333 0.86923077
vt 0.79333333 0.86923077
vn -1 0 0
usemtl texture
f 47/136/34 48/135/34 46/134/34 45/133/34
vt 0.79333333 0.95
vt 0.73333333 0.95
vt 0.73333333 0.95
vt 0.79333333 0.95
vn 0 1 0
usemtl texture
f 46/140/35 41/139/35 42/138/35 45/137/35
vt 0.85333333 0.95
vt 0.79333333 0.95
vt 0.79333333 0.95
vt 0.85333333 0.95
vn 0 -1 0
usemtl texture
f 47/144/36 44/143/36 43/142/36 48/141/36

o left_arm
v 0.4084695 0.69812505 0.5369949
v 0.42527658 0.73041113 0.47395042
v 0.379258 0.47608186 0.41549555
v 0.39606508 0.50836795 0.35245106
v 0.35493864 0.74565383 0.463005
v 0.33813157 0.71336775 0.52604949
v 0.32572714 0.52361064 0.34150565
v 0.30892007 0.49132456 0.40455014
vt 0.18666667 0.73846154
vt 0.24 0.73846154
vt 0.24 0.63076923
vt 0.18666667 0.63076923
vn 0.23087431 0.44350536 -0.86602543
usemtl texture
f 52/148/37 55/147/37 53/146/37 50/145/37
vt 0.13333333 0.73846154
vt 0.18666667 0.73846154
vt 0.18666667 0.63076923
vt 0.13333333 0.63076923
vn 0.96620532 -0.2093831 0.15035293
usemtl texture
f 51/152/38 52/151/38 50/150/38 49/149/38
vt 0.29333333 0.73846154
vt 0.34666667 0.73846154
vt 0.34666667 0.63076923
vt 0.29333333 0.63076923
vn -0.23087431 -0.44350536 0.86602543
usemtl texture
f 56/156/39 51/155/39 49/154/39 54/153/39
vt 0.24 0.73846154
vt 0.29333333 0.73846154
vt 0.29333333 0.63076923
vt 0.24 0.63076923
vn -0.96620532 0.2093831 -0.15035293
usemtl texture
f 55/160/40 56/159/40 54/158/40 53/157/40
vt 0.24 0.73846154
vt 0.18666667 0.73846154
vt 0.18666667 0.76923077
vt 0.24 0.76923077
vn 0.11464876 0.87147101 0.47685841
usemtl texture
f 54/164/41 49/163/41 50/162/41 53/161/41
vt 0.29333333 0.76923077
vt 0.24 0.76923077
vt 0.24 0.73846154
vt 0.29333333 0.73846154
vn -0.11464876 -0.87147101 -0.47685841
usemtl texture
f 55/168/42 52/167/42 51/166/42 56/165/42

o right_arm
v 0.65455649 0.7036106 0.53163573
v 0.65455649 0.74536553 0.47200351
v 0.67676301 0.49569204 0.3860496
v 0.67676301 0.53744697 0.32641738
v 0.58203538 0.74016819 0.4683643
v 0.58203538 0.69841327 0.52799652
v 0.60424191 0.53224963 0.32277816
v 0.60424191 0.4904947 0.38241039
vt 0.48 0.76923077
vt 0.53333333 0.76923077
vt 0.53333333 0.66153846
vt 0.48 0.66153846
vn 4e-8 0.57357641 -0.81915206
usemtl texture
f 60/172/43 63/171/43 61/170/43 58/169/43
vt 0.42666667 0.76923077
vt 0.48 0.76923077
vt 0.48 0.66153846
vt 0.42666667 0.66153846
vn 0.9961947 0.07139379 0.04999052
usemtl texture
f 59/176/44 60/175/44 58/174/44 57/173/44
vt 0.58666667 0.76923077
vt 0.64 0.76923077
vt 0.64 0.66153846
vt 0.58666667 0.66153846
vn -4e-8 -0.57357641 0.81915206
usemtl texture
f 64/180/45 59/179/45 57/178/45 62/177/45
vt 0.53333333 0.76923077
vt 0.58666667 0.76923077
vt 0.58666667 0.66153846
vt 0.53333333 0.66153846
vn -0.9961947 -0.07139379 -0.04999052
usemtl texture
f 63/184/46 64/183/46 62/182/46 61/181/46
vt 0.53333333 0.76923077
vt 0.48 0.76923077
vt 0.48 0.8
vt 0.53333333 0.8
vn -0.08715575 0.81603494 0.57139377
usemtl texture
f 62/188/47 57/187/47 58/186/47 61/185/47
vt 0.58666667 0.8
vt 0.53333333 0.8
vt 0.53333333 0.76923077
vt 0.58666667 0.76923077
vn 0.08715575 -0.81603494 -0.57139377
usemtl texture
f 63/192/48 60/191/48 59/190/48 64/189/48

o left_leg
v 0.47179063 0.50349625 0.4909
v 0.47179063 0.55809438 0.4909
v 0.47179063 0.50349625 0.37260437
v 0.47179063 0.55809438 0.37260437
v 0.4171925 0.55809438 0.4909
v 0.4171925 0.50349625 0.4909
v 0.4171925 0.55809438 0.37260437
v 0.4171925 0.50349625 0.37260437
vt 0.68 0.67692308
vt 0.72 0.67692308
vt 0.72 0.62692308
vt 0.68 0.62692308
vn 0 1 0
usemtl texture
f 68/196/49 71/195/49 69/194/49 66/193/49
vt 0.64 0.67692308
vt 0.68 0.67692308
vt 0.68 0.62692308
vt 0.64 0.62692308
vn 1 0 0
usemtl texture
f 67/200/50 68/199/50 66/198/50 65/197/50
vt 0.76 0.67692308
vt 0.8 0.67692308
vt 0.8 0.62692308
vt 0.76 0.62692308
vn 0 -1 0
usemtl texture
f 72/204/51 67/203/51 65/202/51 70/201/51
vt 0.72 0.67692308
vt 0.76 0.67692308
vt 0.76 0.62692308
vt 0.72 0.62692308
vn -1 0 0
usemtl texture
f 71/208/52 72/207/52 70/206/52 69/205/52
vt 0.72 0.67692308
vt 0.68 0.67692308
vt 0.68 0.7
vt 0.72 0.7
vn 0 0 1
usemtl texture
f 70/212/53 65/211/53 66/210/53 69/209/53
vt 0.76 0.7
vt 0.72 0.7
vt 0.72 0.67692308
vt 0.76 0.67692308
vn 0 0 -1
usemtl texture
f 71/216/54 68/215/54 67/214/54 72/213/54

o right_leg
v 0.5828075 0.50349625 0.4909
v 0.5828075 0.55809438 0.4909
v 0.5828075 0.50349625 0.37260437
v 0.5828075 0.55809438 0.37260437
v 0.52820937 0.55809438 0.4909
v 0.52820937 0.50349625 0.4909
v 0.52820937 0.55809438 0.37260437
v 0.52820937 0.50349625 0.37260437
vt 0.68 0.78461538
vt 0.72 0.78461538
vt 0.72 0.73461538
vt 0.68 0.73461538
vn 0 1 0
usemtl texture
f 76/220/55 79/219/55 77/218/55 74/217/55
vt 0.64 0.78461538
vt 0.68 0.78461538
vt 0.68 0.73461538
vt 0.64 0.73461538
vn 1 0 0
usemtl texture
f 75/224/56 76/223/56 74/222/56 73/221/56
vt 0.76 0.78461538
vt 0.8 0.78461538
vt 0.8 0.73461538
vt 0.76 0.73461538
vn 0 -1 0
usemtl texture
f 80/228/57 75/227/57 73/226/57 78/225/57
vt 0.72 0.78461538
vt 0.76 0.78461538
vt 0.76 0.73461538
vt 0.72 0.73461538
vn -1 0 0
usemtl texture
f 79/232/58 80/231/58 78/230/58 77/229/58
vt 0.72 0.78461538
vt 0.68 0.78461538
vt 0.68 0.80769231
vt 0.72 0.80769231
vn 0 0 1
usemtl texture
f 78/236/59 73/235/59 74/234/59 77/233/59
vt 0.76 0.80769231
vt 0.72 0.80769231
vt 0.72 0.78461538
vt 0.76 0.78461538
vn 0 0 -1
usemtl texture
f 79/240/60 76/239/60 75/238/60 80/237/60

o cube
v 0.779825 1.061075 0.779825
v 0.779825 1.061075 0.220175
v 0.779825 0.501425 0.779825
v 0.779825 0.501425 0.220175
v 0.220175 1.061075 0.220175
v 0.220175 1.061075 0.779825
v 0.220175 0.501425 0.220175
v 0.220175 0.501425 0.779825
vt 0.13333333 0.49230769
vt 0.24 0.49230769
vt 0.24 0.43076923
vt 0.13333333 0.43076923
vn 0 0 -1
usemtl texture
f 84/244/61 87/243/61 85/242/61 82/241/61
vt 0.13333333 0.49230769
vt 0.24 0.49230769
vt 0.24 0.43076923
vt 0.13333333 0.43076923
vn 1 0 0
usemtl texture
f 83/248/62 84/247/62 82/246/62 81/245/62
vt 0.13333333 0.49230769
vt 0.24 0.49230769
vt 0.24 0.43076923
vt 0.13333333 0.43076923
vn 0 0 1
usemtl texture
f 88/252/63 83/251/63 81/250/63 86/249/63
vt 0.13333333 0.49230769
vt 0.24 0.49230769
vt 0.24 0.43076923
vt 0.13333333 0.43076923
vn -1 0 0
usemtl texture
f 87/256/64 88/255/64 86/254/64 85/253/64
vt 0.13333333 0.49230769
vt 0.24 0.49230769
vt 0.24 0.43076923
vt 0.13333333 0.43076923
vn 0 1 0
usemtl texture
f 86/260/65 81/259/65 82/258/65 85/257/65
vt 0.13333333 0.49230769
vt 0.24 0.49230769
vt 0.24 0.43076923
vt 0.13333333 0.43076923
vn 0 -1 0
usemtl texture
f 87/264/66 84/263/66 83/262/66 88/261/66

o cube
v 0.220105 1.061145 0.779755
v 0.220105 1.061145 0.220245
v 0.220105 0.501495 0.779755
v 0.220105 0.501495 0.220245
v 0.779755 1.061145 0.220245
v 0.779755 1.061145 0.779755
v 0.779755 0.501495 0.220245
v 0.779755 0.501495 0.779755
vt 0.24 0.49230769
vt 0.13333333 0.49230769
vt 0.13333333 0.43076923
vt 0.24 0.43076923
vn 0 0 -1
usemtl texture
f 92/268/67 95/267/67 93/266/67 90/265/67
vt 0.24 0.49230769
vt 0.13333333 0.49230769
vt 0.13333333 0.43076923
vt 0.24 0.43076923
vn 1 0 0
usemtl texture
f 91/272/68 92/271/68 90/270/68 89/269/68
vt 0.24 0.49230769
vt 0.13333333 0.49230769
vt 0.13333333 0.43076923
vt 0.24 0.43076923
vn 0 0 1
usemtl texture
f 96/276/69 91/275/69 89/274/69 94/273/69
vt 0.24 0.49230769
vt 0.13333333 0.49230769
vt 0.13333333 0.43076923
vt 0.24 0.43076923
vn -1 0 0
usemtl texture
f 95/280/70 96/279/70 94/278/70 93/277/70
vt 0.24 0.49230769
vt 0.13333333 0.49230769
vt 0.13333333 0.43076923
vt 0.24 0.43076923
vn 0 1 0
usemtl texture
f 94/284/71 89/283/71 90/282/71 93/281/71
vt 0.24 0.49230769
vt 0.13333333 0.49230769
vt 0.13333333 0.43076923
vt 0.24 0.43076923
vn 0 -1 0
usemtl texture
f 95/288/72 92/287/72 91/286/72 96/285/72

o cube
v 1 0.4375 1
v 1 0.4375 0
v 1 0 1
v 1 0 0
v 0 0.4375 0
v 0 0.4375 1
v 0 0 0
v 0 0 1
vt 0.25333333 0.46153846
vt 0.36 0.46153846
vt 0.36 0.43076923
vt 0.25333333 0.43076923
vn 0 0 -1
usemtl texture
f 100/292/73 103/291/73 101/290/73 98/289/73
vt 0.13333333 0.39230769
vt 0.24 0.39230769
vt 0.24 0.36153846
vt 0.13333333 0.36153846
vn 1 0 0
usemtl texture
f 99/296/74 100/295/74 98/294/74 97/293/74
vt 0.25333333 0.46153846
vt 0.36 0.46153846
vt 0.36 0.43076923
vt 0.25333333 0.43076923
vn 0 0 1
usemtl texture
f 104/300/75 99/299/75 97/298/75 102/297/75
vt 0.13333333 0.39230769
vt 0.24 0.39230769
vt 0.24 0.36153846
vt 0.13333333 0.36153846
vn -1 0 0
usemtl texture
f 103/304/76 104/303/76 102/302/76 101/301/76
vt 0.73333333 0.49230769
vt 0.84 0.49230769
vt 0.84 0.43076923
vt 0.73333333 0.43076923
vn 0 1 0
usemtl texture
f 102/308/77 97/307/77 98/306/77 101/305/77
vt 0.25333333 0.46153846
vt 0.36 0.46153846
vt 0.36 0.43076923
vt 0.25333333 0.43076923
vn 0 -1 0
usemtl texture
f 103/312/78 100/311/78 99/310/78 104/309/78

o cube
v 0.875 0.5 0.875
v 0.875 0.5 0.125
v 0.875 0 0.875
v 0.875 0 0.125
v 0.125 0.5 0.125
v 0.125 0.5 0.875
v 0.125 0 0.125
v 0.125 0 0.875
vt 0.49333333 0.46153846
vt 0.6 0.46153846
vt 0.6 0.43076923
vt 0.49333333 0.43076923
vn 0 0 -1
usemtl texture
f 108/316/79 111/315/79 109/314/79 106/313/79
vt 0.49333333 0.46153846
vt 0.6 0.46153846
vt 0.6 0.43076923
vt 0.49333333 0.43076923
vn 1 0 0
usemtl texture
f 107/320/80 108/319/80 106/318/80 105/317/80
vt 0.49333333 0.46153846
vt 0.6 0.46153846
vt 0.6 0.43076923
vt 0.49333333 0.43076923
vn 0 0 1
usemtl texture
f 112/324/81 107/323/81 105/322/81 110/321/81
vt 0.49333333 0.46153846
vt 0.6 0.46153846
vt 0.6 0.43076923
vt 0.49333333 0.43076923
vn -1 0 0
usemtl texture
f 111/328/82 112/327/82 110/326/82 109/325/82
vt 0.61333333 0.49230769
vt 0.72 0.49230769
vt 0.72 0.43076923
vt 0.61333333 0.43076923
vn 0 1 0
usemtl texture
f 110/332/83 105/331/83 106/330/83 109/329/83
vt 0.37333333 0.49230769
vt 0.48 0.49230769
vt 0.48 0.43076923
vt 0.37333333 0.43076923
vn 0 -1 0
usemtl texture
f 111/336/84 108/335/84 107/334/84 112/333/84

o cube
v 0.15088835 0.9375 1.02588835
v 0.15088835 0.9375 1.02588835
v 0.15088835 0.4375 1.02588835
v 0.15088835 0.4375 1.02588835
v -0.02588835 0.9375 0.84911165
v -0.02588835 0.9375 0.84911165
v -0.02588835 0.4375 0.84911165
v -0.02588835 0.4375 0.84911165
vt 0.04 0.96153846
vt 0.09333333 0.96153846
vt 0.09333333 0.93076923
vt 0.04 0.93076923
vn 0.70710678 0 -0.70710678
usemtl texture
f 116/340/85 119/339/85 117/338/85 114/337/85
vt 0.09333333 0.96153846
vt 0.04 0.96153846
vt 0.04 0.93076923
vt 0.09333333 0.93076923
vn -0.70710678 0 0.70710678
usemtl texture
f 120/344/86 115/343/86 113/342/86 118/341/86

o cube
v 0.125 0.5 0.125
v 0.125 0.5 0.0625
v 0.125 0.4375 0.125
v 0.125 0.4375 0.0625
v 0.0625 0.5 0.0625
v 0.0625 0.5 0.125
v 0.0625 0.4375 0.0625
v 0.0625 0.4375 0.125
vt 0.62 0.47692308
vt 0.62666667 0.47692308
vt 0.62666667 0.47307692
vt 0.62 0.47307692
vn 0 0 -1
usemtl texture
f 124/348/87 127/347/87 125/346/87 122/345/87
vt 0.62 0.47692308
vt 0.62666667 0.47692308
vt 0.62666667 0.47307692
vt 0.62 0.47307692
vn 1 0 0
usemtl texture
f 123/352/88 124/351/88 122/350/88 121/349/88
vt 0.62 0.47692308
vt 0.62666667 0.47692308
vt 0.62666667 0.47307692
vt 0.62 0.47307692
vn 0 0 1
usemtl texture
f 128/356/89 123/355/89 121/354/89 126/353/89
vt 0.62 0.47692308
vt 0.62666667 0.47692308
vt 0.62666667 0.47307692
vt 0.62 0.47307692
vn -1 0 0
usemtl texture
f 127/360/90 128/359/90 126/358/90 125/357/90
vt 0.62 0.47692308
vt 0.62666667 0.47692308
vt 0.62666667 0.47307692
vt 0.62 0.47307692
vn 0 1 0
usemtl texture
f 126/364/91 121/363/91 122/362/91 125/361/91
vt 0.62 0.47692308
vt 0.62666667 0.47692308
vt 0.62666667 0.47307692
vt 0.62 0.47307692
vn 0 -1 0
usemtl texture
f 127/368/92 124/367/92 123/366/92 128/365/92

o cube
v 0.9375 0.5 0.125
v 0.9375 0.5 0.0625
v 0.9375 0.4375 0.125
v 0.9375 0.4375 0.0625
v 0.875 0.5 0.0625
v 0.875 0.5 0.125
v 0.875 0.4375 0.0625
v 0.875 0.4375 0.125
vt 0.62 0.47692308
vt 0.62666667 0.47692308
vt 0.62666667 0.47307692
vt 0.62 0.47307692
vn 0 0 -1
usemtl texture
f 132/372/93 135/371/93 133/370/93 130/369/93
vt 0.62 0.47692308
vt 0.62666667 0.47692308
vt 0.62666667 0.47307692
vt 0.62 0.47307692
vn 1 0 0
usemtl texture
f 131/376/94 132/375/94 130/374/94 129/373/94
vt 0.62 0.47692308
vt 0.62666667 0.47692308
vt 0.62666667 0.47307692
vt 0.62 0.47307692
vn 0 0 1
usemtl texture
f 136/380/95 131/379/95 129/378/95 134/377/95
vt 0.62 0.47692308
vt 0.62666667 0.47692308
vt 0.62666667 0.47307692
vt 0.62 0.47307692
vn -1 0 0
usemtl texture
f 135/384/96 136/383/96 134/382/96 133/381/96
vt 0.62 0.47692308
vt 0.62666667 0.47692308
vt 0.62666667 0.47307692
vt 0.62 0.47307692
vn 0 1 0
usemtl texture
f 134/388/97 129/387/97 130/386/97 133/385/97
vt 0.62 0.47692308
vt 0.62666667 0.47692308
vt 0.62666667 0.47307692
vt 0.62 0.47307692
vn 0 -1 0
usemtl texture
f 135/392/98 132/391/98 131/390/98 136/389/98

o cube
v 0.9375 0.5 0.9375
v 0.9375 0.5 0.875
v 0.9375 0.4375 0.9375
v 0.9375 0.4375 0.875
v 0.875 0.5 0.875
v 0.875 0.5 0.9375
v 0.875 0.4375 0.875
v 0.875 0.4375 0.9375
vt 0.62 0.47692308
vt 0.62666667 0.47692308
vt 0.62666667 0.47307692
vt 0.62 0.47307692
vn 0 0 -1
usemtl texture
f 140/396/99 143/395/99 141/394/99 138/393/99
vt 0.62 0.47692308
vt 0.62666667 0.47692308
vt 0.62666667 0.47307692
vt 0.62 0.47307692
vn 1 0 0
usemtl texture
f 139/400/100 140/399/100 138/398/100 137/397/100
vt 0.62 0.47692308
vt 0.62666667 0.47692308
vt 0.62666667 0.47307692
vt 0.62 0.47307692
vn 0 0 1
usemtl texture
f 144/404/101 139/403/101 137/402/101 142/401/101
vt 0.62 0.47692308
vt 0.62666667 0.47692308
vt 0.62666667 0.47307692
vt 0.62 0.47307692
vn -1 0 0
usemtl texture
f 143/408/102 144/407/102 142/406/102 141/405/102
vt 0.62 0.47692308
vt 0.62666667 0.47692308
vt 0.62666667 0.47307692
vt 0.62 0.47307692
vn 0 1 0
usemtl texture
f 142/412/103 137/411/103 138/410/103 141/409/103
vt 0.62 0.47692308
vt 0.62666667 0.47692308
vt 0.62666667 0.47307692
vt 0.62 0.47307692
vn 0 -1 0
usemtl texture
f 143/416/104 140/415/104 139/414/104 144/413/104

o cube
v 0.125 0.5 0.9375
v 0.125 0.5 0.875
v 0.125 0.4375 0.9375
v 0.125 0.4375 0.875
v 0.0625 0.5 0.875
v 0.0625 0.5 0.9375
v 0.0625 0.4375 0.875
v 0.0625 0.4375 0.9375
vt 0.62 0.47692308
vt 0.62666667 0.47692308
vt 0.62666667 0.47307692
vt 0.62 0.47307692
vn 0 0 -1
usemtl texture
f 148/420/105 151/419/105 149/418/105 146/417/105
vt 0.62 0.47692308
vt 0.62666667 0.47692308
vt 0.62666667 0.47307692
vt 0.62 0.47307692
vn 1 0 0
usemtl texture
f 147/424/106 148/423/106 146/422/106 145/421/106
vt 0.62 0.47692308
vt 0.62666667 0.47692308
vt 0.62666667 0.47307692
vt 0.62 0.47307692
vn 0 0 1
usemtl texture
f 152/428/107 147/427/107 145/426/107 150/425/107
vt 0.62 0.47692308
vt 0.62666667 0.47692308
vt 0.62666667 0.47307692
vt 0.62 0.47307692
vn -1 0 0
usemtl texture
f 151/432/108 152/431/108 150/430/108 149/429/108
vt 0.62 0.47692308
vt 0.62666667 0.47692308
vt 0.62666667 0.47307692
vt 0.62 0.47307692
vn 0 1 0
usemtl texture
f 150/436/109 145/435/109 146/434/109 149/433/109
vt 0.62 0.47692308
vt 0.62666667 0.47692308
vt 0.62666667 0.47307692
vt 0.62 0.47307692
vn 0 -1 0
usemtl texture
f 151/440/110 148/439/110 147/438/110 152/437/110

o cube
v 0.78125 1.1875 0.78125
v 0.78125 1.1875 0.21875
v 0.78125 1.0625 0.78125
v 0.78125 1.0625 0.21875
v 0.21875 1.1875 0.21875
v 0.21875 1.1875 0.78125
v 0.21875 1.0625 0.21875
v 0.21875 1.0625 0.78125
vt 0.00133333 1
vt 0.06133333 1
vt 0.06133333 0.99230769
vt 0.00133333 0.99230769
vn 0 0 -1
usemtl texture
f 156/444/111 159/443/111 157/442/111 154/441/111
vt 0.00066667 1
vt 0.06066667 1
vt 0.06066667 0.99230769
vt 0.00066667 0.99230769
vn 1 0 0
usemtl texture
f 155/448/112 156/447/112 154/446/112 153/445/112
vt 0 1
vt 0.06 1
vt 0.06 0.99230769
vt 0 0.99230769
vn 0 0 1
usemtl texture
f 160/452/113 155/451/113 153/450/113 158/449/113
vt 0.00333333 1
vt 0.06333333 1
vt 0.06333333 0.99230769
vt 0.00333333 0.99230769
vn -1 0 0
usemtl texture
f 159/456/114 160/455/114 158/454/114 157/453/114
vt 0 0.99807692
vt 0.06 0.99807692
vt 0.06 0.96346154
vt 0 0.96346154
vn 0 1 0
usemtl texture
f 158/460/115 153/459/115 154/458/115 157/457/115
vt 0 0.99961538
vt 0.06 0.99961538
vt 0.06 0.965
vt 0 0.965
vn 0 -1 0
usemtl texture
f 159/464/116 156/463/116 155/462/116 160/461/116

o cube
v 0.9375 0.5625 0.625
v 0.9375 0.5625 0.375
v 0.9375 0.4375 0.625
v 0.9375 0.4375 0.375
v 0.875 0.5625 0.375
v 0.875 0.5625 0.625
v 0.875 0.4375 0.375
v 0.875 0.4375 0.625
vt 0.9 0.48461538
vt 0.90666667 0.48461538
vt 0.90666667 0.47692308
vt 0.9 0.47692308
vn 0 0 -1
usemtl texture
f 164/468/117 167/467/117 165/466/117 162/465/117
vt 0.85333333 0.49230769
vt 0.88 0.49230769
vt 0.88 0.48461538
vt 0.85333333 0.48461538
vn 1 0 0
usemtl texture
f 163/472/118 164/471/118 162/470/118 161/469/118
vt 0.9 0.47692308
vt 0.90666667 0.47692308
vt 0.90666667 0.46923077
vt 0.9 0.46923077
vn 0 0 1
usemtl texture
f 168/476/119 163/475/119 161/474/119 166/473/119
vt 0.85333333 0.48461538
vt 0.88 0.48461538
vt 0.88 0.47692308
vt 0.85333333 0.47692308
vn -1 0 0
usemtl texture
f 167/480/120 168/479/120 166/478/120 165/477/120
vt 0.87333333 0.45384615
vt 0.86666667 0.45384615
vt 0.86666667 0.46923077
vt 0.87333333 0.46923077
vn 0 1 0
usemtl texture
f 166/484/121 161/483/121 162/482/121 165/481/121
vt 0.9 0.48461538
vt 0.89333333 0.48461538
vt 0.89333333 0.46923077
vt 0.9 0.46923077
vn 0 -1 0
usemtl texture
f 167/488/122 164/487/122 163/486/122 168/485/122

o cube
v 0.875 0.625 0.625
v 0.875 0.625 0.375
v 0.875 0.5 0.625
v 0.875 0.5 0.375
v 0.775 0.625 0.375
v 0.775 0.625 0.625
v 0.775 0.5 0.375
v 0.775 0.5 0.625
vt 0.87333333 0.46923077
vt 0.88666667 0.46923077
vt 0.88666667 0.46153846
vt 0.87333333 0.46153846
vn 0 0 -1
usemtl texture
f 172/492/123 175/491/123 173/490/123 170/489/123
vt 0.85333333 0.47692308
vt 0.88 0.47692308
vt 0.88 0.46923077
vt 0.85333333 0.46923077
vn 1 0 0
usemtl texture
f 171/496/124 172/495/124 170/494/124 169/493/124
vt 0.88666667 0.46923077
vt 0.9 0.46923077
vt 0.9 0.46153846
vt 0.88666667 0.46153846
vn 0 0 1
usemtl texture
f 176/500/125 171/499/125 169/498/125 174/497/125
vt 0.88 0.49230769
vt 0.90666667 0.49230769
vt 0.90666667 0.48461538
vt 0.88 0.48461538
vn -1 0 0
usemtl texture
f 175/504/126 176/503/126 174/502/126 173/501/126
vt 0.89333333 0.46923077
vt 0.88 0.46923077
vt 0.88 0.48461538
vt 0.89333333 0.48461538
vn 0 1 0
usemtl texture
f 174/508/127 169/507/127 170/506/127 173/505/127
vt 0.86666667 0.46923077
vt 0.85333333 0.46923077
vt 0.85333333 0.45384615
vt 0.86666667 0.45384615
vn 0 -1 0
usemtl texture
f 175/512/128 172/511/128 171/510/128 176/509/128

o cube
v 0.125 0.625 0.375
v 0.125 0.625 0.625
v 0.125 0.5 0.375
v 0.125 0.5 0.625
v 0.225 0.625 0.625
v 0.225 0.625 0.375
v 0.225 0.5 0.625
v 0.225 0.5 0.375
vt 0.87333333 0.46923077
vt 0.88666667 0.46923077
vt 0.88666667 0.46153846
vt 0.87333333 0.46153846
vn 0 0 1
usemtl texture
f 180/516/129 183/515/129 181/514/129 178/513/129
vt 0.85333333 0.47692308
vt 0.88 0.47692308
vt 0.88 0.46923077
vt 0.85333333 0.46923077
vn -1 0 0
usemtl texture
f 179/520/130 180/519/130 178/518/130 177/517/130
vt 0.88666667 0.46923077
vt 0.9 0.46923077
vt 0.9 0.46153846
vt 0.88666667 0.46153846
vn 0 0 -1
usemtl texture
f 184/524/131 179/523/131 177/522/131 182/521/131
vt 0.88 0.49230769
vt 0.90666667 0.49230769
vt 0.90666667 0.48461538
vt 0.88 0.48461538
vn 1 0 0
usemtl texture
f 183/528/132 184/527/132 182/526/132 181/525/132
vt 0.89333333 0.46923077
vt 0.88 0.46923077
vt 0.88 0.48461538
vt 0.89333333 0.48461538
vn 0 1 0
usemtl texture
f 182/532/133 177/531/133 178/530/133 181/529/133
vt 0.86666667 0.46923077
vt 0.85333333 0.46923077
vt 0.85333333 0.45384615
vt 0.86666667 0.45384615
vn 0 -1 0
usemtl texture
f 183/536/134 180/535/134 179/534/134 184/533/134

o cube
v 0.0625 0.5625 0.375
v 0.0625 0.5625 0.625
v 0.0625 0.4375 0.375
v 0.0625 0.4375 0.625
v 0.125 0.5625 0.625
v 0.125 0.5625 0.375
v 0.125 0.4375 0.625
v 0.125 0.4375 0.375
vt 0.9 0.48461538
vt 0.90666667 0.48461538
vt 0.90666667 0.47692308
vt 0.9 0.47692308
vn 0 0 1
usemtl texture
f 188/540/135 191/539/135 189/538/135 186/537/135
vt 0.85333333 0.49230769
vt 0.88 0.49230769
vt 0.88 0.48461538
vt 0.85333333 0.48461538
vn -1 0 0
usemtl texture
f 187/544/136 188/543/136 186/542/136 185/541/136
vt 0.9 0.47692308
vt 0.90666667 0.47692308
vt 0.90666667 0.46923077
vt 0.9 0.46923077
vn 0 0 -1
usemtl texture
f 192/548/137 187/547/137 185/546/137 190/545/137
vt 0.85333333 0.48461538
vt 0.88 0.48461538
vt 0.88 0.47692308
vt 0.85333333 0.47692308
vn 1 0 0
usemtl texture
f 191/552/138 192/551/138 190/550/138 189/549/138
vt 0.87333333 0.45384615
vt 0.86666667 0.45384615
vt 0.86666667 0.46923077
vt 0.87333333 0.46923077
vn 0 1 0
usemtl texture
f 190/556/139 185/555/139 186/554/139 189/553/139
vt 0.9 0.48461538
vt 0.89333333 0.48461538
vt 0.89333333 0.46923077
vt 0.9 0.46923077
vn 0 -1 0
usemtl texture
f 191/560/140 188/559/140 187/558/140 192/557/140

o cube
v 0.53125 0.90625 0.15625
v 0.53125 0.90625 0.03125
v 0.53125 0.65625 0.15625
v 0.53125 0.65625 0.03125
v 0.46875 0.90625 0.03125
v 0.46875 0.90625 0.15625
v 0.46875 0.65625 0.03125
v 0.46875 0.65625 0.15625
vt 0.26 0.35769231
vt 0.27333333 0.35769231
vt 0.27333333 0.35
vt 0.26 0.35
vn 0 0 -1
usemtl texture
f 196/564/141 199/563/141 197/562/141 194/561/141
vt 0.28666667 0.36538462
vt 0.29333333 0.36538462
vt 0.29333333 0.35769231
vt 0.28666667 0.35769231
vn 1 0 0
usemtl texture
f 195/568/142 196/567/142 194/566/142 193/565/142
vt 0.27333333 0.36538462
vt 0.28666667 0.36538462
vt 0.28666667 0.35769231
vt 0.27333333 0.35769231
vn 0 0 1
usemtl texture
f 200/572/143 195/571/143 193/570/143 198/569/143
vt 0.29333333 0.36538462
vt 0.3 0.36538462
vt 0.3 0.35769231
vt 0.29333333 0.35769231
vn -1 0 0
usemtl texture
f 199/576/144 200/575/144 198/574/144 197/573/144
vt 0.36666667 0.41923077
vt 0.35333333 0.41923077
vt 0.35333333 0.42307692
vt 0.36666667 0.42307692
vn 0 1 0
usemtl texture
f 198/580/145 193/579/145 194/578/145 197/577/145
vt 0.36666667 0.41923077
vt 0.35333333 0.41923077
vt 0.35333333 0.41538462
vt 0.36666667 0.41538462
vn 0 -1 0
usemtl texture
f 199/584/146 196/583/146 195/582/146 200/581/146

o cube
v 0.625 0.90625 0.21875
v 0.625 0.90625 0.15625
v 0.625 0.65625 0.21875
v 0.625 0.65625 0.15625
v 0.375 0.90625 0.15625
v 0.375 0.90625 0.21875
v 0.375 0.65625 0.15625
v 0.375 0.65625 0.21875
vt 0.25333333 0.42307692
vt 0.28 0.42307692
vt 0.28 0.40769231
vt 0.25333333 0.40769231
vn 0 0 -1
usemtl texture
f 204/588/147 207/587/147 205/586/147 202/585/147
vt 0.25333333 0.39230769
vt 0.26 0.39230769
vt 0.26 0.37692308
vt 0.25333333 0.37692308
vn 1 0 0
usemtl texture
f 203/592/148 204/591/148 202/590/148 201/589/148
vt 0.25333333 0.40769231
vt 0.28 0.40769231
vt 0.28 0.39230769
vt 0.25333333 0.39230769
vn 0 0 1
usemtl texture
f 208/596/149 203/595/149 201/594/149 206/593/149
vt 0.30666667 0.42307692
vt 0.31333333 0.42307692
vt 0.31333333 0.40769231
vt 0.30666667 0.40769231
vn -1 0 0
usemtl texture
f 207/600/150 208/599/150 206/598/150 205/597/150
vt 0.33333333 0.40384615
vt 0.30666667 0.40384615
vt 0.30666667 0.40769231
vt 0.33333333 0.40769231
vn 0 1 0
usemtl texture
f 206/604/151 201/603/151 202/602/151 205/601/151
vt 0.33333333 0.40384615
vt 0.30666667 0.40384615
vt 0.30666667 0.4
vt 0.33333333 0.4
vn 0 -1 0
usemtl texture
f 207/608/152 204/607/152 203/606/152 208/605/152

o cube
v 0.5625 0.90625 0.21875
v 0.5625 0.90625 0.175
v 0.4375 0.90625 0.21875
v 0.4375 0.90625 0.175
v 0.5625 1.0625 0.175
v 0.5625 1.0625 0.21875
v 0.4375 1.0625 0.175
v 0.4375 1.0625 0.21875
vt 0.25333333 0.42307692
vt 0.28666667 0.42307692
vt 0.28666667 0.41538462
vt 0.25333333 0.41538462
vn 0 0 -1
usemtl texture
f 212/612/153 215/611/153 213/610/153 210/609/153
vt 0.25333333 0.39230769
vt 0.26 0.39230769
vt 0.26 0.37692308
vt 0.25333333 0.37692308
vn 0 -1 0
usemtl texture
f 211/616/154 212/615/154 210/614/154 209/613/154
vt 0.25333333 0.41538462
vt 0.28666667 0.41538462
vt 0.28666667 0.40769231
vt 0.25333333 0.40769231
vn 0 0 1
usemtl texture
f 216/620/155 211/619/155 209/618/155 214/617/155
vt 0.30666667 0.42307692
vt 0.31333333 0.42307692
vt 0.31333333 0.40769231
vt 0.30666667 0.40769231
vn 0 1 0
usemtl texture
f 215/624/156 216/623/156 214/622/156 213/621/156
vt 0.33333333 0.40384615
vt 0.30666667 0.40384615
vt 0.30666667 0.40769231
vt 0.33333333 0.40769231
vn 1 0 0
usemtl texture
f 214/628/157 209/627/157 210/626/157 213/625/157
vt 0.33333333 0.40384615
vt 0.30666667 0.40384615
vt 0.30666667 0.4
vt 0.33333333 0.4
vn -1 0 0
usemtl texture
f 215/632/158 212/631/158 211/630/158 216/629/158

o cube
v 0.15088835 0.9375 1.02588835
v 0.15088835 0.9375 1.02588835
v 0.15088835 0.4375 1.02588835
v 0.15088835 0.4375 1.02588835
v -0.02588835 0.9375 0.84911165
v -0.02588835 0.9375 0.84911165
v -0.02588835 0.4375 0.84911165
v -0.02588835 0.4375 0.84911165
vt 0.04 0.9
vt 0.09333333 0.9
vt 0.09333333 0.86923077
vt 0.04 0.86923077
vn 0.70710678 0 -0.70710678
usemtl texture
f 220/636/159 223/635/159 221/634/159 218/633/159
vt 0.09333333 0.9
vt 0.04 0.9
vt 0.04 0.86923077
vt 0.09333333 0.86923077
vn -0.70710678 0 0.70710678
usemtl texture
f 224/640/160 219/639/160 217/638/160 222/637/160

o cube
v 0.15088835 0.9375 1.02588835
v 0.15088835 0.9375 1.02588835
v 0.15088835 0.4375 1.02588835
v 0.15088835 0.4375 1.02588835
v -0.02588835 0.9375 0.84911165
v -0.02588835 0.9375 0.84911165
v -0.02588835 0.4375 0.84911165
v -0.02588835 0.4375 0.84911165
vt 0.04 0.83846154
vt 0.09333333 0.83846154
vt 0.09333333 0.80769231
vt 0.04 0.80769231
vn 0.70710678 0 -0.70710678
usemtl texture
f 228/644/161 231/643/161 229/642/161 226/641/161
vt 0.09333333 0.83846154
vt 0.04 0.83846154
vt 0.04 0.80769231
vt 0.09333333 0.80769231
vn -0.70710678 0 0.70710678
usemtl texture
f 232/648/162 227/647/162 225/646/162 230/645/162

o cube
v 0.15088835 0.9375 1.02588835
v 0.15088835 0.9375 1.02588835
v 0.15088835 0.4375 1.02588835
v 0.15088835 0.4375 1.02588835
v -0.02588835 0.9375 0.84911165
v -0.02588835 0.9375 0.84911165
v -0.02588835 0.4375 0.84911165
v -0.02588835 0.4375 0.84911165
vt 0.04 0.77692308
vt 0.09333333 0.77692308
vt 0.09333333 0.74615385
vt 0.04 0.74615385
vn 0.70710678 0 -0.70710678
usemtl texture
f 236/652/163 239/651/163 237/650/163 234/649/163
vt 0.09333333 0.77692308
vt 0.04 0.77692308
vt 0.04 0.74615385
vt 0.09333333 0.74615385
vn -0.70710678 0 0.70710678
usemtl texture
f 240/656/164 235/655/164 233/654/164 238/653/164

o cube
v 0.15088835 0.9375 1.02588835
v 0.15088835 0.9375 1.02588835
v 0.15088835 0.4375 1.02588835
v 0.15088835 0.4375 1.02588835
v -0.02588835 0.9375 0.84911165
v -0.02588835 0.9375 0.84911165
v -0.02588835 0.4375 0.84911165
v -0.02588835 0.4375 0.84911165
vt 0.04 0.71538462
vt 0.09333333 0.71538462
vt 0.09333333 0.68461538
vt 0.04 0.68461538
vn 0.70710678 0 -0.70710678
usemtl texture
f 244/660/165 247/659/165 245/658/165 242/657/165
vt 0.09333333 0.71538462
vt 0.04 0.71538462
vt 0.04 0.68461538
vt 0.09333333 0.68461538
vn -0.70710678 0 0.70710678
usemtl texture
f 248/664/166 243/663/166 241/662/166 246/661/166

o cube
v 0.15088835 0.9375 1.02588835
v 0.15088835 0.9375 1.02588835
v 0.15088835 0.4375 1.02588835
v 0.15088835 0.4375 1.02588835
v -0.02588835 0.9375 0.84911165
v -0.02588835 0.9375 0.84911165
v -0.02588835 0.4375 0.84911165
v -0.02588835 0.4375 0.84911165
vt 0.04 0.65384615
vt 0.09333333 0.65384615
vt 0.09333333 0.62307692
vt 0.04 0.62307692
vn 0.70710678 0 -0.70710678
usemtl texture
f 252/668/167 255/667/167 253/666/167 250/665/167
vt 0.09333333 0.65384615
vt 0.04 0.65384615
vt 0.04 0.62307692
vt 0.09333333 0.62307692
vn -0.70710678 0 0.70710678
usemtl texture
f 256/672/168 251/671/168 249/670/168 254/669/168

o cube
v 0.15088835 0.9375 1.02588835
v 0.15088835 0.9375 1.02588835
v 0.15088835 0.4375 1.02588835
v 0.15088835 0.4375 1.02588835
v -0.02588835 0.9375 0.84911165
v -0.02588835 0.9375 0.84911165
v -0.02588835 0.4375 0.84911165
v -0.02588835 0.4375 0.84911165
vt 0.04 0.59230769
vt 0.09333333 0.59230769
vt 0.09333333 0.56153846
vt 0.04 0.56153846
vn 0.70710678 0 -0.70710678
usemtl texture
f 260/676/169 263/675/169 261/674/169 258/673/169
vt 0.09333333 0.59230769
vt 0.04 0.59230769
vt 0.04 0.56153846
vt 0.09333333 0.56153846
vn -0.70710678 0 0.70710678
usemtl texture
f 264/680/170 259/679/170 257/678/170 262/677/170

o cube
v 0.15088835 0.9375 1.02588835
v 0.15088835 0.9375 1.02588835
v 0.15088835 0.4375 1.02588835
v 0.15088835 0.4375 1.02588835
v -0.02588835 0.9375 0.84911165
v -0.02588835 0.9375 0.84911165
v -0.02588835 0.4375 0.84911165
v -0.02588835 0.4375 0.84911165
vt 0.04 0.53076923
vt 0.09333333 0.53076923
vt 0.09333333 0.5
vt 0.04 0.5
vn 0.70710678 0 -0.70710678
usemtl texture
f 268/684/171 271/683/171 269/682/171 266/681/171
vt 0.09333333 0.53076923
vt 0.04 0.53076923
vt 0.04 0.5
vt 0.09333333 0.5
vn -0.70710678 0 0.70710678
usemtl texture
f 272/688/172 267/687/172 265/686/172 270/685/172

o cube
v 0.15088835 0.9375 1.02588835
v 0.15088835 0.9375 1.02588835
v 0.15088835 0.4375 1.02588835
v 0.15088835 0.4375 1.02588835
v -0.02588835 0.9375 0.84911165
v -0.02588835 0.9375 0.84911165
v -0.02588835 0.4375 0.84911165
v -0.02588835 0.4375 0.84911165
vt 0.04 0.46923077
vt 0.09333333 0.46923077
vt 0.09333333 0.43846154
vt 0.04 0.43846154
vn 0.70710678 0 -0.70710678
usemtl texture
f 276/692/173 279/691/173 277/690/173 274/689/173
vt 0.09333333 0.46923077
vt 0.04 0.46923077
vt 0.04 0.43846154
vt 0.09333333 0.43846154
vn -0.70710678 0 0.70710678
usemtl texture
f 280/696/174 275/695/174 273/694/174 278/693/174

o cube
v 0.15088835 0.9375 1.02588835
v 0.15088835 0.9375 1.02588835
v 0.15088835 0.4375 1.02588835
v 0.15088835 0.4375 1.02588835
v -0.02588835 0.9375 0.84911165
v -0.02588835 0.9375 0.84911165
v -0.02588835 0.4375 0.84911165
v -0.02588835 0.4375 0.84911165
vt 0.04 0.40769231
vt 0.09333333 0.40769231
vt 0.09333333 0.37692308
vt 0.04 0.37692308
vn 0.70710678 0 -0.70710678
usemtl texture
f 284/700/175 287/699/175 285/698/175 282/697/175
vt 0.09333333 0.40769231
vt 0.04 0.40769231
vt 0.04 0.37692308
vt 0.09333333 0.37692308
vn -0.70710678 0 0.70710678
usemtl texture
f 288/704/176 283/703/176 281/702/176 286/701/176

o cube
v 0.15088835 0.9375 1.02588835
v 0.15088835 0.9375 1.02588835
v 0.15088835 0.4375 1.02588835
v 0.15088835 0.4375 1.02588835
v -0.02588835 0.9375 0.84911165
v -0.02588835 0.9375 0.84911165
v -0.02588835 0.4375 0.84911165
v -0.02588835 0.4375 0.84911165
vt 0.04 0.34615385
vt 0.09333333 0.34615385
vt 0.09333333 0.31538462
vt 0.04 0.31538462
vn 0.70710678 0 -0.70710678
usemtl texture
f 292/708/177 295/707/177 293/706/177 290/705/177
vt 0.09333333 0.34615385
vt 0.04 0.34615385
vt 0.04 0.31538462
vt 0.09333333 0.31538462
vn -0.70710678 0 0.70710678
usemtl texture
f 296/712/178 291/711/178 289/710/178 294/709/178

o cube
v 0.15088835 0.9375 1.02588835
v 0.15088835 0.9375 1.02588835
v 0.15088835 0.4375 1.02588835
v 0.15088835 0.4375 1.02588835
v -0.02588835 0.9375 0.84911165
v -0.02588835 0.9375 0.84911165
v -0.02588835 0.4375 0.84911165
v -0.02588835 0.4375 0.84911165
vt 0.04 0.28461538
vt 0.09333333 0.28461538
vt 0.09333333 0.25384615
vt 0.04 0.25384615
vn 0.70710678 0 -0.70710678
usemtl texture
f 300/716/179 303/715/179 301/714/179 298/713/179
vt 0.09333333 0.28461538
vt 0.04 0.28461538
vt 0.04 0.25384615
vt 0.09333333 0.25384615
vn -0.70710678 0 0.70710678
usemtl texture
f 304/720/180 299/719/180 297/718/180 302/717/180

o cube
v 0.15088835 0.9375 1.02588835
v 0.15088835 0.9375 1.02588835
v 0.15088835 0.4375 1.02588835
v 0.15088835 0.4375 1.02588835
v -0.02588835 0.9375 0.84911165
v -0.02588835 0.9375 0.84911165
v -0.02588835 0.4375 0.84911165
v -0.02588835 0.4375 0.84911165
vt 0.04 0.22307692
vt 0.09333333 0.22307692
vt 0.09333333 0.19230769
vt 0.04 0.19230769
vn 0.70710678 0 -0.70710678
usemtl texture
f 308/724/181 311/723/181 309/722/181 306/721/181
vt 0.09333333 0.22307692
vt 0.04 0.22307692
vt 0.04 0.19230769
vt 0.09333333 0.19230769
vn -0.70710678 0 0.70710678
usemtl texture
f 312/728/182 307/727/182 305/726/182 310/725/182

o cube
v 0.15088835 0.9375 1.02588835
v 0.15088835 0.9375 1.02588835
v 0.15088835 0.4375 1.02588835
v 0.15088835 0.4375 1.02588835
v -0.02588835 0.9375 0.84911165
v -0.02588835 0.9375 0.84911165
v -0.02588835 0.4375 0.84911165
v -0.02588835 0.4375 0.84911165
vt 0.04 0.16153846
vt 0.09333333 0.16153846
vt 0.09333333 0.13076923
vt 0.04 0.13076923
vn 0.70710678 0 -0.70710678
usemtl texture
f 316/732/183 319/731/183 317/730/183 314/729/183
vt 0.09333333 0.16153846
vt 0.04 0.16153846
vt 0.04 0.13076923
vt 0.09333333 0.13076923
vn -0.70710678 0 0.70710678
usemtl texture
f 320/736/184 315/735/184 313/734/184 318/733/184

o cube
v 0.15088835 0.9375 1.02588835
v 0.15088835 0.9375 1.02588835
v 0.15088835 0.4375 1.02588835
v 0.15088835 0.4375 1.02588835
v -0.02588835 0.9375 0.84911165
v -0.02588835 0.9375 0.84911165
v -0.02588835 0.4375 0.84911165
v -0.02588835 0.4375 0.84911165
vt 0.04 0.1
vt 0.09333333 0.1
vt 0.09333333 0.06923077
vt 0.04 0.06923077
vn 0.70710678 0 -0.70710678
usemtl texture
f 324/740/185 327/739/185 325/738/185 322/737/185
vt 0.09333333 0.1
vt 0.04 0.1
vt 0.04 0.06923077
vt 0.09333333 0.06923077
vn -0.70710678 0 0.70710678
usemtl texture
f 328/744/186 323/743/186 321/742/186 326/741/186

o cube
v 0.15088835 0.9375 1.02588835
v 0.15088835 0.9375 1.02588835
v 0.15088835 0.4375 1.02588835
v 0.15088835 0.4375 1.02588835
v -0.02588835 0.9375 0.84911165
v -0.02588835 0.9375 0.84911165
v -0.02588835 0.4375 0.84911165
v -0.02588835 0.4375 0.84911165
vt 0.04 0.03846154
vt 0.09333333 0.03846154
vt 0.09333333 0.00769231
vt 0.04 0.00769231
vn 0.70710678 0 -0.70710678
usemtl texture
f 332/748/187 335/747/187 333/746/187 330/745/187
vt 0.09333333 0.03846154
vt 0.04 0.03846154
vt 0.04 0.00769231
vt 0.09333333 0.00769231
vn -0.70710678 0 0.70710678
usemtl texture
f 336/752/188 331/751/188 329/750/188 334/749/188

o cube
v 1.02588835 0.9375 0.84911165
v 1.02588835 0.9375 0.84911165
v 1.02588835 0.4375 0.84911165
v 1.02588835 0.4375 0.84911165
v 0.84911165 0.9375 1.02588835
v 0.84911165 0.9375 1.02588835
v 0.84911165 0.4375 1.02588835
v 0.84911165 0.4375 1.02588835
vt 0.04 0.96153846
vt 0.09333333 0.96153846
vt 0.09333333 0.93076923
vt 0.04 0.93076923
vn -0.70710678 0 -0.70710678
usemtl texture
f 340/756/189 343/755/189 341/754/189 338/753/189
vt 0.09333333 0.96153846
vt 0.04 0.96153846
vt 0.04 0.93076923
vt 0.09333333 0.93076923
vn 0.70710678 0 0.70710678
usemtl texture
f 344/760/190 339/759/190 337/758/190 342/757/190

o cube
v 1.02588835 0.9375 0.84911165
v 1.02588835 0.9375 0.84911165
v 1.02588835 0.4375 0.84911165
v 1.02588835 0.4375 0.84911165
v 0.84911165 0.9375 1.02588835
v 0.84911165 0.9375 1.02588835
v 0.84911165 0.4375 1.02588835
v 0.84911165 0.4375 1.02588835
vt 0.04 0.9
vt 0.09333333 0.9
vt 0.09333333 0.86923077
vt 0.04 0.86923077
vn -0.70710678 0 -0.70710678
usemtl texture
f 348/764/191 351/763/191 349/762/191 346/761/191
vt 0.09333333 0.9
vt 0.04 0.9
vt 0.04 0.86923077
vt 0.09333333 0.86923077
vn 0.70710678 0 0.70710678
usemtl texture
f 352/768/192 347/767/192 345/766/192 350/765/192

o cube
v 1.02588835 0.9375 0.84911165
v 1.02588835 0.9375 0.84911165
v 1.02588835 0.4375 0.84911165
v 1.02588835 0.4375 0.84911165
v 0.84911165 0.9375 1.02588835
v 0.84911165 0.9375 1.02588835
v 0.84911165 0.4375 1.02588835
v 0.84911165 0.4375 1.02588835
vt 0.04 0.83846154
vt 0.09333333 0.83846154
vt 0.09333333 0.80769231
vt 0.04 0.80769231
vn -0.70710678 0 -0.70710678
usemtl texture
f 356/772/193 359/771/193 357/770/193 354/769/193
vt 0.09333333 0.83846154
vt 0.04 0.83846154
vt 0.04 0.80769231
vt 0.09333333 0.80769231
vn 0.70710678 0 0.70710678
usemtl texture
f 360/776/194 355/775/194 353/774/194 358/773/194

o cube
v 1.02588835 0.9375 0.84911165
v 1.02588835 0.9375 0.84911165
v 1.02588835 0.4375 0.84911165
v 1.02588835 0.4375 0.84911165
v 0.84911165 0.9375 1.02588835
v 0.84911165 0.9375 1.02588835
v 0.84911165 0.4375 1.02588835
v 0.84911165 0.4375 1.02588835
vt 0.04 0.77692308
vt 0.09333333 0.77692308
vt 0.09333333 0.74615385
vt 0.04 0.74615385
vn -0.70710678 0 -0.70710678
usemtl texture
f 364/780/195 367/779/195 365/778/195 362/777/195
vt 0.09333333 0.77692308
vt 0.04 0.77692308
vt 0.04 0.74615385
vt 0.09333333 0.74615385
vn 0.70710678 0 0.70710678
usemtl texture
f 368/784/196 363/783/196 361/782/196 366/781/196

o cube
v 1.02588835 0.9375 0.84911165
v 1.02588835 0.9375 0.84911165
v 1.02588835 0.4375 0.84911165
v 1.02588835 0.4375 0.84911165
v 0.84911165 0.9375 1.02588835
v 0.84911165 0.9375 1.02588835
v 0.84911165 0.4375 1.02588835
v 0.84911165 0.4375 1.02588835
vt 0.04 0.71538462
vt 0.09333333 0.71538462
vt 0.09333333 0.68461538
vt 0.04 0.68461538
vn -0.70710678 0 -0.70710678
usemtl texture
f 372/788/197 375/787/197 373/786/197 370/785/197
vt 0.09333333 0.71538462
vt 0.04 0.71538462
vt 0.04 0.68461538
vt 0.09333333 0.68461538
vn 0.70710678 0 0.70710678
usemtl texture
f 376/792/198 371/791/198 369/790/198 374/789/198

o cube
v 1.02588835 0.9375 0.84911165
v 1.02588835 0.9375 0.84911165
v 1.02588835 0.4375 0.84911165
v 1.02588835 0.4375 0.84911165
v 0.84911165 0.9375 1.02588835
v 0.84911165 0.9375 1.02588835
v 0.84911165 0.4375 1.02588835
v 0.84911165 0.4375 1.02588835
vt 0.04 0.65384615
vt 0.09333333 0.65384615
vt 0.09333333 0.62307692
vt 0.04 0.62307692
vn -0.70710678 0 -0.70710678
usemtl texture
f 380/796/199 383/795/199 381/794/199 378/793/199
vt 0.09333333 0.65384615
vt 0.04 0.65384615
vt 0.04 0.62307692
vt 0.09333333 0.62307692
vn 0.70710678 0 0.70710678
usemtl texture
f 384/800/200 379/799/200 377/798/200 382/797/200

o cube
v 1.02588835 0.9375 0.84911165
v 1.02588835 0.9375 0.84911165
v 1.02588835 0.4375 0.84911165
v 1.02588835 0.4375 0.84911165
v 0.84911165 0.9375 1.02588835
v 0.84911165 0.9375 1.02588835
v 0.84911165 0.4375 1.02588835
v 0.84911165 0.4375 1.02588835
vt 0.04 0.59230769
vt 0.09333333 0.59230769
vt 0.09333333 0.56153846
vt 0.04 0.56153846
vn -0.70710678 0 -0.70710678
usemtl texture
f 388/804/201 391/803/201 389/802/201 386/801/201
vt 0.09333333 0.59230769
vt 0.04 0.59230769
vt 0.04 0.56153846
vt 0.09333333 0.56153846
vn 0.70710678 0 0.70710678
usemtl texture
f 392/808/202 387/807/202 385/806/202 390/805/202

o cube
v 1.02588835 0.9375 0.84911165
v 1.02588835 0.9375 0.84911165
v 1.02588835 0.4375 0.84911165
v 1.02588835 0.4375 0.84911165
v 0.84911165 0.9375 1.02588835
v 0.84911165 0.9375 1.02588835
v 0.84911165 0.4375 1.02588835
v 0.84911165 0.4375 1.02588835
vt 0.04 0.53076923
vt 0.09333333 0.53076923
vt 0.09333333 0.5
vt 0.04 0.5
vn -0.70710678 0 -0.70710678
usemtl texture
f 396/812/203 399/811/203 397/810/203 394/809/203
vt 0.09333333 0.53076923
vt 0.04 0.53076923
vt 0.04 0.5
vt 0.09333333 0.5
vn 0.70710678 0 0.70710678
usemtl texture
f 400/816/204 395/815/204 393/814/204 398/813/204

o cube
v 1.02588835 0.9375 0.84911165
v 1.02588835 0.9375 0.84911165
v 1.02588835 0.4375 0.84911165
v 1.02588835 0.4375 0.84911165
v 0.84911165 0.9375 1.02588835
v 0.84911165 0.9375 1.02588835
v 0.84911165 0.4375 1.02588835
v 0.84911165 0.4375 1.02588835
vt 0.04 0.46923077
vt 0.09333333 0.46923077
vt 0.09333333 0.43846154
vt 0.04 0.43846154
vn -0.70710678 0 -0.70710678
usemtl texture
f 404/820/205 407/819/205 405/818/205 402/817/205
vt 0.09333333 0.46923077
vt 0.04 0.46923077
vt 0.04 0.43846154
vt 0.09333333 0.43846154
vn 0.70710678 0 0.70710678
usemtl texture
f 408/824/206 403/823/206 401/822/206 406/821/206

o cube
v 1.02588835 0.9375 0.84911165
v 1.02588835 0.9375 0.84911165
v 1.02588835 0.4375 0.84911165
v 1.02588835 0.4375 0.84911165
v 0.84911165 0.9375 1.02588835
v 0.84911165 0.9375 1.02588835
v 0.84911165 0.4375 1.02588835
v 0.84911165 0.4375 1.02588835
vt 0.04 0.40769231
vt 0.09333333 0.40769231
vt 0.09333333 0.37692308
vt 0.04 0.37692308
vn -0.70710678 0 -0.70710678
usemtl texture
f 412/828/207 415/827/207 413/826/207 410/825/207
vt 0.09333333 0.40769231
vt 0.04 0.40769231
vt 0.04 0.37692308
vt 0.09333333 0.37692308
vn 0.70710678 0 0.70710678
usemtl texture
f 416/832/208 411/831/208 409/830/208 414/829/208

o cube
v 1.02588835 0.9375 0.84911165
v 1.02588835 0.9375 0.84911165
v 1.02588835 0.4375 0.84911165
v 1.02588835 0.4375 0.84911165
v 0.84911165 0.9375 1.02588835
v 0.84911165 0.9375 1.02588835
v 0.84911165 0.4375 1.02588835
v 0.84911165 0.4375 1.02588835
vt 0.04 0.34615385
vt 0.09333333 0.34615385
vt 0.09333333 0.31538462
vt 0.04 0.31538462
vn -0.70710678 0 -0.70710678
usemtl texture
f 420/836/209 423/835/209 421/834/209 418/833/209
vt 0.09333333 0.34615385
vt 0.04 0.34615385
vt 0.04 0.31538462
vt 0.09333333 0.31538462
vn 0.70710678 0 0.70710678
usemtl texture
f 424/840/210 419/839/210 417/838/210 422/837/210

o cube
v 1.02588835 0.9375 0.84911165
v 1.02588835 0.9375 0.84911165
v 1.02588835 0.4375 0.84911165
v 1.02588835 0.4375 0.84911165
v 0.84911165 0.9375 1.02588835
v 0.84911165 0.9375 1.02588835
v 0.84911165 0.4375 1.02588835
v 0.84911165 0.4375 1.02588835
vt 0.04 0.28461538
vt 0.09333333 0.28461538
vt 0.09333333 0.25384615
vt 0.04 0.25384615
vn -0.70710678 0 -0.70710678
usemtl texture
f 428/844/211 431/843/211 429/842/211 426/841/211
vt 0.09333333 0.28461538
vt 0.04 0.28461538
vt 0.04 0.25384615
vt 0.09333333 0.25384615
vn 0.70710678 0 0.70710678
usemtl texture
f 432/848/212 427/847/212 425/846/212 430/845/212

o cube
v 1.02588835 0.9375 0.84911165
v 1.02588835 0.9375 0.84911165
v 1.02588835 0.4375 0.84911165
v 1.02588835 0.4375 0.84911165
v 0.84911165 0.9375 1.02588835
v 0.84911165 0.9375 1.02588835
v 0.84911165 0.4375 1.02588835
v 0.84911165 0.4375 1.02588835
vt 0.04 0.22307692
vt 0.09333333 0.22307692
vt 0.09333333 0.19230769
vt 0.04 0.19230769
vn -0.70710678 0 -0.70710678
usemtl texture
f 436/852/213 439/851/213 437/850/213 434/849/213
vt 0.09333333 0.22307692
vt 0.04 0.22307692
vt 0.04 0.19230769
vt 0.09333333 0.19230769
vn 0.70710678 0 0.70710678
usemtl texture
f 440/856/214 435/855/214 433/854/214 438/853/214

o cube
v 1.02588835 0.9375 0.84911165
v 1.02588835 0.9375 0.84911165
v 1.02588835 0.4375 0.84911165
v 1.02588835 0.4375 0.84911165
v 0.84911165 0.9375 1.02588835
v 0.84911165 0.9375 1.02588835
v 0.84911165 0.4375 1.02588835
v 0.84911165 0.4375 1.02588835
vt 0.04 0.16153846
vt 0.09333333 0.16153846
vt 0.09333333 0.13076923
vt 0.04 0.13076923
vn -0.70710678 0 -0.70710678
usemtl texture
f 444/860/215 447/859/215 445/858/215 442/857/215
vt 0.09333333 0.16153846
vt 0.04 0.16153846
vt 0.04 0.13076923
vt 0.09333333 0.13076923
vn 0.70710678 0 0.70710678
usemtl texture
f 448/864/216 443/863/216 441/862/216 446/861/216

o cube
v 1.02588835 0.9375 0.84911165
v 1.02588835 0.9375 0.84911165
v 1.02588835 0.4375 0.84911165
v 1.02588835 0.4375 0.84911165
v 0.84911165 0.9375 1.02588835
v 0.84911165 0.9375 1.02588835
v 0.84911165 0.4375 1.02588835
v 0.84911165 0.4375 1.02588835
vt 0.04 0.1
vt 0.09333333 0.1
vt 0.09333333 0.06923077
vt 0.04 0.06923077
vn -0.70710678 0 -0.70710678
usemtl texture
f 452/868/217 455/867/217 453/866/217 450/865/217
vt 0.09333333 0.1
vt 0.04 0.1
vt 0.04 0.06923077
vt 0.09333333 0.06923077
vn 0.70710678 0 0.70710678
usemtl texture
f 456/872/218 451/871/218 449/870/218 454/869/218

o cube
v 1.02588835 0.9375 0.84911165
v 1.02588835 0.9375 0.84911165
v 1.02588835 0.4375 0.84911165
v 1.02588835 0.4375 0.84911165
v 0.84911165 0.9375 1.02588835
v 0.84911165 0.9375 1.02588835
v 0.84911165 0.4375 1.02588835
v 0.84911165 0.4375 1.02588835
vt 0.04 0.03846154
vt 0.09333333 0.03846154
vt 0.09333333 0.00769231
vt 0.04 0.00769231
vn -0.70710678 0 -0.70710678
usemtl texture
f 460/876/219 463/875/219 461/874/219 458/873/219
vt 0.09333333 0.03846154
vt 0.04 0.03846154
vt 0.04 0.00769231
vt 0.09333333 0.00769231
vn 0.70710678 0 0.70710678
usemtl texture
f 464/880/220 459/879/220 457/878/220 462/877/220

o cube
v 0.84911165 0.9375 -0.02588835
v 0.84911165 0.9375 -0.02588835
v 0.84911165 0.4375 -0.02588835
v 0.84911165 0.4375 -0.02588835
v 1.02588835 0.9375 0.15088835
v 1.02588835 0.9375 0.15088835
v 1.02588835 0.4375 0.15088835
v 1.02588835 0.4375 0.15088835
vt 0.04 0.96153846
vt 0.09333333 0.96153846
vt 0.09333333 0.93076923
vt 0.04 0.93076923
vn -0.70710678 0 0.70710678
usemtl texture
f 468/884/221 471/883/221 469/882/221 466/881/221
vt 0.09333333 0.96153846
vt 0.04 0.96153846
vt 0.04 0.93076923
vt 0.09333333 0.93076923
vn 0.70710678 0 -0.70710678
usemtl texture
f 472/888/222 467/887/222 465/886/222 470/885/222

o cube
v 0.84911165 0.9375 -0.02588835
v 0.84911165 0.9375 -0.02588835
v 0.84911165 0.4375 -0.02588835
v 0.84911165 0.4375 -0.02588835
v 1.02588835 0.9375 0.15088835
v 1.02588835 0.9375 0.15088835
v 1.02588835 0.4375 0.15088835
v 1.02588835 0.4375 0.15088835
vt 0.04 0.9
vt 0.09333333 0.9
vt 0.09333333 0.86923077
vt 0.04 0.86923077
vn -0.70710678 0 0.70710678
usemtl texture
f 476/892/223 479/891/223 477/890/223 474/889/223
vt 0.09333333 0.9
vt 0.04 0.9
vt 0.04 0.86923077
vt 0.09333333 0.86923077
vn 0.70710678 0 -0.70710678
usemtl texture
f 480/896/224 475/895/224 473/894/224 478/893/224

o cube
v 0.84911165 0.9375 -0.02588835
v 0.84911165 0.9375 -0.02588835
v 0.84911165 0.4375 -0.02588835
v 0.84911165 0.4375 -0.02588835
v 1.02588835 0.9375 0.15088835
v 1.02588835 0.9375 0.15088835
v 1.02588835 0.4375 0.15088835
v 1.02588835 0.4375 0.15088835
vt 0.04 0.83846154
vt 0.09333333 0.83846154
vt 0.09333333 0.80769231
vt 0.04 0.80769231
vn -0.70710678 0 0.70710678
usemtl texture
f 484/900/225 487/899/225 485/898/225 482/897/225
vt 0.09333333 0.83846154
vt 0.04 0.83846154
vt 0.04 0.80769231
vt 0.09333333 0.80769231
vn 0.70710678 0 -0.70710678
usemtl texture
f 488/904/226 483/903/226 481/902/226 486/901/226

o cube
v 0.84911165 0.9375 -0.02588835
v 0.84911165 0.9375 -0.02588835
v 0.84911165 0.4375 -0.02588835
v 0.84911165 0.4375 -0.02588835
v 1.02588835 0.9375 0.15088835
v 1.02588835 0.9375 0.15088835
v 1.02588835 0.4375 0.15088835
v 1.02588835 0.4375 0.15088835
vt 0.04 0.77692308
vt 0.09333333 0.77692308
vt 0.09333333 0.74615385
vt 0.04 0.74615385
vn -0.70710678 0 0.70710678
usemtl texture
f 492/908/227 495/907/227 493/906/227 490/905/227
vt 0.09333333 0.77692308
vt 0.04 0.77692308
vt 0.04 0.74615385
vt 0.09333333 0.74615385
vn 0.70710678 0 -0.70710678
usemtl texture
f 496/912/228 491/911/228 489/910/228 494/909/228

o cube
v 0.84911165 0.9375 -0.02588835
v 0.84911165 0.9375 -0.02588835
v 0.84911165 0.4375 -0.02588835
v 0.84911165 0.4375 -0.02588835
v 1.02588835 0.9375 0.15088835
v 1.02588835 0.9375 0.15088835
v 1.02588835 0.4375 0.15088835
v 1.02588835 0.4375 0.15088835
vt 0.04 0.71538462
vt 0.09333333 0.71538462
vt 0.09333333 0.68461538
vt 0.04 0.68461538
vn -0.70710678 0 0.70710678
usemtl texture
f 500/916/229 503/915/229 501/914/229 498/913/229
vt 0.09333333 0.71538462
vt 0.04 0.71538462
vt 0.04 0.68461538
vt 0.09333333 0.68461538
vn 0.70710678 0 -0.70710678
usemtl texture
f 504/920/230 499/919/230 497/918/230 502/917/230

o cube
v 0.84911165 0.9375 -0.02588835
v 0.84911165 0.9375 -0.02588835
v 0.84911165 0.4375 -0.02588835
v 0.84911165 0.4375 -0.02588835
v 1.02588835 0.9375 0.15088835
v 1.02588835 0.9375 0.15088835
v 1.02588835 0.4375 0.15088835
v 1.02588835 0.4375 0.15088835
vt 0.04 0.65384615
vt 0.09333333 0.65384615
vt 0.09333333 0.62307692
vt 0.04 0.62307692
vn -0.70710678 0 0.70710678
usemtl texture
f 508/924/231 511/923/231 509/922/231 506/921/231
vt 0.09333333 0.65384615
vt 0.04 0.65384615
vt 0.04 0.62307692
vt 0.09333333 0.62307692
vn 0.70710678 0 -0.70710678
usemtl texture
f 512/928/232 507/927/232 505/926/232 510/925/232

o cube
v 0.84911165 0.9375 -0.02588835
v 0.84911165 0.9375 -0.02588835
v 0.84911165 0.4375 -0.02588835
v 0.84911165 0.4375 -0.02588835
v 1.02588835 0.9375 0.15088835
v 1.02588835 0.9375 0.15088835
v 1.02588835 0.4375 0.15088835
v 1.02588835 0.4375 0.15088835
vt 0.04 0.59230769
vt 0.09333333 0.59230769
vt 0.09333333 0.56153846
vt 0.04 0.56153846
vn -0.70710678 0 0.70710678
usemtl texture
f 516/932/233 519/931/233 517/930/233 514/929/233
vt 0.09333333 0.59230769
vt 0.04 0.59230769
vt 0.04 0.56153846
vt 0.09333333 0.56153846
vn 0.70710678 0 -0.70710678
usemtl texture
f 520/936/234 515/935/234 513/934/234 518/933/234

o cube
v 0.84911165 0.9375 -0.02588835
v 0.84911165 0.9375 -0.02588835
v 0.84911165 0.4375 -0.02588835
v 0.84911165 0.4375 -0.02588835
v 1.02588835 0.9375 0.15088835
v 1.02588835 0.9375 0.15088835
v 1.02588835 0.4375 0.15088835
v 1.02588835 0.4375 0.15088835
vt 0.04 0.53076923
vt 0.09333333 0.53076923
vt 0.09333333 0.5
vt 0.04 0.5
vn -0.70710678 0 0.70710678
usemtl texture
f 524/940/235 527/939/235 525/938/235 522/937/235
vt 0.09333333 0.53076923
vt 0.04 0.53076923
vt 0.04 0.5
vt 0.09333333 0.5
vn 0.70710678 0 -0.70710678
usemtl texture
f 528/944/236 523/943/236 521/942/236 526/941/236

o cube
v 0.84911165 0.9375 -0.02588835
v 0.84911165 0.9375 -0.02588835
v 0.84911165 0.4375 -0.02588835
v 0.84911165 0.4375 -0.02588835
v 1.02588835 0.9375 0.15088835
v 1.02588835 0.9375 0.15088835
v 1.02588835 0.4375 0.15088835
v 1.02588835 0.4375 0.15088835
vt 0.04 0.46923077
vt 0.09333333 0.46923077
vt 0.09333333 0.43846154
vt 0.04 0.43846154
vn -0.70710678 0 0.70710678
usemtl texture
f 532/948/237 535/947/237 533/946/237 530/945/237
vt 0.09333333 0.46923077
vt 0.04 0.46923077
vt 0.04 0.43846154
vt 0.09333333 0.43846154
vn 0.70710678 0 -0.70710678
usemtl texture
f 536/952/238 531/951/238 529/950/238 534/949/238

o cube
v 0.84911165 0.9375 -0.02588835
v 0.84911165 0.9375 -0.02588835
v 0.84911165 0.4375 -0.02588835
v 0.84911165 0.4375 -0.02588835
v 1.02588835 0.9375 0.15088835
v 1.02588835 0.9375 0.15088835
v 1.02588835 0.4375 0.15088835
v 1.02588835 0.4375 0.15088835
vt 0.04 0.40769231
vt 0.09333333 0.40769231
vt 0.09333333 0.37692308
vt 0.04 0.37692308
vn -0.70710678 0 0.70710678
usemtl texture
f 540/956/239 543/955/239 541/954/239 538/953/239
vt 0.09333333 0.40769231
vt 0.04 0.40769231
vt 0.04 0.37692308
vt 0.09333333 0.37692308
vn 0.70710678 0 -0.70710678
usemtl texture
f 544/960/240 539/959/240 537/958/240 542/957/240

o cube
v 0.84911165 0.9375 -0.02588835
v 0.84911165 0.9375 -0.02588835
v 0.84911165 0.4375 -0.02588835
v 0.84911165 0.4375 -0.02588835
v 1.02588835 0.9375 0.15088835
v 1.02588835 0.9375 0.15088835
v 1.02588835 0.4375 0.15088835
v 1.02588835 0.4375 0.15088835
vt 0.04 0.34615385
vt 0.09333333 0.34615385
vt 0.09333333 0.31538462
vt 0.04 0.31538462
vn -0.70710678 0 0.70710678
usemtl texture
f 548/964/241 551/963/241 549/962/241 546/961/241
vt 0.09333333 0.34615385
vt 0.04 0.34615385
vt 0.04 0.31538462
vt 0.09333333 0.31538462
vn 0.70710678 0 -0.70710678
usemtl texture
f 552/968/242 547/967/242 545/966/242 550/965/242

o cube
v 0.84911165 0.9375 -0.02588835
v 0.84911165 0.9375 -0.02588835
v 0.84911165 0.4375 -0.02588835
v 0.84911165 0.4375 -0.02588835
v 1.02588835 0.9375 0.15088835
v 1.02588835 0.9375 0.15088835
v 1.02588835 0.4375 0.15088835
v 1.02588835 0.4375 0.15088835
vt 0.04 0.28461538
vt 0.09333333 0.28461538
vt 0.09333333 0.25384615
vt 0.04 0.25384615
vn -0.70710678 0 0.70710678
usemtl texture
f 556/972/243 559/971/243 557/970/243 554/969/243
vt 0.09333333 0.28461538
vt 0.04 0.28461538
vt 0.04 0.25384615
vt 0.09333333 0.25384615
vn 0.70710678 0 -0.70710678
usemtl texture
f 560/976/244 555/975/244 553/974/244 558/973/244

o cube
v 0.84911165 0.9375 -0.02588835
v 0.84911165 0.9375 -0.02588835
v 0.84911165 0.4375 -0.02588835
v 0.84911165 0.4375 -0.02588835
v 1.02588835 0.9375 0.15088835
v 1.02588835 0.9375 0.15088835
v 1.02588835 0.4375 0.15088835
v 1.02588835 0.4375 0.15088835
vt 0.04 0.22307692
vt 0.09333333 0.22307692
vt 0.09333333 0.19230769
vt 0.04 0.19230769
vn -0.70710678 0 0.70710678
usemtl texture
f 564/980/245 567/979/245 565/978/245 562/977/245
vt 0.09333333 0.22307692
vt 0.04 0.22307692
vt 0.04 0.19230769
vt 0.09333333 0.19230769
vn 0.70710678 0 -0.70710678
usemtl texture
f 568/984/246 563/983/246 561/982/246 566/981/246

o cube
v 0.84911165 0.9375 -0.02588835
v 0.84911165 0.9375 -0.02588835
v 0.84911165 0.4375 -0.02588835
v 0.84911165 0.4375 -0.02588835
v 1.02588835 0.9375 0.15088835
v 1.02588835 0.9375 0.15088835
v 1.02588835 0.4375 0.15088835
v 1.02588835 0.4375 0.15088835
vt 0.04 0.16153846
vt 0.09333333 0.16153846
vt 0.09333333 0.13076923
vt 0.04 0.13076923
vn -0.70710678 0 0.70710678
usemtl texture
f 572/988/247 575/987/247 573/986/247 570/985/247
vt 0.09333333 0.16153846
vt 0.04 0.16153846
vt 0.04 0.13076923
vt 0.09333333 0.13076923
vn 0.70710678 0 -0.70710678
usemtl texture
f 576/992/248 571/991/248 569/990/248 574/989/248

o cube
v 0.84911165 0.9375 -0.02588835
v 0.84911165 0.9375 -0.02588835
v 0.84911165 0.4375 -0.02588835
v 0.84911165 0.4375 -0.02588835
v 1.02588835 0.9375 0.15088835
v 1.02588835 0.9375 0.15088835
v 1.02588835 0.4375 0.15088835
v 1.02588835 0.4375 0.15088835
vt 0.04 0.1
vt 0.09333333 0.1
vt 0.09333333 0.06923077
vt 0.04 0.06923077
vn -0.70710678 0 0.70710678
usemtl texture
f 580/996/249 583/995/249 581/994/249 578/993/249
vt 0.09333333 0.1
vt 0.04 0.1
vt 0.04 0.06923077
vt 0.09333333 0.06923077
vn 0.70710678 0 -0.70710678
usemtl texture
f 584/1000/250 579/999/250 577/998/250 582/997/250

o cube
v 0.84911165 0.9375 -0.02588835
v 0.84911165 0.9375 -0.02588835
v 0.84911165 0.4375 -0.02588835
v 0.84911165 0.4375 -0.02588835
v 1.02588835 0.9375 0.15088835
v 1.02588835 0.9375 0.15088835
v 1.02588835 0.4375 0.15088835
v 1.02588835 0.4375 0.15088835
vt 0.04 0.03846154
vt 0.09333333 0.03846154
vt 0.09333333 0.00769231
vt 0.04 0.00769231
vn -0.70710678 0 0.70710678
usemtl texture
f 588/1004/251 591/1003/251 589/1002/251 586/1001/251
vt 0.09333333 0.03846154
vt 0.04 0.03846154
vt 0.04 0.00769231
vt 0.09333333 0.00769231
vn 0.70710678 0 -0.70710678
usemtl texture
f 592/1008/252 587/1007/252 585/1006/252 590/1005/252

o cube
v 0.15088835 0.9375 -0.02588835
v 0.15088835 0.9375 -0.02588835
v 0.15088835 0.4375 -0.02588835
v 0.15088835 0.4375 -0.02588835
v -0.02588835 0.9375 0.15088835
v -0.02588835 0.9375 0.15088835
v -0.02588835 0.4375 0.15088835
v -0.02588835 0.4375 0.15088835
vt 0.04 0.96153846
vt 0.09333333 0.96153846
vt 0.09333333 0.93076923
vt 0.04 0.93076923
vn -0.70710678 0 -0.70710678
usemtl texture
f 596/1012/253 599/1011/253 597/1010/253 594/1009/253
vt 0.09333333 0.96153846
vt 0.04 0.96153846
vt 0.04 0.93076923
vt 0.09333333 0.93076923
vn 0.70710678 0 0.70710678
usemtl texture
f 600/1016/254 595/1015/254 593/1014/254 598/1013/254

o cube
v 0.15088835 0.9375 -0.02588835
v 0.15088835 0.9375 -0.02588835
v 0.15088835 0.4375 -0.02588835
v 0.15088835 0.4375 -0.02588835
v -0.02588835 0.9375 0.15088835
v -0.02588835 0.9375 0.15088835
v -0.02588835 0.4375 0.15088835
v -0.02588835 0.4375 0.15088835
vt 0.04 0.9
vt 0.09333333 0.9
vt 0.09333333 0.86923077
vt 0.04 0.86923077
vn -0.70710678 0 -0.70710678
usemtl texture
f 604/1020/255 607/1019/255 605/1018/255 602/1017/255
vt 0.09333333 0.9
vt 0.04 0.9
vt 0.04 0.86923077
vt 0.09333333 0.86923077
vn 0.70710678 0 0.70710678
usemtl texture
f 608/1024/256 603/1023/256 601/1022/256 606/1021/256

o cube
v 0.15088835 0.9375 -0.02588835
v 0.15088835 0.9375 -0.02588835
v 0.15088835 0.4375 -0.02588835
v 0.15088835 0.4375 -0.02588835
v -0.02588835 0.9375 0.15088835
v -0.02588835 0.9375 0.15088835
v -0.02588835 0.4375 0.15088835
v -0.02588835 0.4375 0.15088835
vt 0.04 0.83846154
vt 0.09333333 0.83846154
vt 0.09333333 0.80769231
vt 0.04 0.80769231
vn -0.70710678 0 -0.70710678
usemtl texture
f 612/1028/257 615/1027/257 613/1026/257 610/1025/257
vt 0.09333333 0.83846154
vt 0.04 0.83846154
vt 0.04 0.80769231
vt 0.09333333 0.80769231
vn 0.70710678 0 0.70710678
usemtl texture
f 616/1032/258 611/1031/258 609/1030/258 614/1029/258

o cube
v 0.15088835 0.9375 -0.02588835
v 0.15088835 0.9375 -0.02588835
v 0.15088835 0.4375 -0.02588835
v 0.15088835 0.4375 -0.02588835
v -0.02588835 0.9375 0.15088835
v -0.02588835 0.9375 0.15088835
v -0.02588835 0.4375 0.15088835
v -0.02588835 0.4375 0.15088835
vt 0.04 0.77692308
vt 0.09333333 0.77692308
vt 0.09333333 0.74615385
vt 0.04 0.74615385
vn -0.70710678 0 -0.70710678
usemtl texture
f 620/1036/259 623/1035/259 621/1034/259 618/1033/259
vt 0.09333333 0.77692308
vt 0.04 0.77692308
vt 0.04 0.74615385
vt 0.09333333 0.74615385
vn 0.70710678 0 0.70710678
usemtl texture
f 624/1040/260 619/1039/260 617/1038/260 622/1037/260

o cube
v 0.15088835 0.9375 -0.02588835
v 0.15088835 0.9375 -0.02588835
v 0.15088835 0.4375 -0.02588835
v 0.15088835 0.4375 -0.02588835
v -0.02588835 0.9375 0.15088835
v -0.02588835 0.9375 0.15088835
v -0.02588835 0.4375 0.15088835
v -0.02588835 0.4375 0.15088835
vt 0.04 0.71538462
vt 0.09333333 0.71538462
vt 0.09333333 0.68461538
vt 0.04 0.68461538
vn -0.70710678 0 -0.70710678
usemtl texture
f 628/1044/261 631/1043/261 629/1042/261 626/1041/261
vt 0.09333333 0.71538462
vt 0.04 0.71538462
vt 0.04 0.68461538
vt 0.09333333 0.68461538
vn 0.70710678 0 0.70710678
usemtl texture
f 632/1048/262 627/1047/262 625/1046/262 630/1045/262

o cube
v 0.15088835 0.9375 -0.02588835
v 0.15088835 0.9375 -0.02588835
v 0.15088835 0.4375 -0.02588835
v 0.15088835 0.4375 -0.02588835
v -0.02588835 0.9375 0.15088835
v -0.02588835 0.9375 0.15088835
v -0.02588835 0.4375 0.15088835
v -0.02588835 0.4375 0.15088835
vt 0.04 0.65384615
vt 0.09333333 0.65384615
vt 0.09333333 0.62307692
vt 0.04 0.62307692
vn -0.70710678 0 -0.70710678
usemtl texture
f 636/1052/263 639/1051/263 637/1050/263 634/1049/263
vt 0.09333333 0.65384615
vt 0.04 0.65384615
vt 0.04 0.62307692
vt 0.09333333 0.62307692
vn 0.70710678 0 0.70710678
usemtl texture
f 640/1056/264 635/1055/264 633/1054/264 638/1053/264

o cube
v 0.15088835 0.9375 -0.02588835
v 0.15088835 0.9375 -0.02588835
v 0.15088835 0.4375 -0.02588835
v 0.15088835 0.4375 -0.02588835
v -0.02588835 0.9375 0.15088835
v -0.02588835 0.9375 0.15088835
v -0.02588835 0.4375 0.15088835
v -0.02588835 0.4375 0.15088835
vt 0.04 0.59230769
vt 0.09333333 0.59230769
vt 0.09333333 0.56153846
vt 0.04 0.56153846
vn -0.70710678 0 -0.70710678
usemtl texture
f 644/1060/265 647/1059/265 645/1058/265 642/1057/265
vt 0.09333333 0.59230769
vt 0.04 0.59230769
vt 0.04 0.56153846
vt 0.09333333 0.56153846
vn 0.70710678 0 0.70710678
usemtl texture
f 648/1064/266 643/1063/266 641/1062/266 646/1061/266

o cube
v 0.15088835 0.9375 -0.02588835
v 0.15088835 0.9375 -0.02588835
v 0.15088835 0.4375 -0.02588835
v 0.15088835 0.4375 -0.02588835
v -0.02588835 0.9375 0.15088835
v -0.02588835 0.9375 0.15088835
v -0.02588835 0.4375 0.15088835
v -0.02588835 0.4375 0.15088835
vt 0.04 0.53076923
vt 0.09333333 0.53076923
vt 0.09333333 0.5
vt 0.04 0.5
vn -0.70710678 0 -0.70710678
usemtl texture
f 652/1068/267 655/1067/267 653/1066/267 650/1065/267
vt 0.09333333 0.53076923
vt 0.04 0.53076923
vt 0.04 0.5
vt 0.09333333 0.5
vn 0.70710678 0 0.70710678
usemtl texture
f 656/1072/268 651/1071/268 649/1070/268 654/1069/268

o cube
v 0.15088835 0.9375 -0.02588835
v 0.15088835 0.9375 -0.02588835
v 0.15088835 0.4375 -0.02588835
v 0.15088835 0.4375 -0.02588835
v -0.02588835 0.9375 0.15088835
v -0.02588835 0.9375 0.15088835
v -0.02588835 0.4375 0.15088835
v -0.02588835 0.4375 0.15088835
vt 0.04 0.46923077
vt 0.09333333 0.46923077
vt 0.09333333 0.43846154
vt 0.04 0.43846154
vn -0.70710678 0 -0.70710678
usemtl texture
f 660/1076/269 663/1075/269 661/1074/269 658/1073/269
vt 0.09333333 0.46923077
vt 0.04 0.46923077
vt 0.04 0.43846154
vt 0.09333333 0.43846154
vn 0.70710678 0 0.70710678
usemtl texture
f 664/1080/270 659/1079/270 657/1078/270 662/1077/270

o cube
v 0.15088835 0.9375 -0.02588835
v 0.15088835 0.9375 -0.02588835
v 0.15088835 0.4375 -0.02588835
v 0.15088835 0.4375 -0.02588835
v -0.02588835 0.9375 0.15088835
v -0.02588835 0.9375 0.15088835
v -0.02588835 0.4375 0.15088835
v -0.02588835 0.4375 0.15088835
vt 0.04 0.40769231
vt 0.09333333 0.40769231
vt 0.09333333 0.37692308
vt 0.04 0.37692308
vn -0.70710678 0 -0.70710678
usemtl texture
f 668/1084/271 671/1083/271 669/1082/271 666/1081/271
vt 0.09333333 0.40769231
vt 0.04 0.40769231
vt 0.04 0.37692308
vt 0.09333333 0.37692308
vn 0.70710678 0 0.70710678
usemtl texture
f 672/1088/272 667/1087/272 665/1086/272 670/1085/272

o cube
v 0.15088835 0.9375 -0.02588835
v 0.15088835 0.9375 -0.02588835
v 0.15088835 0.4375 -0.02588835
v 0.15088835 0.4375 -0.02588835
v -0.02588835 0.9375 0.15088835
v -0.02588835 0.9375 0.15088835
v -0.02588835 0.4375 0.15088835
v -0.02588835 0.4375 0.15088835
vt 0.04 0.34615385
vt 0.09333333 0.34615385
vt 0.09333333 0.31538462
vt 0.04 0.31538462
vn -0.70710678 0 -0.70710678
usemtl texture
f 676/1092/273 679/1091/273 677/1090/273 674/1089/273
vt 0.09333333 0.34615385
vt 0.04 0.34615385
vt 0.04 0.31538462
vt 0.09333333 0.31538462
vn 0.70710678 0 0.70710678
usemtl texture
f 680/1096/274 675/1095/274 673/1094/274 678/1093/274

o cube
v 0.15088835 0.9375 -0.02588835
v 0.15088835 0.9375 -0.02588835
v 0.15088835 0.4375 -0.02588835
v 0.15088835 0.4375 -0.02588835
v -0.02588835 0.9375 0.15088835
v -0.02588835 0.9375 0.15088835
v -0.02588835 0.4375 0.15088835
v -0.02588835 0.4375 0.15088835
vt 0.04 0.28461538
vt 0.09333333 0.28461538
vt 0.09333333 0.25384615
vt 0.04 0.25384615
vn -0.70710678 0 -0.70710678
usemtl texture
f 684/1100/275 687/1099/275 685/1098/275 682/1097/275
vt 0.09333333 0.28461538
vt 0.04 0.28461538
vt 0.04 0.25384615
vt 0.09333333 0.25384615
vn 0.70710678 0 0.70710678
usemtl texture
f 688/1104/276 683/1103/276 681/1102/276 686/1101/276

o cube
v 0.15088835 0.9375 -0.02588835
v 0.15088835 0.9375 -0.02588835
v 0.15088835 0.4375 -0.02588835
v 0.15088835 0.4375 -0.02588835
v -0.02588835 0.9375 0.15088835
v -0.02588835 0.9375 0.15088835
v -0.02588835 0.4375 0.15088835
v -0.02588835 0.4375 0.15088835
vt 0.04 0.22307692
vt 0.09333333 0.22307692
vt 0.09333333 0.19230769
vt 0.04 0.19230769
vn -0.70710678 0 -0.70710678
usemtl texture
f 692/1108/277 695/1107/277 693/1106/277 690/1105/277
vt 0.09333333 0.22307692
vt 0.04 0.22307692
vt 0.04 0.19230769
vt 0.09333333 0.19230769
vn 0.70710678 0 0.70710678
usemtl texture
f 696/1112/278 691/1111/278 689/1110/278 694/1109/278

o cube
v 0.15088835 0.9375 -0.02588835
v 0.15088835 0.9375 -0.02588835
v 0.15088835 0.4375 -0.02588835
v 0.15088835 0.4375 -0.02588835
v -0.02588835 0.9375 0.15088835
v -0.02588835 0.9375 0.15088835
v -0.02588835 0.4375 0.15088835
v -0.02588835 0.4375 0.15088835
vt 0.04 0.16153846
vt 0.09333333 0.16153846
vt 0.09333333 0.13076923
vt 0.04 0.13076923
vn -0.70710678 0 -0.70710678
usemtl texture
f 700/1116/279 703/1115/279 701/1114/279 698/1113/279
vt 0.09333333 0.16153846
vt 0.04 0.16153846
vt 0.04 0.13076923
vt 0.09333333 0.13076923
vn 0.70710678 0 0.70710678
usemtl texture
f 704/1120/280 699/1119/280 697/1118/280 702/1117/280

o cube
v 0.15088835 0.9375 -0.02588835
v 0.15088835 0.9375 -0.02588835
v 0.15088835 0.4375 -0.02588835
v 0.15088835 0.4375 -0.02588835
v -0.02588835 0.9375 0.15088835
v -0.02588835 0.9375 0.15088835
v -0.02588835 0.4375 0.15088835
v -0.02588835 0.4375 0.15088835
vt 0.04 0.1
vt 0.09333333 0.1
vt 0.09333333 0.06923077
vt 0.04 0.06923077
vn -0.70710678 0 -0.70710678
usemtl texture
f 708/1124/281 711/1123/281 709/1122/281 706/1121/281
vt 0.09333333 0.1
vt 0.04 0.1
vt 0.04 0.06923077
vt 0.09333333 0.06923077
vn 0.70710678 0 0.70710678
usemtl texture
f 712/1128/282 707/1127/282 705/1126/282 710/1125/282

o cube
v 0.15088835 0.9375 -0.02588835
v 0.15088835 0.9375 -0.02588835
v 0.15088835 0.4375 -0.02588835
v 0.15088835 0.4375 -0.02588835
v -0.02588835 0.9375 0.15088835
v -0.02588835 0.9375 0.15088835
v -0.02588835 0.4375 0.15088835
v -0.02588835 0.4375 0.15088835
vt 0.04 0.03846154
vt 0.09333333 0.03846154
vt 0.09333333 0.00769231
vt 0.04 0.00769231
vn -0.70710678 0 -0.70710678
usemtl texture
f 716/1132/283 719/1131/283 717/1130/283 714/1129/283
vt 0.09333333 0.03846154
vt 0.04 0.03846154
vt 0.04 0.00769231
vt 0.09333333 0.00769231
vn 0.70710678 0 0.70710678
usemtl texture
f 720/1136/284 715/1135/284 713/1134/284 718/1133/284

o cube
v 0.5625 0.84375 0.15625
v 0.5625 0.84375 0.09375
v 0.5625 0.71875 0.15625
v 0.5625 0.71875 0.09375
v 0.53125 0.84375 0.09375
v 0.53125 0.84375 0.15625
v 0.53125 0.71875 0.09375
v 0.53125 0.71875 0.15625
vt 0.28666667 0.39230769
vt 0.3 0.39230769
vt 0.3 0.38461538
vt 0.28666667 0.38461538
vn 0 0 -1
usemtl texture
f 724/1140/285 727/1139/285 725/1138/285 722/1137/285
vt 0.3 0.37692308
vt 0.30666667 0.37692308
vt 0.30666667 0.36923077
vt 0.3 0.36923077
vn 1 0 0
usemtl texture
f 723/1144/286 724/1143/286 722/1142/286 721/1141/286
vt 0.27333333 0.37692308
vt 0.28666667 0.37692308
vt 0.28666667 0.36923077
vt 0.27333333 0.36923077
vn 0 0 1
usemtl texture
f 728/1148/287 723/1147/287 721/1146/287 726/1145/287
vt 0.33333333 0.38076923
vt 0.34 0.38076923
vt 0.34 0.37307692
vt 0.33333333 0.37307692
vn -1 0 0
usemtl texture
f 727/1152/288 728/1151/288 726/1150/288 725/1149/288
vt 0.35333333 0.41923077
vt 0.34 0.41923077
vt 0.34 0.42307692
vt 0.35333333 0.42307692
vn 0 1 0
usemtl texture
f 726/1156/289 721/1155/289 722/1154/289 725/1153/289
vt 0.35333333 0.41923077
vt 0.34 0.41923077
vt 0.34 0.41538462
vt 0.35333333 0.41538462
vn 0 -1 0
usemtl texture
f 727/1160/290 724/1159/290 723/1158/290 728/1157/290

o cube
v 0.46875 0.84375 0.15625
v 0.46875 0.84375 0.09375
v 0.46875 0.71875 0.15625
v 0.46875 0.71875 0.09375
v 0.4375 0.84375 0.09375
v 0.4375 0.84375 0.15625
v 0.4375 0.71875 0.09375
v 0.4375 0.71875 0.15625
vt 0.26 0.38461538
vt 0.27333333 0.38461538
vt 0.27333333 0.37692308
vt 0.26 0.37692308
vn 0 0 -1
usemtl texture
f 732/1164/291 735/1163/291 733/1162/291 730/1161/291
vt 0.3 0.37692308
vt 0.30666667 0.37692308
vt 0.30666667 0.36923077
vt 0.3 0.36923077
vn 1 0 0
usemtl texture
f 731/1168/292 732/1167/292 730/1166/292 729/1165/292
vt 0.27333333 0.37692308
vt 0.28666667 0.37692308
vt 0.28666667 0.36923077
vt 0.27333333 0.36923077
vn 0 0 1
usemtl texture
f 736/1172/293 731/1171/293 729/1170/293 734/1169/293
vt 0.33333333 0.38076923
vt 0.34 0.38076923
vt 0.34 0.37307692
vt 0.33333333 0.37307692
vn -1 0 0
usemtl texture
f 735/1176/294 736/1175/294 734/1174/294 733/1173/294
vt 0.35333333 0.41923077
vt 0.34 0.41923077
vt 0.34 0.42307692
vt 0.35333333 0.42307692
vn 0 1 0
usemtl texture
f 734/1180/295 729/1179/295 730/1178/295 733/1177/295
vt 0.35333333 0.41923077
vt 0.34 0.41923077
vt 0.34 0.41538462
vt 0.35333333 0.41538462
vn 0 -1 0
usemtl texture
f 735/1184/296 732/1183/296 731/1182/296 736/1181/296

o cube
v 0.5625 0.53125 0.21875
v 0.5625 0.53125 0.175
v 0.4375 0.53125 0.21875
v 0.4375 0.53125 0.175
v 0.5625 0.6875 0.175
v 0.5625 0.6875 0.21875
v 0.4375 0.6875 0.175
v 0.4375 0.6875 0.21875
vt 0.25333333 0.42307692
vt 0.28666667 0.42307692
vt 0.28666667 0.41538462
vt 0.25333333 0.41538462
vn 0 0 -1
usemtl texture
f 740/1188/297 743/1187/297 741/1186/297 738/1185/297
vt 0.25333333 0.39230769
vt 0.26 0.39230769
vt 0.26 0.37692308
vt 0.25333333 0.37692308
vn 0 -1 0
usemtl texture
f 739/1192/298 740/1191/298 738/1190/298 737/1189/298
vt 0.25333333 0.41538462
vt 0.28666667 0.41538462
vt 0.28666667 0.40769231
vt 0.25333333 0.40769231
vn 0 0 1
usemtl texture
f 744/1196/299 739/1195/299 737/1194/299 742/1193/299
vt 0.30666667 0.42307692
vt 0.31333333 0.42307692
vt 0.31333333 0.40769231
vt 0.30666667 0.40769231
vn 0 1 0
usemtl texture
f 743/1200/300 744/1199/300 742/1198/300 741/1197/300
vt 0.33333333 0.40384615
vt 0.30666667 0.40384615
vt 0.30666667 0.40769231
vt 0.33333333 0.40769231
vn 1 0 0
usemtl texture
f 742/1204/301 737/1203/301 738/1202/301 741/1201/301
vt 0.33333333 0.40384615
vt 0.30666667 0.40384615
vt 0.30666667 0.4
vt 0.33333333 0.4
vn -1 0 0
usemtl texture
f 743/1208/302 740/1207/302 739/1206/302 744/1205/302

o cube
v 0.51625 1.0625 0.175
v 0.51625 1.0625 0.16875
v 0.51625 0.90625 0.175
v 0.51625 0.90625 0.16875
v 0.485 1.0625 0.16875
v 0.485 1.0625 0.175
v 0.485 0.90625 0.16875
v 0.485 0.90625 0.175
vt 0.26 0.36538462
vt 0.27333333 0.36538462
vt 0.27333333 0.35769231
vt 0.26 0.35769231
vn 0 0 -1
usemtl texture
f 748/1212/303 751/1211/303 749/1210/303 746/1209/303
vt 0.28666667 0.36538462
vt 0.29333333 0.36538462
vt 0.29333333 0.35769231
vt 0.28666667 0.35769231
vn 1 0 0
usemtl texture
f 747/1216/304 748/1215/304 746/1214/304 745/1213/304
vt 0.27333333 0.36538462
vt 0.28666667 0.36538462
vt 0.28666667 0.35769231
vt 0.27333333 0.35769231
vn 0 0 1
usemtl texture
f 752/1220/305 747/1219/305 745/1218/305 750/1217/305
vt 0.29333333 0.36538462
vt 0.3 0.36538462
vt 0.3 0.35769231
vt 0.29333333 0.35769231
vn -1 0 0
usemtl texture
f 751/1224/306 752/1223/306 750/1222/306 749/1221/306
vt 0.36666667 0.41923077
vt 0.35333333 0.41923077
vt 0.35333333 0.42307692
vt 0.36666667 0.42307692
vn 0 1 0
usemtl texture
f 750/1228/307 745/1227/307 746/1226/307 749/1225/307
vt 0.36666667 0.41923077
vt 0.35333333 0.41923077
vt 0.35333333 0.41538462
vt 0.36666667 0.41538462
vn 0 -1 0
usemtl texture
f 751/1232/308 748/1231/308 747/1230/308 752/1229/308

o cube
v 0.51625 1.0625 0.5125
v 0.51625 1.06875 0.5125
v 0.51625 1.0625 0.16875
v 0.51625 1.06875 0.16875
v 0.485 1.06875 0.5125
v 0.485 1.0625 0.5125
v 0.485 1.06875 0.16875
v 0.485 1.0625 0.16875
vt 0.26 0.36538462
vt 0.27333333 0.36538462
vt 0.27333333 0.35769231
vt 0.26 0.35769231
vn 0 1 0
usemtl texture
f 756/1236/309 759/1235/309 757/1234/309 754/1233/309
vt 0.28666667 0.36538462
vt 0.29333333 0.36538462
vt 0.29333333 0.35769231
vt 0.28666667 0.35769231
vn 1 0 0
usemtl texture
f 755/1240/310 756/1239/310 754/1238/310 753/1237/310
vt 0.27333333 0.36538462
vt 0.28666667 0.36538462
vt 0.28666667 0.35769231
vt 0.27333333 0.35769231
vn 0 -1 0
usemtl texture
f 760/1244/311 755/1243/311 753/1242/311 758/1241/311
vt 0.29333333 0.36538462
vt 0.3 0.36538462
vt 0.3 0.35769231
vt 0.29333333 0.35769231
vn -1 0 0
usemtl texture
f 759/1248/312 760/1247/312 758/1246/312 757/1245/312
vt 0.36666667 0.41923077
vt 0.35333333 0.41923077
vt 0.35333333 0.42307692
vt 0.36666667 0.42307692
vn 0 0 1
usemtl texture
f 758/1252/313 753/1251/313 754/1250/313 757/1249/313
vt 0.36666667 0.41923077
vt 0.35333333 0.41923077
vt 0.35333333 0.41538462
vt 0.36666667 0.41538462
vn 0 0 -1
usemtl texture
f 759/1256/314 756/1255/314 755/1254/314 760/1253/314

o cube
v 0.52875 1.04875 0.52875
v 0.52875 1.04875 0.48375
v 0.52875 1.02625 0.52875
v 0.52875 1.02625 0.48375
v 0.48375 1.04875 0.48375
v 0.48375 1.04875 0.52875
v 0.48375 1.02625 0.48375
v 0.48375 1.02625 0.52875
vt 0.34 0.42307692
vt 0.35333333 0.42307692
vt 0.35333333 0.41923077
vt 0.34 0.41923077
vn 0 0 -1
usemtl texture
f 764/1260/315 767/1259/315 765/1258/315 762/1257/315
vt 0.3 0.36923077
vt 0.3 0.37692308
vt 0.30666667 0.37692308
vt 0.30666667 0.36923077
vn 1 0 0
usemtl texture
f 763/1264/316 764/1263/316 762/1262/316 761/1261/316
vt 0.35333333 0.41923077
vt 0.34 0.41923077
vt 0.34 0.41538462
vt 0.35333333 0.41538462
vn 0 0 1
usemtl texture
f 768/1268/317 763/1267/317 761/1266/317 766/1265/317
vt 0.34 0.38076923
vt 0.34 0.37307692
vt 0.33333333 0.37307692
vt 0.33333333 0.38076923
vn -1 0 0
usemtl texture
f 767/1272/318 768/1271/318 766/1270/318 765/1269/318
vt 0.27333333 0.37692308
vt 0.28666667 0.37692308
vt 0.28666667 0.36923077
vt 0.27333333 0.36923077
vn 0 1 0
usemtl texture
f 766/1276/319 761/1275/319 762/1274/319 765/1273/319
vt 0.27333333 0.36923077
vt 0.26 0.36923077
vt 0.26 0.37692308
vt 0.27333333 0.37692308
vn 0 -1 0
usemtl texture
f 767/1280/320 764/1279/320 763/1278/320 768/1277/320

o cube
v 0.46125 1.00375 0.57375
v 0.46125 1.00375 0.43875
v 0.46125 0.98125 0.57375
v 0.46125 0.98125 0.43875
v 0.43875 1.00375 0.43875
v 0.43875 1.00375 0.57375
v 0.43875 0.98125 0.43875
v 0.43875 0.98125 0.57375
vt 0.34 0.41538462
vt 0.34666667 0.41538462
vt 0.34666667 0.41153846
vt 0.34 0.41153846
vn 0 0 -1
usemtl texture
f 772/1284/321 775/1283/321 773/1282/321 770/1281/321
vt 0.28666667 0.4
vt 0.28666667 0.42307692
vt 0.29333333 0.42307692
vt 0.29333333 0.4
vn 1 0 0
usemtl texture
f 771/1288/322 772/1287/322 770/1286/322 769/1285/322
vt 0.34666667 0.41153846
vt 0.34 0.41153846
vt 0.34 0.40769231
vt 0.34666667 0.40769231
vn 0 0 1
usemtl texture
f 776/1292/323 771/1291/323 769/1290/323 774/1289/323
vt 0.28666667 0.4
vt 0.28666667 0.37692308
vt 0.28 0.37692308
vt 0.28 0.4
vn -1 0 0
usemtl texture
f 775/1296/324 776/1295/324 774/1294/324 773/1293/324
vt 0.29333333 0.42307692
vt 0.3 0.42307692
vt 0.3 0.4
vt 0.29333333 0.4
vn 0 1 0
usemtl texture
f 774/1300/325 769/1299/325 770/1298/325 773/1297/325
vt 0.28666667 0.4
vt 0.28 0.4
vt 0.28 0.42307692
vt 0.28666667 0.42307692
vn 0 -1 0
usemtl texture
f 775/1304/326 772/1303/326 771/1302/326 776/1301/326

o cube
v 0.57375 1.00375 0.57375
v 0.57375 1.00375 0.43875
v 0.57375 0.98125 0.57375
v 0.57375 0.98125 0.43875
v 0.55125 1.00375 0.43875
v 0.55125 1.00375 0.57375
v 0.55125 0.98125 0.43875
v 0.55125 0.98125 0.57375
vt 0.28666667 0.37307692
vt 0.29333333 0.37307692
vt 0.29333333 0.36923077
vt 0.28666667 0.36923077
vn 0 0 -1
usemtl texture
f 780/1308/327 783/1307/327 781/1306/327 778/1305/327
vt 0.29333333 0.37692308
vt 0.29333333 0.4
vt 0.3 0.4
vt 0.3 0.37692308
vn 1 0 0
usemtl texture
f 779/1312/328 780/1311/328 778/1310/328 777/1309/328
vt 0.3 0.37307692
vt 0.29333333 0.37307692
vt 0.29333333 0.36923077
vt 0.3 0.36923077
vn 0 0 1
usemtl texture
f 784/1316/329 779/1315/329 777/1314/329 782/1313/329
vt 0.30666667 0.4
vt 0.30666667 0.37692308
vt 0.3 0.37692308
vt 0.3 0.4
vn -1 0 0
usemtl texture
f 783/1320/330 784/1319/330 782/1318/330 781/1317/330
vt 0.3 0.42307692
vt 0.30666667 0.42307692
vt 0.30666667 0.4
vt 0.3 0.4
vn 0 1 0
usemtl texture
f 782/1324/331 777/1323/331 778/1322/331 781/1321/331
vt 0.29333333 0.37692308
vt 0.28666667 0.37692308
vt 0.28666667 0.4
vt 0.29333333 0.4
vn 0 -1 0
usemtl texture
f 783/1328/332 780/1327/332 779/1326/332 784/1325/332

o cube
v 0.55125 1.00375 0.57375
v 0.55125 1.00375 0.55125
v 0.55125 0.98125 0.57375
v 0.55125 0.98125 0.55125
v 0.46125 1.00375 0.55125
v 0.46125 1.00375 0.57375
v 0.46125 0.98125 0.55125
v 0.46125 0.98125 0.57375
vt 0.30666667 0.39230769
vt 0.33333333 0.39230769
vt 0.33333333 0.38846154
vt 0.30666667 0.38846154
vn 0 0 -1
usemtl texture
f 788/1332/333 791/1331/333 789/1330/333 786/1329/333
vt 0.34 0.37692308
vt 0.34 0.38076923
vt 0.34666667 0.38076923
vt 0.34666667 0.37692308
vn 1 0 0
usemtl texture
f 787/1336/334 788/1335/334 786/1334/334 785/1333/334
vt 0.34 0.42307692
vt 0.31333333 0.42307692
vt 0.31333333 0.41923077
vt 0.34 0.41923077
vn 0 0 1
usemtl texture
f 792/1340/335 787/1339/335 785/1338/335 790/1337/335
vt 0.34 0.37307692
vt 0.34 0.36923077
vt 0.33333333 0.36923077
vt 0.33333333 0.37307692
vn -1 0 0
usemtl texture
f 791/1344/336 792/1343/336 790/1342/336 789/1341/336
vt 0.30666667 0.39615385
vt 0.33333333 0.39615385
vt 0.33333333 0.39230769
vt 0.30666667 0.39230769
vn 0 1 0
usemtl texture
f 790/1348/337 785/1347/337 786/1346/337 789/1345/337
vt 0.33333333 0.39615385
vt 0.30666667 0.39615385
vt 0.30666667 0.4
vt 0.33333333 0.4
vn 0 -1 0
usemtl texture
f 791/1352/338 788/1351/338 787/1350/338 792/1349/338

o cube
v 0.55125 1.00375 0.46125
v 0.55125 1.00375 0.43875
v 0.55125 0.98125 0.46125
v 0.55125 0.98125 0.43875
v 0.46125 1.00375 0.43875
v 0.46125 1.00375 0.46125
v 0.46125 0.98125 0.43875
v 0.46125 0.98125 0.46125
vt 0.31333333 0.41153846
vt 0.34 0.41153846
vt 0.34 0.40769231
vt 0.31333333 0.40769231
vn 0 0 -1
usemtl texture
f 796/1356/339 799/1355/339 797/1354/339 794/1353/339
vt 0.34 0.37307692
vt 0.34 0.37692308
vt 0.34666667 0.37692308
vt 0.34666667 0.37307692
vn 1 0 0
usemtl texture
f 795/1360/340 796/1359/340 794/1358/340 793/1357/340
vt 0.33333333 0.38846154
vt 0.30666667 0.38846154
vt 0.30666667 0.38461538
vt 0.33333333 0.38461538
vn 0 0 1
usemtl texture
f 800/1364/341 795/1363/341 793/1362/341 798/1361/341
vt 0.34666667 0.37307692
vt 0.34666667 0.36923077
vt 0.34 0.36923077
vt 0.34 0.37307692
vn -1 0 0
usemtl texture
f 799/1368/342 800/1367/342 798/1366/342 797/1365/342
vt 0.31333333 0.41538462
vt 0.34 0.41538462
vt 0.34 0.41153846
vt 0.31333333 0.41153846
vn 0 1 0
usemtl texture
f 798/1372/343 793/1371/343 794/1370/343 797/1369/343
vt 0.34 0.41538462
vt 0.31333333 0.41538462
vt 0.31333333 0.41923077
vt 0.34 0.41923077
vn 0 -1 0
usemtl texture
f 799/1376/344 796/1375/344 795/1374/344 800/1373/344

o cube
v 0.55125 1.02625 0.55125
v 0.55125 1.02625 0.46125
v 0.55125 1.00375 0.55125
v 0.55125 1.00375 0.46125
v 0.52875 1.02625 0.46125
v 0.52875 1.02625 0.55125
v 0.52875 1.00375 0.46125
v 0.52875 1.00375 0.55125
vt 0.26 0.36923077
vt 0.26666667 0.36923077
vt 0.26666667 0.36538462
vt 0.26 0.36538462
vn 0 0 -1
usemtl texture
f 804/1380/345 807/1379/345 805/1378/345 802/1377/345
vt 0.25333333 0.36153846
vt 0.25333333 0.37692308
vt 0.26 0.37692308
vt 0.26 0.36153846
vn 1 0 0
usemtl texture
f 803/1384/346 804/1383/346 802/1382/346 801/1381/346
vt 0.27333333 0.36923077
vt 0.26666667 0.36923077
vt 0.26666667 0.36538462
vt 0.27333333 0.36538462
vn 0 0 1
usemtl texture
f 808/1388/347 803/1387/347 801/1386/347 806/1385/347
vt 0.31333333 0.38461538
vt 0.31333333 0.36923077
vt 0.30666667 0.36923077
vt 0.30666667 0.38461538
vn -1 0 0
usemtl texture
f 807/1392/348 808/1391/348 806/1390/348 805/1389/348
vt 0.27333333 0.39230769
vt 0.28 0.39230769
vt 0.28 0.37692308
vt 0.27333333 0.37692308
vn 0 1 0
usemtl texture
f 806/1396/349 801/1395/349 802/1394/349 805/1393/349
vt 0.26666667 0.37692308
vt 0.26 0.37692308
vt 0.26 0.39230769
vt 0.26666667 0.39230769
vn 0 -1 0
usemtl texture
f 807/1400/350 804/1399/350 803/1398/350 808/1397/350

o cube
v 0.48375 1.02625 0.55125
v 0.48375 1.02625 0.46125
v 0.48375 1.00375 0.55125
v 0.48375 1.00375 0.46125
v 0.46125 1.02625 0.46125
v 0.46125 1.02625 0.55125
v 0.46125 1.00375 0.46125
v 0.46125 1.00375 0.55125
vt 0.34666667 0.41538462
vt 0.35333333 0.41538462
vt 0.35333333 0.41153846
vt 0.34666667 0.41153846
vn 0 0 -1
usemtl texture
f 812/1404/351 815/1403/351 813/1402/351 810/1401/351
vt 0.32 0.36923077
vt 0.32 0.38461538
vt 0.32666667 0.38461538
vt 0.32666667 0.36923077
vn 1 0 0
usemtl texture
f 811/1408/352 812/1407/352 810/1406/352 809/1405/352
vt 0.28 0.36923077
vt 0.27333333 0.36923077
vt 0.27333333 0.36538462
vt 0.28 0.36538462
vn 0 0 1
usemtl texture
f 816/1412/353 811/1411/353 809/1410/353 814/1409/353
vt 0.26 0.37692308
vt 0.26 0.36153846
vt 0.25333333 0.36153846
vt 0.25333333 0.37692308
vn -1 0 0
usemtl texture
f 815/1416/354 816/1415/354 814/1414/354 813/1413/354
vt 0.32666667 0.38461538
vt 0.33333333 0.38461538
vt 0.33333333 0.36923077
vt 0.32666667 0.36923077
vn 0 1 0
usemtl texture
f 814/1420/355 809/1419/355 810/1418/355 813/1417/355
vt 0.32 0.36923077
vt 0.31333333 0.36923077
vt 0.31333333 0.38461538
vt 0.32 0.38461538
vn 0 -1 0
usemtl texture
f 815/1424/356 812/1423/356 811/1422/356 816/1421/356

o cube
v 0.52875 1.02625 0.55125
v 0.52875 1.02625 0.52875
v 0.52875 1.00375 0.55125
v 0.52875 1.00375 0.52875
v 0.48375 1.02625 0.52875
v 0.48375 1.02625 0.55125
v 0.48375 1.00375 0.52875
v 0.48375 1.00375 0.55125
vt 0.33333333 0.40384615
vt 0.34666667 0.40384615
vt 0.34666667 0.4
vt 0.33333333 0.4
vn 0 0 -1
usemtl texture
f 820/1428/357 823/1427/357 821/1426/357 818/1425/357
vt 0.34666667 0.40769231
vt 0.34666667 0.41153846
vt 0.35333333 0.41153846
vt 0.35333333 0.40769231
vn 1 0 0
usemtl texture
f 819/1432/358 820/1431/358 818/1430/358 817/1429/358
vt 0.34666667 0.4
vt 0.33333333 0.4
vt 0.33333333 0.39615385
vt 0.34666667 0.39615385
vn 0 0 1
usemtl texture
f 824/1436/359 819/1435/359 817/1434/359 822/1433/359
vt 0.28666667 0.36923077
vt 0.28666667 0.36538462
vt 0.28 0.36538462
vt 0.28 0.36923077
vn -1 0 0
usemtl texture
f 823/1440/360 824/1439/360 822/1438/360 821/1437/360
vt 0.28666667 0.37692308
vt 0.3 0.37692308
vt 0.3 0.37307692
vt 0.28666667 0.37307692
vn 0 1 0
usemtl texture
f 822/1444/361 817/1443/361 818/1442/361 821/1441/361
vt 0.34666667 0.40384615
vt 0.33333333 0.40384615
vt 0.33333333 0.40769231
vt 0.34666667 0.40769231
vn 0 -1 0
usemtl texture
f 823/1448/362 820/1447/362 819/1446/362 824/1445/362

o cube
v 0.52875 1.02625 0.48375
v 0.52875 1.02625 0.46125
v 0.52875 1.00375 0.48375
v 0.52875 1.00375 0.46125
v 0.48375 1.02625 0.46125
v 0.48375 1.02625 0.48375
v 0.48375 1.00375 0.46125
v 0.48375 1.00375 0.48375
vt 0.33333333 0.38846154
vt 0.34666667 0.38846154
vt 0.34666667 0.38461538
vt 0.33333333 0.38461538
vn 0 0 -1
usemtl texture
f 828/1452/363 831/1451/363 829/1450/363 826/1449/363
vt 0.34666667 0.40384615
vt 0.34666667 0.40769231
vt 0.35333333 0.40769231
vt 0.35333333 0.40384615
vn 1 0 0
usemtl texture
f 827/1456/364 828/1455/364 826/1454/364 825/1453/364
vt 0.34666667 0.38461538
vt 0.33333333 0.38461538
vt 0.33333333 0.38076923
vt 0.34666667 0.38076923
vn 0 0 1
usemtl texture
f 832/1460/365 827/1459/365 825/1458/365 830/1457/365
vt 0.29333333 0.36923077
vt 0.29333333 0.36538462
vt 0.28666667 0.36538462
vt 0.28666667 0.36923077
vn -1 0 0
usemtl texture
f 831/1464/366 832/1463/366 830/1462/366 829/1461/366
vt 0.33333333 0.39230769
vt 0.34666667 0.39230769
vt 0.34666667 0.38846154
vt 0.33333333 0.38846154
vn 0 1 0
usemtl texture
f 830/1468/367 825/1467/367 826/1466/367 829/1465/367
vt 0.34666667 0.39230769
vt 0.33333333 0.39230769
vt 0.33333333 0.39615385
vt 0.34666667 0.39615385
vn 0 -1 0
usemtl texture
f 831/1472/368 828/1471/368 827/1470/368 832/1469/368

o cube
v 0.5625 0.53125 0.825
v 0.5625 0.53125 0.78125
v 0.4375 0.53125 0.825
v 0.4375 0.53125 0.78125
v 0.5625 0.6875 0.78125
v 0.5625 0.6875 0.825
v 0.4375 0.6875 0.78125
v 0.4375 0.6875 0.825
vt 0.25333333 0.42307692
vt 0.28666667 0.42307692
vt 0.28666667 0.41538462
vt 0.25333333 0.41538462
vn 0 0 -1
usemtl texture
f 836/1476/369 839/1475/369 837/1474/369 834/1473/369
vt 0.25333333 0.39230769
vt 0.26 0.39230769
vt 0.26 0.37692308
vt 0.25333333 0.37692308
vn 0 -1 0
usemtl texture
f 835/1480/370 836/1479/370 834/1478/370 833/1477/370
vt 0.25333333 0.41538462
vt 0.28666667 0.41538462
vt 0.28666667 0.40769231
vt 0.25333333 0.40769231
vn 0 0 1
usemtl texture
f 840/1484/371 835/1483/371 833/1482/371 838/1481/371
vt 0.30666667 0.42307692
vt 0.31333333 0.42307692
vt 0.31333333 0.40769231
vt 0.30666667 0.40769231
vn 0 1 0
usemtl texture
f 839/1488/372 840/1487/372 838/1486/372 837/1485/372
vt 0.33333333 0.40384615
vt 0.30666667 0.40384615
vt 0.30666667 0.40769231
vt 0.33333333 0.40769231
vn 1 0 0
usemtl texture
f 838/1492/373 833/1491/373 834/1490/373 837/1489/373
vt 0.33333333 0.40384615
vt 0.30666667 0.40384615
vt 0.30666667 0.4
vt 0.33333333 0.4
vn -1 0 0
usemtl texture
f 839/1496/374 836/1495/374 835/1494/374 840/1493/374

o cube
v 0.625 0.90625 0.84375
v 0.625 0.90625 0.78125
v 0.625 0.65625 0.84375
v 0.625 0.65625 0.78125
v 0.375 0.90625 0.78125
v 0.375 0.90625 0.84375
v 0.375 0.65625 0.78125
v 0.375 0.65625 0.84375
vt 0.25333333 0.42307692
vt 0.28 0.42307692
vt 0.28 0.40769231
vt 0.25333333 0.40769231
vn 0 0 -1
usemtl texture
f 844/1500/375 847/1499/375 845/1498/375 842/1497/375
vt 0.25333333 0.39230769
vt 0.26 0.39230769
vt 0.26 0.37692308
vt 0.25333333 0.37692308
vn 1 0 0
usemtl texture
f 843/1504/376 844/1503/376 842/1502/376 841/1501/376
vt 0.25333333 0.40769231
vt 0.28 0.40769231
vt 0.28 0.39230769
vt 0.25333333 0.39230769
vn 0 0 1
usemtl texture
f 848/1508/377 843/1507/377 841/1506/377 846/1505/377
vt 0.30666667 0.42307692
vt 0.31333333 0.42307692
vt 0.31333333 0.40769231
vt 0.30666667 0.40769231
vn -1 0 0
usemtl texture
f 847/1512/378 848/1511/378 846/1510/378 845/1509/378
vt 0.33333333 0.40384615
vt 0.30666667 0.40384615
vt 0.30666667 0.40769231
vt 0.33333333 0.40769231
vn 0 1 0
usemtl texture
f 846/1516/379 841/1515/379 842/1514/379 845/1513/379
vt 0.33333333 0.40384615
vt 0.30666667 0.40384615
vt 0.30666667 0.4
vt 0.33333333 0.4
vn 0 -1 0
usemtl texture
f 847/1520/380 844/1519/380 843/1518/380 848/1517/380

o cube
v 0.5625 0.90625 0.825
v 0.5625 0.90625 0.78125
v 0.4375 0.90625 0.825
v 0.4375 0.90625 0.78125
v 0.5625 1.0625 0.78125
v 0.5625 1.0625 0.825
v 0.4375 1.0625 0.78125
v 0.4375 1.0625 0.825
vt 0.25333333 0.42307692
vt 0.28666667 0.42307692
vt 0.28666667 0.41538462
vt 0.25333333 0.41538462
vn 0 0 -1
usemtl texture
f 852/1524/381 855/1523/381 853/1522/381 850/1521/381
vt 0.25333333 0.39230769
vt 0.26 0.39230769
vt 0.26 0.37692308
vt 0.25333333 0.37692308
vn 0 -1 0
usemtl texture
f 851/1528/382 852/1527/382 850/1526/382 849/1525/382
vt 0.25333333 0.41538462
vt 0.28666667 0.41538462
vt 0.28666667 0.40769231
vt 0.25333333 0.40769231
vn 0 0 1
usemtl texture
f 856/1532/383 851/1531/383 849/1530/383 854/1529/383
vt 0.30666667 0.42307692
vt 0.31333333 0.42307692
vt 0.31333333 0.40769231
vt 0.30666667 0.40769231
vn 0 1 0
usemtl texture
f 855/1536/384 856/1535/384 854/1534/384 853/1533/384
vt 0.33333333 0.40384615
vt 0.30666667 0.40384615
vt 0.30666667 0.40769231
vt 0.33333333 0.40769231
vn 1 0 0
usemtl texture
f 854/1540/385 849/1539/385 850/1538/385 853/1537/385
vt 0.33333333 0.40384615
vt 0.30666667 0.40384615
vt 0.30666667 0.4
vt 0.33333333 0.4
vn -1 0 0
usemtl texture
f 855/1544/386 852/1543/386 851/1542/386 856/1541/386

o cube
v 0.51625 1.0625 0.83125
v 0.51625 1.06875 0.83125
v 0.51625 1.0625 0.5125
v 0.51625 1.06875 0.5125
v 0.485 1.06875 0.83125
v 0.485 1.0625 0.83125
v 0.485 1.06875 0.5125
v 0.485 1.0625 0.5125
vt 0.26 0.36538462
vt 0.27333333 0.36538462
vt 0.27333333 0.35769231
vt 0.26 0.35769231
vn 0 1 0
usemtl texture
f 860/1548/387 863/1547/387 861/1546/387 858/1545/387
vt 0.28666667 0.36538462
vt 0.29333333 0.36538462
vt 0.29333333 0.35769231
vt 0.28666667 0.35769231
vn 1 0 0
usemtl texture
f 859/1552/388 860/1551/388 858/1550/388 857/1549/388
vt 0.27333333 0.36538462
vt 0.28666667 0.36538462
vt 0.28666667 0.35769231
vt 0.27333333 0.35769231
vn 0 -1 0
usemtl texture
f 864/1556/389 859/1555/389 857/1554/389 862/1553/389
vt 0.29333333 0.36538462
vt 0.3 0.36538462
vt 0.3 0.35769231
vt 0.29333333 0.35769231
vn -1 0 0
usemtl texture
f 863/1560/390 864/1559/390 862/1558/390 861/1557/390
vt 0.36666667 0.41923077
vt 0.35333333 0.41923077
vt 0.35333333 0.42307692
vt 0.36666667 0.42307692
vn 0 0 1
usemtl texture
f 862/1564/391 857/1563/391 858/1562/391 861/1561/391
vt 0.36666667 0.41923077
vt 0.35333333 0.41923077
vt 0.35333333 0.41538462
vt 0.36666667 0.41538462
vn 0 0 -1
usemtl texture
f 863/1568/392 860/1567/392 859/1566/392 864/1565/392

o cube
v 0.485 1.0625 0.825
v 0.485 1.0625 0.83125
v 0.485 0.90625 0.825
v 0.485 0.90625 0.83125
v 0.51625 1.0625 0.83125
v 0.51625 1.0625 0.825
v 0.51625 0.90625 0.83125
v 0.51625 0.90625 0.825
vt 0.26 0.36538462
vt 0.27333333 0.36538462
vt 0.27333333 0.35769231
vt 0.26 0.35769231
vn 0 0 1
usemtl texture
f 868/1572/393 871/1571/393 869/1570/393 866/1569/393
vt 0.28666667 0.36538462
vt 0.29333333 0.36538462
vt 0.29333333 0.35769231
vt 0.28666667 0.35769231
vn -1 0 0
usemtl texture
f 867/1576/394 868/1575/394 866/1574/394 865/1573/394
vt 0.27333333 0.36538462
vt 0.28666667 0.36538462
vt 0.28666667 0.35769231
vt 0.27333333 0.35769231
vn 0 0 -1
usemtl texture
f 872/1580/395 867/1579/395 865/1578/395 870/1577/395
vt 0.29333333 0.36538462
vt 0.3 0.36538462
vt 0.3 0.35769231
vt 0.29333333 0.35769231
vn 1 0 0
usemtl texture
f 871/1584/396 872/1583/396 870/1582/396 869/1581/396
vt 0.36666667 0.41923077
vt 0.35333333 0.41923077
vt 0.35333333 0.42307692
vt 0.36666667 0.42307692
vn 0 1 0
usemtl texture
f 870/1588/397 865/1587/397 866/1586/397 869/1585/397
vt 0.36666667 0.41923077
vt 0.35333333 0.41923077
vt 0.35333333 0.41538462
vt 0.36666667 0.41538462
vn 0 -1 0
usemtl texture
f 871/1592/398 868/1591/398 867/1590/398 872/1589/398

o cube
v 0.51625 0.65625 0.175
v 0.51625 0.65625 0.16875
v 0.51625 0.5 0.175
v 0.51625 0.5 0.16875
v 0.485 0.65625 0.16875
v 0.485 0.65625 0.175
v 0.485 0.5 0.16875
v 0.485 0.5 0.175
vt 0.26 0.36538462
vt 0.27333333 0.36538462
vt 0.27333333 0.35769231
vt 0.26 0.35769231
vn 0 0 -1
usemtl texture
f 876/1596/399 879/1595/399 877/1594/399 874/1593/399
vt 0.28666667 0.36538462
vt 0.29333333 0.36538462
vt 0.29333333 0.35769231
vt 0.28666667 0.35769231
vn 1 0 0
usemtl texture
f 875/1600/400 876/1599/400 874/1598/400 873/1597/400
vt 0.27333333 0.36538462
vt 0.28666667 0.36538462
vt 0.28666667 0.35769231
vt 0.27333333 0.35769231
vn 0 0 1
usemtl texture
f 880/1604/401 875/1603/401 873/1602/401 878/1601/401
vt 0.29333333 0.36538462
vt 0.3 0.36538462
vt 0.3 0.35769231
vt 0.29333333 0.35769231
vn -1 0 0
usemtl texture
f 879/1608/402 880/1607/402 878/1606/402 877/1605/402
vt 0.36666667 0.41923077
vt 0.35333333 0.41923077
vt 0.35333333 0.42307692
vt 0.36666667 0.42307692
vn 0 1 0
usemtl texture
f 878/1612/403 873/1611/403 874/1610/403 877/1609/403
vt 0.36666667 0.41923077
vt 0.35333333 0.41923077
vt 0.35333333 0.41538462
vt 0.36666667 0.41538462
vn 0 -1 0
usemtl texture
f 879/1616/404 876/1615/404 875/1614/404 880/1613/404

o cube
v 0.485 0.65625 0.825
v 0.485 0.65625 0.83125
v 0.485 0.5 0.825
v 0.485 0.5 0.83125
v 0.51625 0.65625 0.83125
v 0.51625 0.65625 0.825
v 0.51625 0.5 0.83125
v 0.51625 0.5 0.825
vt 0.26 0.36538462
vt 0.27333333 0.36538462
vt 0.27333333 0.35769231
vt 0.26 0.35769231
vn 0 0 1
usemtl texture
f 884/1620/405 887/1619/405 885/1618/405 882/1617/405
vt 0.28666667 0.36538462
vt 0.29333333 0.36538462
vt 0.29333333 0.35769231
vt 0.28666667 0.35769231
vn -1 0 0
usemtl texture
f 883/1624/406 884/1623/406 882/1622/406 881/1621/406
vt 0.27333333 0.36538462
vt 0.28666667 0.36538462
vt 0.28666667 0.35769231
vt 0.27333333 0.35769231
vn 0 0 -1
usemtl texture
f 888/1628/407 883/1627/407 881/1626/407 886/1625/407
vt 0.29333333 0.36538462
vt 0.3 0.36538462
vt 0.3 0.35769231
vt 0.29333333 0.35769231
vn 1 0 0
usemtl texture
f 887/1632/408 888/1631/408 886/1630/408 885/1629/408
vt 0.36666667 0.41923077
vt 0.35333333 0.41923077
vt 0.35333333 0.42307692
vt 0.36666667 0.42307692
vn 0 1 0
usemtl texture
f 886/1636/409 881/1635/409 882/1634/409 885/1633/409
vt 0.36666667 0.41923077
vt 0.35333333 0.41923077
vt 0.35333333 0.41538462
vt 0.36666667 0.41538462
vn 0 -1 0
usemtl texture
f 887/1640/410 884/1639/410 883/1638/410 888/1637/410

