# Converted from Blockbench for Create Echo Radars
mtllib mechanical_scanning_sonar_rotating.mtl

o cube
v 0.54580833 0.79714506 0.62555
v 0.54580833 0.79714506 0.50055
v 0.68931462 0.45069023 0.62555
v 0.68931462 0.45069023 0.50055
v 0.43032339 0.74930963 0.50055
v 0.43032339 0.74930963 0.62555
v 0.57382968 0.4028548 0.50055
v 0.57382968 0.4028548 0.62555
vt 0 0.3125
vt 0 0.25
vt 0.25 0.25
vt 0.25 0.3125
vn 0 0 -1
usemtl texture_1
f 4/4/1 7/3/1 5/2/1 2/1/1
vt 0.4375 0.8125
vt 0.4375 0.875
vt 0.6875 0.875
vt 0.6875 0.8125
vn 0.92387953 0.38268343 0
usemtl texture_1
f 3/8/2 4/7/2 2/6/2 1/5/2
vt 0.4375 0.9375
vt 0.4375 1
vt 0.6875 1
vt 0.6875 0.9375
vn 0 0 1
usemtl texture_1
f 8/12/3 3/11/3 1/10/3 6/9/3
vt 0.25 0.3125
vt 0.25 0.375
vt 0 0.375
vt 0 0.3125
vn -0.92387953 -0.38268343 0
usemtl texture_1
f 7/16/4 8/15/4 6/14/4 5/13/4
vt 0.5625 0.375
vt 0.5 0.375
vt 0.5 0.4375
vt 0.5625 0.4375
vn -0.38268343 0.92387953 0
usemtl texture_1
f 6/20/5 1/19/5 2/18/5 5/17/5
vt 0.5625 0.5
vt 0.625 0.5
vt 0.625 0.4375
vt 0.5625 0.4375
vn 0.38268343 -0.92387953 0
usemtl texture_1
f 7/24/6 4/23/6 3/22/6 8/21/6

o cube
v 0.5625 0.625 0.5625
v 0.5625 0.625 0.4375
v 0.5625 0.3125 0.5625
v 0.5625 0.3125 0.4375
v 0.4375 0.625 0.4375
v 0.4375 0.625 0.5625
v 0.4375 0.3125 0.4375
v 0.4375 0.3125 0.5625
vt 0.6875 1
vt 0.75 1
vt 0.75 0.84375
vt 0.6875 0.84375
vn 0 0 -1
usemtl texture_1
f 12/28/7 15/27/7 13/26/7 10/25/7
vt 0.6875 1
vt 0.75 1
vt 0.75 0.84375
vt 0.6875 0.84375
vn 1 0 0
usemtl texture_1
f 11/32/8 12/31/8 10/30/8 9/29/8
vt 0.6875 1
vt 0.75 1
vt 0.75 0.84375
vt 0.6875 0.84375
vn 0 0 1
usemtl texture_1
f 16/36/9 11/35/9 9/34/9 14/33/9
vt 0.6875 1
vt 0.75 1
vt 0.75 0.84375
vt 0.6875 0.84375
vn -1 0 0
usemtl texture_1
f 15/40/10 16/39/10 14/38/10 13/37/10
vt 0.6875 0.78125
vt 0.6875 0.84375
vt 0.75 0.84375
vt 0.75 0.78125
vn 0 1 0
usemtl texture_1
f 14/44/11 9/43/11 10/42/11 13/41/11
vt 0.75 0.84375
vt 0.75 0.78125
vt 0.6875 0.78125
vt 0.6875 0.84375
vn 0 -1 0
usemtl texture_1
f 15/48/12 12/47/12 11/46/12 16/45/12

o cube
v 0.54542954 0.79698816 0.503125
v 0.54542954 0.79698816 0.378125
v 0.68893583 0.45053333 0.503125
v 0.68893583 0.45053333 0.378125
v 0.4299446 0.74915273 0.378125
v 0.4299446 0.74915273 0.503125
v 0.57345088 0.4026979 0.378125
v 0.57345088 0.4026979 0.503125
vt 0.4375 0.8125
vt 0.4375 0.875
vt 0.6875 0.875
vt 0.6875 0.8125
vn 0 0 -1
usemtl texture_1
f 20/52/13 23/51/13 21/50/13 18/49/13
vt 0.6875 1
vt 0.6875 0.9375
vt 0.4375 0.9375
vt 0.4375 1
vn 0.92387953 0.38268343 0
usemtl texture_1
f 19/56/14 20/55/14 18/54/14 17/53/14
vt 0.6875 0.875
vt 0.6875 0.8125
vt 0.4375 0.8125
vt 0.4375 0.875
vn 0 0 1
usemtl texture_1
f 24/60/15 19/59/15 17/58/15 22/57/15
vt 0 0.3125
vt 0 0.375
vt 0.25 0.375
vt 0.25 0.3125
vn -0.92387953 -0.38268343 0
usemtl texture_1
f 23/64/16 24/63/16 22/62/16 21/61/16
vt 0.625 0.4375
vt 0.5625 0.4375
vt 0.5625 0.5
vt 0.625 0.5
vn -0.38268343 0.92387953 0
usemtl texture_1
f 22/68/17 17/67/17 18/66/17 21/65/17
vt 0.5 0.4375
vt 0.5625 0.4375
vt 0.5625 0.375
vt 0.5 0.375
vn 0.38268343 -0.92387953 0
usemtl texture_1
f 23/72/18 20/71/18 19/70/18 24/69/18
