# Converted from Blockbench for Create Echo Radars
mtllib signal_summator.mtl

o cube
v 1 1 1
v 1 1 0.625
v 1 0 1
v 1 0 0.625
v 0 1 0.625
v 0 1 1
v 0 0 0.625
v 0 0 1
vt 0 1
vt 0.25 1
vt 0.25 0.75
vt 0 0.75
vn 0 0 -1
usemtl texture_0
f 4/4/1 7/3/1 5/2/1 2/1/1
vt 0 0.75
vt 0.09375 0.75
vt 0.09375 0.5
vt 0 0.5
vn 1 0 0
usemtl texture_0
f 3/8/2 4/7/2 2/6/2 1/5/2
vt 0 1
vt 0.25 1
vt 0.25 0.75
vt 0 0.75
vn 0 0 1
usemtl texture_0
f 8/12/3 3/11/3 1/10/3 6/9/3
vt 0.09375 0.75
vt 0 0.75
vt 0 0.5
vt 0.09375 0.5
vn -1 0 0
usemtl texture_0
f 7/16/4 8/15/4 6/14/4 5/13/4
vt 0.5 0.90625
vt 0.25 0.90625
vt 0.25 1
vt 0.5 1
vn 0 1 0
usemtl texture_0
f 6/20/5 1/19/5 2/18/5 5/17/5
vt 0.34375 0.75
vt 0.09375 0.75
vt 0.09375 0.65625
vt 0.34375 0.65625
vn 0 -1 0
usemtl texture_0
f 7/24/6 4/23/6 3/22/6 8/21/6

o cube
v 0.9375 0.9375 0.625
v 0.9375 0.9375 0.5625
v 0.9375 0.8125 0.625
v 0.9375 0.8125 0.5625
v 0.8125 0.9375 0.5625
v 0.8125 0.9375 0.625
v 0.8125 0.8125 0.5625
v 0.8125 0.8125 0.625
vt 0.4375 0.90625
vt 0.46875 0.90625
vt 0.46875 0.875
vt 0.4375 0.875
vn 0 0 -1
usemtl texture_0
f 12/28/7 15/27/7 13/26/7 10/25/7
vt 0.1875 0.546875
vt 0.203125 0.546875
vt 0.203125 0.515625
vt 0.1875 0.515625
vn 1 0 0
usemtl texture_0
f 11/32/8 12/31/8 10/30/8 9/29/8
vt 0.4375 0.875
vt 0.46875 0.875
vt 0.46875 0.84375
vt 0.4375 0.84375
vn 0 0 1
usemtl texture_0
f 16/36/9 11/35/9 9/34/9 14/33/9
vt 0.203125 0.546875
vt 0.21875 0.546875
vt 0.21875 0.515625
vt 0.203125 0.515625
vn -1 0 0
usemtl texture_0
f 15/40/10 16/39/10 14/38/10 13/37/10
vt 0.328125 0.75
vt 0.296875 0.75
vt 0.296875 0.765625
vt 0.328125 0.765625
vn 0 1 0
usemtl texture_0
f 14/44/11 9/43/11 10/42/11 13/41/11
vt 0.421875 0.78125
vt 0.390625 0.78125
vt 0.390625 0.765625
vt 0.421875 0.765625
vn 0 -1 0
usemtl texture_0
f 15/48/12 12/47/12 11/46/12 16/45/12

o cube
v 0.75 0.9375 0.625
v 0.75 0.9375 0.5625
v 0.75 0.8125 0.625
v 0.75 0.8125 0.5625
v 0.625 0.9375 0.5625
v 0.625 0.9375 0.625
v 0.625 0.8125 0.5625
v 0.625 0.8125 0.625
vt 0.4375 0.84375
vt 0.46875 0.84375
vt 0.46875 0.8125
vt 0.4375 0.8125
vn 0 0 -1
usemtl texture_0
f 20/52/13 23/51/13 21/50/13 18/49/13
vt 0.21875 0.546875
vt 0.234375 0.546875
vt 0.234375 0.515625
vt 0.21875 0.515625
vn 1 0 0
usemtl texture_0
f 19/56/14 20/55/14 18/54/14 17/53/14
vt 0.4375 0.875
vt 0.46875 0.875
vt 0.46875 0.84375
vt 0.4375 0.84375
vn 0 0 1
usemtl texture_0
f 24/60/15 19/59/15 17/58/15 22/57/15
vt 0.234375 0.546875
vt 0.25 0.546875
vt 0.25 0.515625
vt 0.234375 0.515625
vn -1 0 0
usemtl texture_0
f 23/64/16 24/63/16 22/62/16 21/61/16
vt 0.453125 0.765625
vt 0.421875 0.765625
vt 0.421875 0.78125
vt 0.453125 0.78125
vn 0 1 0
usemtl texture_0
f 22/68/17 17/67/17 18/66/17 21/65/17
vt 0.484375 0.78125
vt 0.453125 0.78125
vt 0.453125 0.765625
vt 0.484375 0.765625
vn 0 -1 0
usemtl texture_0
f 23/72/18 20/71/18 19/70/18 24/69/18

o cube
v 1 0.1875 0.625
v 1 0.1875 0.375
v 1 0 0.625
v 1 0 0.375
v 0 0.1875 0.375
v 0 0.1875 0.625
v 0 0 0.375
v 0 0 0.625
vt 0.34375 0.765625
vt 0.59375 0.765625
vt 0.59375 0.71875
vt 0.34375 0.71875
vn 0 0 -1
usemtl texture_0
f 28/76/19 31/75/19 29/74/19 26/73/19
vt 0.15625 0.59375
vt 0.21875 0.59375
vt 0.21875 0.546875
vt 0.15625 0.546875
vn 1 0 0
usemtl texture_0
f 27/80/20 28/79/20 26/78/20 25/77/20
vt 0.34375 0.765625
vt 0.59375 0.765625
vt 0.59375 0.71875
vt 0.34375 0.71875
vn 0 0 1
usemtl texture_0
f 32/84/21 27/83/21 25/82/21 30/81/21
vt 0.21875 0.59375
vt 0.28125 0.59375
vt 0.28125 0.546875
vt 0.21875 0.546875
vn -1 0 0
usemtl texture_0
f 31/88/22 32/87/22 30/86/22 29/85/22
vt 0.34375 0.59375
vt 0.09375 0.59375
vt 0.09375 0.65625
vt 0.34375 0.65625
vn 0 1 0
usemtl texture_0
f 30/92/23 25/91/23 26/90/23 29/89/23
vt 0.34375 0.65625
vt 0.09375 0.65625
vt 0.09375 0.59375
vt 0.34375 0.59375
vn 0 -1 0
usemtl texture_0
f 31/96/24 28/95/24 27/94/24 32/93/24

o cube
v 0.625 0.65698712 0.74766053
v 0.625 0.70482255 0.63217558
v 0.625 0.13730489 0.53240109
v 0.625 0.18514032 0.41691615
v 0.0625 0.70482255 0.63217558
v 0.0625 0.65698712 0.74766053
v 0.0625 0.18514032 0.41691615
v 0.0625 0.13730489 0.53240109
vt 0.25 0.90625
vt 0.390625 0.90625
vt 0.390625 0.765625
vt 0.25 0.765625
vn 0 0.38268343 -0.92387953
usemtl texture_0
f 36/100/25 39/99/25 37/98/25 34/97/25
vt 0.34375 0.71875
vt 0.375 0.71875
vt 0.375 0.578125
vt 0.34375 0.578125
vn 1 0 0
usemtl texture_0
f 35/104/26 36/103/26 34/102/26 33/101/26
vt 0.25 0.90625
vt 0.390625 0.90625
vt 0.390625 0.765625
vt 0.25 0.765625
vn 0 -0.38268343 0.92387953
usemtl texture_0
f 40/108/27 35/107/27 33/106/27 38/105/27
vt 0.34375 0.71875
vt 0.375 0.71875
vt 0.375 0.578125
vt 0.34375 0.578125
vn -1 0 0
usemtl texture_0
f 39/112/28 40/111/28 38/110/28 37/109/28
vt 0.515625 0.6875
vt 0.375 0.6875
vt 0.375 0.71875
vt 0.515625 0.71875
vn 0 0.92387953 0.38268343
usemtl texture_0
f 38/116/29 33/115/29 34/114/29 37/113/29
vt 0.515625 0.71875
vt 0.375 0.71875
vt 0.375 0.6875
vt 0.515625 0.6875
vn 0 -0.92387953 -0.38268343
usemtl texture_0
f 39/120/30 36/119/30 35/118/30 40/117/30

o cube
v 0.0625 0.6875 0.625
v 0.0625 0.6875 0.5
v 0.0625 0.1875 0.625
v 0.0625 0.1875 0.5
v 0 0.6875 0.5
v 0 0.6875 0.625
v 0 0.1875 0.5
v 0 0.1875 0.625
vt 0.40625 0.6875
vt 0.421875 0.6875
vt 0.421875 0.5625
vt 0.40625 0.5625
vn 0 0 -1
usemtl texture_0
f 44/124/31 47/123/31 45/122/31 42/121/31
vt 0.375 0.6875
vt 0.40625 0.6875
vt 0.40625 0.5625
vt 0.375 0.5625
vn 1 0 0
usemtl texture_0
f 43/128/32 44/127/32 42/126/32 41/125/32
vt 0.40625 0.6875
vt 0.421875 0.6875
vt 0.421875 0.5625
vt 0.40625 0.5625
vn 0 0 1
usemtl texture_0
f 48/132/33 43/131/33 41/130/33 46/129/33
vt 0.390625 0.90625
vt 0.421875 0.90625
vt 0.421875 0.78125
vt 0.390625 0.78125
vn -1 0 0
usemtl texture_0
f 47/136/34 48/135/34 46/134/34 45/133/34
vt 0.265625 0.515625
vt 0.25 0.515625
vt 0.25 0.546875
vt 0.265625 0.546875
vn 0 1 0
usemtl texture_0
f 46/140/35 41/139/35 42/138/35 45/137/35
vt 0.28125 0.546875
vt 0.265625 0.546875
vt 0.265625 0.515625
vt 0.28125 0.515625
vn 0 -1 0
usemtl texture_0
f 47/144/36 44/143/36 43/142/36 48/141/36

o cube
v 0.6875 0.6875 0.625
v 0.6875 0.6875 0.5
v 0.6875 0.1875 0.625
v 0.6875 0.1875 0.5
v 0.625 0.6875 0.5
v 0.625 0.6875 0.625
v 0.625 0.1875 0.5
v 0.625 0.1875 0.625
vt 0.328125 0.59375
vt 0.34375 0.59375
vt 0.34375 0.46875
vt 0.328125 0.46875
vn 0 0 -1
usemtl texture_0
f 52/148/37 55/147/37 53/146/37 50/145/37
vt 0.09375 0.59375
vt 0.125 0.59375
vt 0.125 0.46875
vt 0.09375 0.46875
vn 1 0 0
usemtl texture_0
f 51/152/38 52/151/38 50/150/38 49/149/38
vt 0.421875 0.90625
vt 0.4375 0.90625
vt 0.4375 0.78125
vt 0.421875 0.78125
vn 0 0 1
usemtl texture_0
f 56/156/39 51/155/39 49/154/39 54/153/39
vt 0.125 0.59375
vt 0.15625 0.59375
vt 0.15625 0.46875
vt 0.125 0.46875
vn -1 0 0
usemtl texture_0
f 55/160/40 56/159/40 54/158/40 53/157/40
vt 0.296875 0.515625
vt 0.28125 0.515625
vt 0.28125 0.546875
vt 0.296875 0.546875
vn 0 1 0
usemtl texture_0
f 54/164/41 49/163/41 50/162/41 53/161/41
vt 0.3125 0.546875
vt 0.296875 0.546875
vt 0.296875 0.515625
vt 0.3125 0.515625
vn 0 -1 0
usemtl texture_0
f 55/168/42 52/167/42 51/166/42 56/165/42

o cube
v 0.25 0.9375 0.625
v 0.25 0.9375 0.5625
v 0.25 0.75 0.625
v 0.25 0.75 0.5625
v 0.0625 0.9375 0.5625
v 0.0625 0.9375 0.625
v 0.0625 0.75 0.5625
v 0.0625 0.75 0.625
vt 0.28125 0.59375
vt 0.328125 0.59375
vt 0.328125 0.546875
vt 0.28125 0.546875
vn 0 0 -1
usemtl texture_0
f 60/172/43 63/171/43 61/170/43 58/169/43
vt 0.375 0.5625
vt 0.390625 0.5625
vt 0.390625 0.515625
vt 0.375 0.515625
vn 1 0 0
usemtl texture_0
f 59/176/44 60/175/44 58/174/44 57/173/44
vt 0.28125 0.59375
vt 0.328125 0.59375
vt 0.328125 0.546875
vt 0.28125 0.546875
vn 0 0 1
usemtl texture_0
f 64/180/45 59/179/45 57/178/45 62/177/45
vt 0.375 0.5625
vt 0.390625 0.5625
vt 0.390625 0.515625
vt 0.375 0.515625
vn -1 0 0
usemtl texture_0
f 63/184/46 64/183/46 62/182/46 61/181/46
vt 0.296875 0.75
vt 0.25 0.75
vt 0.25 0.765625
vt 0.296875 0.765625
vn 0 1 0
usemtl texture_0
f 62/188/47 57/187/47 58/186/47 61/185/47
vt 0.25 0.765625
vt 0.296875 0.765625
vt 0.296875 0.75
vt 0.25 0.75
vn 0 -1 0
usemtl texture_0
f 63/192/48 60/191/48 59/190/48 64/189/48

o 1
v 0.5 0.59924465 0.58624281
v 0.5 0.61359528 0.55159733
v 0.5 0.48375971 0.53840738
v 0.5 0.49811034 0.5037619
v 0.375 0.61359528 0.55159733
v 0.375 0.59924465 0.58624281
v 0.375 0.49811034 0.5037619
v 0.375 0.48375971 0.53840738
vt 0.4375 0.8125
vt 0.46875 0.8125
vt 0.46875 0.78125
vt 0.4375 0.78125
vn 0 0.38268343 -0.92387953
usemtl texture_0
f 68/196/49 71/195/49 69/194/49 66/193/49
vt 0.3125 0.546875
vt 0.328125 0.546875
vt 0.328125 0.515625
vt 0.3125 0.515625
vn 1 0 0
usemtl texture_0
f 67/200/50 68/199/50 66/198/50 65/197/50
vt 0.4375 0.875
vt 0.46875 0.875
vt 0.46875 0.84375
vt 0.4375 0.84375
vn 0 -0.38268343 0.92387953
usemtl texture_0
f 72/204/51 67/203/51 65/202/51 70/201/51
vt 0.3125 0.546875
vt 0.328125 0.546875
vt 0.328125 0.515625
vt 0.3125 0.515625
vn -1 0 0
usemtl texture_0
f 71/208/52 72/207/52 70/206/52 69/205/52
vt 0.484375 0.671875
vt 0.453125 0.671875
vt 0.453125 0.6875
vt 0.484375 0.6875
vn 0 0.92387953 0.38268343
usemtl texture_0
f 70/212/53 65/211/53 66/210/53 69/209/53
vt 0.453125 0.6875
vt 0.484375 0.6875
vt 0.484375 0.671875
vt 0.453125 0.671875
vn 0 -0.92387953 -0.38268343
usemtl texture_0
f 71/216/54 68/215/54 67/214/54 72/213/54

o 2
v 0.3125 0.59924465 0.58624281
v 0.3125 0.61359528 0.55159733
v 0.3125 0.48375971 0.53840738
v 0.3125 0.49811034 0.5037619
v 0.1875 0.61359528 0.55159733
v 0.1875 0.59924465 0.58624281
v 0.1875 0.49811034 0.5037619
v 0.1875 0.48375971 0.53840738
vt 0.46875 0.78125
vt 0.4375 0.78125
vt 0.4375 0.8125
vt 0.46875 0.8125
vn 0 0.38268343 -0.92387953
usemtl texture_0
f 76/220/55 79/219/55 77/218/55 74/217/55
vt 0.3125 0.515625
vt 0.328125 0.515625
vt 0.328125 0.546875
vt 0.3125 0.546875
vn 1 0 0
usemtl texture_0
f 75/224/56 76/223/56 74/222/56 73/221/56
vt 0.4375 0.875
vt 0.46875 0.875
vt 0.46875 0.84375
vt 0.4375 0.84375
vn 0 -0.38268343 0.92387953
usemtl texture_0
f 80/228/57 75/227/57 73/226/57 78/225/57
vt 0.3125 0.546875
vt 0.328125 0.546875
vt 0.328125 0.515625
vt 0.3125 0.515625
vn -1 0 0
usemtl texture_0
f 79/232/58 80/231/58 78/230/58 77/229/58
vt 0.484375 0.6875
vt 0.453125 0.6875
vt 0.453125 0.671875
vt 0.484375 0.671875
vn 0 0.92387953 0.38268343
usemtl texture_0
f 78/236/59 73/235/59 74/234/59 77/233/59
vt 0.453125 0.6875
vt 0.484375 0.6875
vt 0.484375 0.671875
vt 0.453125 0.671875
vn 0 -0.92387953 -0.38268343
usemtl texture_0
f 79/240/60 76/239/60 75/238/60 80/237/60

o 4
v 0.3125 0.41174465 0.51124281
v 0.3125 0.42609528 0.47659733
v 0.3125 0.29625971 0.46340738
v 0.3125 0.31061034 0.4287619
v 0.1875 0.42609528 0.47659733
v 0.1875 0.41174465 0.51124281
v 0.1875 0.31061034 0.4287619
v 0.1875 0.29625971 0.46340738
vt 0.4375 0.78125
vt 0.46875 0.78125
vt 0.46875 0.8125
vt 0.4375 0.8125
vn 0 0.38268343 -0.92387953
usemtl texture_0
f 84/244/61 87/243/61 85/242/61 82/241/61
vt 0.3125 0.546875
vt 0.328125 0.546875
vt 0.328125 0.515625
vt 0.3125 0.515625
vn 1 0 0
usemtl texture_0
f 83/248/62 84/247/62 82/246/62 81/245/62
vt 0.4375 0.875
vt 0.46875 0.875
vt 0.46875 0.84375
vt 0.4375 0.84375
vn 0 -0.38268343 0.92387953
usemtl texture_0
f 88/252/63 83/251/63 81/250/63 86/249/63
vt 0.3125 0.546875
vt 0.328125 0.546875
vt 0.328125 0.515625
vt 0.3125 0.515625
vn -1 0 0
usemtl texture_0
f 87/256/64 88/255/64 86/254/64 85/253/64
vt 0.453125 0.6875
vt 0.484375 0.6875
vt 0.484375 0.671875
vt 0.453125 0.671875
vn 0 0.92387953 0.38268343
usemtl texture_0
f 86/260/65 81/259/65 82/258/65 85/257/65
vt 0.453125 0.6875
vt 0.484375 0.6875
vt 0.484375 0.671875
vt 0.453125 0.671875
vn 0 -0.92387953 -0.38268343
usemtl texture_0
f 87/264/66 84/263/66 83/262/66 88/261/66

o 3
v 0.5 0.41174465 0.51124281
v 0.5 0.42609528 0.47659733
v 0.5 0.29625971 0.46340738
v 0.5 0.31061034 0.4287619
v 0.375 0.42609528 0.47659733
v 0.375 0.41174465 0.51124281
v 0.375 0.31061034 0.4287619
v 0.375 0.29625971 0.46340738
vt 0.46875 0.8125
vt 0.4375 0.8125
vt 0.4375 0.78125
vt 0.46875 0.78125
vn 0 0.38268343 -0.92387953
usemtl texture_0
f 92/268/67 95/267/67 93/266/67 90/265/67
vt 0.3125 0.546875
vt 0.328125 0.546875
vt 0.328125 0.515625
vt 0.3125 0.515625
vn 1 0 0
usemtl texture_0
f 91/272/68 92/271/68 90/270/68 89/269/68
vt 0.4375 0.875
vt 0.46875 0.875
vt 0.46875 0.84375
vt 0.4375 0.84375
vn 0 -0.38268343 0.92387953
usemtl texture_0
f 96/276/69 91/275/69 89/274/69 94/273/69
vt 0.3125 0.546875
vt 0.328125 0.546875
vt 0.328125 0.515625
vt 0.3125 0.515625
vn -1 0 0
usemtl texture_0
f 95/280/70 96/279/70 94/278/70 93/277/70
vt 0.453125 0.6875
vt 0.484375 0.6875
vt 0.484375 0.671875
vt 0.453125 0.671875
vn 0 0.92387953 0.38268343
usemtl texture_0
f 94/284/71 89/283/71 90/282/71 93/281/71
vt 0.453125 0.6875
vt 0.484375 0.6875
vt 0.484375 0.671875
vt 0.453125 0.671875
vn 0 -0.92387953 -0.38268343
usemtl texture_0
f 95/288/72 92/287/72 91/286/72 96/285/72

o cube
v 0.5 0.9375 0.625
v 0.5 0.9375 0.5625
v 0.5 0.75 0.625
v 0.5 0.75 0.5625
v 0.3125 0.9375 0.5625
v 0.3125 0.9375 0.625
v 0.3125 0.75 0.5625
v 0.3125 0.75 0.625
vt 0.28125 0.59375
vt 0.328125 0.59375
vt 0.328125 0.546875
vt 0.28125 0.546875
vn 0 0 -1
usemtl texture_0
f 100/292/73 103/291/73 101/290/73 98/289/73
vt 0.375 0.5625
vt 0.390625 0.5625
vt 0.390625 0.515625
vt 0.375 0.515625
vn 1 0 0
usemtl texture_0
f 99/296/74 100/295/74 98/294/74 97/293/74
vt 0.28125 0.59375
vt 0.328125 0.59375
vt 0.328125 0.546875
vt 0.28125 0.546875
vn 0 0 1
usemtl texture_0
f 104/300/75 99/299/75 97/298/75 102/297/75
vt 0.375 0.5625
vt 0.390625 0.5625
vt 0.390625 0.515625
vt 0.375 0.515625
vn -1 0 0
usemtl texture_0
f 103/304/76 104/303/76 102/302/76 101/301/76
vt 0.25 0.765625
vt 0.296875 0.765625
vt 0.296875 0.75
vt 0.25 0.75
vn 0 1 0
usemtl texture_0
f 102/308/77 97/307/77 98/306/77 101/305/77
vt 0.25 0.765625
vt 0.296875 0.765625
vt 0.296875 0.75
vt 0.25 0.75
vn 0 -1 0
usemtl texture_0
f 103/312/78 100/311/78 99/310/78 104/309/78

o cube
v 0.0625 0.375 0.5
v 0.0625 0.375 0.375
v 0.0625 0.1875 0.5
v 0.0625 0.1875 0.375
v 0 0.375 0.375
v 0 0.375 0.5
v 0 0.1875 0.375
v 0 0.1875 0.5
vt 0.390625 0.5625
vt 0.40625 0.5625
vt 0.40625 0.515625
vt 0.390625 0.515625
vn 0 0 -1
usemtl texture_0
f 108/316/79 111/315/79 109/314/79 106/313/79
vt 0.421875 0.6875
vt 0.453125 0.6875
vt 0.453125 0.640625
vt 0.421875 0.640625
vn 1 0 0
usemtl texture_0
f 107/320/80 108/319/80 106/318/80 105/317/80
vt 0.40625 0.5625
vt 0.421875 0.5625
vt 0.421875 0.515625
vt 0.40625 0.515625
vn 0 0 1
usemtl texture_0
f 112/324/81 107/323/81 105/322/81 110/321/81
vt 0.34375 0.578125
vt 0.375 0.578125
vt 0.375 0.53125
vt 0.34375 0.53125
vn -1 0 0
usemtl texture_0
f 111/328/82 112/327/82 110/326/82 109/325/82
vt 0.46875 0.640625
vt 0.453125 0.640625
vt 0.453125 0.671875
vt 0.46875 0.671875
vn 0 1 0
usemtl texture_0
f 110/332/83 105/331/83 106/330/83 109/329/83
vt 0.46875 0.640625
vt 0.453125 0.640625
vt 0.453125 0.609375
vt 0.46875 0.609375
vn 0 -1 0
usemtl texture_0
f 111/336/84 108/335/84 107/334/84 112/333/84

o cube
v 0.6875 0.375 0.5
v 0.6875 0.375 0.375
v 0.6875 0.1875 0.5
v 0.6875 0.1875 0.375
v 0.625 0.375 0.375
v 0.625 0.375 0.5
v 0.625 0.1875 0.375
v 0.625 0.1875 0.5
vt 0.15625 0.546875
vt 0.171875 0.546875
vt 0.171875 0.5
vt 0.15625 0.5
vn 0 0 -1
usemtl texture_0
f 116/340/85 119/339/85 117/338/85 114/337/85
vt 0.421875 0.640625
vt 0.453125 0.640625
vt 0.453125 0.59375
vt 0.421875 0.59375
vn 1 0 0
usemtl texture_0
f 115/344/86 116/343/86 114/342/86 113/341/86
vt 0.171875 0.546875
vt 0.1875 0.546875
vt 0.1875 0.5
vt 0.171875 0.5
vn 0 0 1
usemtl texture_0
f 120/348/87 115/347/87 113/346/87 118/345/87
vt 0.421875 0.59375
vt 0.453125 0.59375
vt 0.453125 0.546875
vt 0.421875 0.546875
vn -1 0 0
usemtl texture_0
f 119/352/88 120/351/88 118/350/88 117/349/88
vt 0.46875 0.578125
vt 0.453125 0.578125
vt 0.453125 0.609375
vt 0.46875 0.609375
vn 0 1 0
usemtl texture_0
f 118/356/89 113/355/89 114/354/89 117/353/89
vt 0.375 0.609375
vt 0.359375 0.609375
vt 0.359375 0.578125
vt 0.375 0.578125
vn 0 -1 0
usemtl texture_0
f 119/360/90 116/359/90 115/358/90 120/357/90

o cube
v 0.125 0.25 0.5
v 0.125 0.25 0.375
v 0.125 0.1875 0.5
v 0.125 0.1875 0.375
v 0.0625 0.25 0.375
v 0.0625 0.25 0.5
v 0.0625 0.1875 0.375
v 0.0625 0.1875 0.5
vt 0.328125 0.765625
vt 0.34375 0.765625
vt 0.34375 0.75
vt 0.328125 0.75
vn 0 0 -1
usemtl texture_0
f 124/364/91 127/363/91 125/362/91 122/361/91
vt 0.453125 0.578125
vt 0.484375 0.578125
vt 0.484375 0.5625
vt 0.453125 0.5625
vn 1 0 0
usemtl texture_0
f 123/368/92 124/367/92 122/366/92 121/365/92
vt 0.46875 0.796875
vt 0.484375 0.796875
vt 0.484375 0.78125
vt 0.46875 0.78125
vn 0 0 1
usemtl texture_0
f 128/372/93 123/371/93 121/370/93 126/369/93
vt 0.4375 0.546875
vt 0.46875 0.546875
vt 0.46875 0.53125
vt 0.4375 0.53125
vn -1 0 0
usemtl texture_0
f 127/376/94 128/375/94 126/374/94 125/373/94
vt 0.484375 0.875
vt 0.46875 0.875
vt 0.46875 0.90625
vt 0.484375 0.90625
vn 0 1 0
usemtl texture_0
f 126/380/95 121/379/95 122/378/95 125/377/95
vt 0.484375 0.875
vt 0.46875 0.875
vt 0.46875 0.84375
vt 0.484375 0.84375
vn 0 -1 0
usemtl texture_0
f 127/384/96 124/383/96 123/382/96 128/381/96

o cube
v 0.625 0.25 0.5
v 0.625 0.25 0.375
v 0.625 0.1875 0.5
v 0.625 0.1875 0.375
v 0.5625 0.25 0.375
v 0.5625 0.25 0.5
v 0.5625 0.1875 0.375
v 0.5625 0.1875 0.5
vt 0.34375 0.53125
vt 0.359375 0.53125
vt 0.359375 0.515625
vt 0.34375 0.515625
vn 0 0 -1
usemtl texture_0
f 132/388/97 135/387/97 133/386/97 130/385/97
vt 0.453125 0.5625
vt 0.484375 0.5625
vt 0.484375 0.546875
vt 0.453125 0.546875
vn 1 0 0
usemtl texture_0
f 131/392/98 132/391/98 130/390/98 129/389/98
vt 0.359375 0.53125
vt 0.375 0.53125
vt 0.375 0.515625
vt 0.359375 0.515625
vn 0 0 1
usemtl texture_0
f 136/396/99 131/395/99 129/394/99 134/393/99
vt 0.46875 0.84375
vt 0.5 0.84375
vt 0.5 0.828125
vt 0.46875 0.828125
vn -1 0 0
usemtl texture_0
f 135/400/100 136/399/100 134/398/100 133/397/100
vt 0.484375 0.796875
vt 0.46875 0.796875
vt 0.46875 0.828125
vt 0.484375 0.828125
vn 0 1 0
usemtl texture_0
f 134/404/101 129/403/101 130/402/101 133/401/101
vt 0.484375 0.671875
vt 0.46875 0.671875
vt 0.46875 0.640625
vt 0.484375 0.640625
vn 0 -1 0
usemtl texture_0
f 135/408/102 132/407/102 131/406/102 136/405/102
