# Converted from Blockbench for Create Echo Radars
mtllib sonar.mtl

o head
v 0.57279687 0.86509554 0.43836397
v 0.57279687 0.80970015 0.36617129
v 0.57279687 0.74958726 0.52699659
v 0.57279687 0.69419187 0.45480391
v 0.42720313 0.80970015 0.36617129
v 0.42720313 0.86509554 0.43836397
v 0.42720313 0.69419187 0.45480391
v 0.42720313 0.74958726 0.52699659
vt 0.2 0.83076923
vt 0.30666667 0.83076923
vt 0.30666667 0.76923077
vt 0.2 0.76923077
vn 0 -0.60876143 -0.79335334
usemtl texture
f 4/4/1 7/3/1 5/2/1 2/1/1
vt 0.13333333 0.83076923
vt 0.2 0.83076923
vt 0.2 0.76923077
vt 0.13333333 0.76923077
vn 1 0 0
usemtl texture
f 3/8/2 4/7/2 2/6/2 1/5/2
vt 0.37333333 0.83076923
vt 0.48 0.83076923
vt 0.48 0.76923077
vt 0.37333333 0.76923077
vn 0 0.60876143 0.79335334
usemtl texture
f 8/12/3 3/11/3 1/10/3 6/9/3
vt 0.30666667 0.83076923
vt 0.37333333 0.83076923
vt 0.37333333 0.76923077
vt 0.30666667 0.76923077
vn -1 0 0
usemtl texture
f 7/16/4 8/15/4 6/14/4 5/13/4
vt 0.30666667 0.83076923
vt 0.2 0.83076923
vt 0.2 0.86923077
vt 0.30666667 0.86923077
vn 0 0.79335334 -0.60876143
usemtl texture
f 6/20/5 1/19/5 2/18/5 5/17/5
vt 0.41333333 0.86923077
vt 0.30666667 0.86923077
vt 0.30666667 0.83076923
vt 0.41333333 0.83076923
vn 0 -0.79335334 0.60876143
usemtl texture
f 7/24/6 4/23/6 3/22/6 8/21/6

o left_tendril
v 0.42720313 0.88688835 0.37840181
v 0.42720313 0.88688835 0.37840181
v 0.42720313 0.77138007 0.46703443
v 0.42720313 0.77138007 0.46703443
v 0.2816075 0.88688835 0.37840181
v 0.2816075 0.88688835 0.37840181
v 0.2816075 0.77138007 0.46703443
v 0.2816075 0.77138007 0.46703443
vt 0.52 0.99230769
vt 0.62666667 0.99230769
vt 0.62666667 0.93076923
vt 0.52 0.93076923
vn 0 -0.60876143 -0.79335334
usemtl texture
f 12/28/7 15/27/7 13/26/7 10/25/7
vt 0.52 0.99230769
vt 0.52 0.99230769
vt 0.52 0.93076923
vt 0.52 0.93076923
vn 1 0 0
usemtl texture
f 11/32/8 12/31/8 10/30/8 9/29/8
vt 0.62666667 0.99230769
vt 0.73333333 0.99230769
vt 0.73333333 0.93076923
vt 0.62666667 0.93076923
vn 0 0.60876143 0.79335334
usemtl texture
f 16/36/9 11/35/9 9/34/9 14/33/9
vt 0.62666667 0.99230769
vt 0.62666667 0.99230769
vt 0.62666667 0.93076923
vt 0.62666667 0.93076923
vn -1 0 0
usemtl texture
f 15/40/10 16/39/10 14/38/10 13/37/10
vt 0.62666667 0.99230769
vt 0.52 0.99230769
vt 0.52 0.99230769
vt 0.62666667 0.99230769
vn 0 0.79335334 -0.60876143
usemtl texture
f 14/44/11 9/43/11 10/42/11 13/41/11
vt 0.73333333 0.99230769
vt 0.62666667 0.99230769
vt 0.62666667 0.99230769
vt 0.73333333 0.99230769
vn 0 -0.79335334 0.60876143
usemtl texture
f 15/48/12 12/47/12 11/46/12 16/45/12

o right_tendril
v 0.7183925 0.88688835 0.37840181
v 0.7183925 0.88688835 0.37840181
v 0.7183925 0.77138007 0.46703443
v 0.7183925 0.77138007 0.46703443
v 0.57279687 0.88688835 0.37840181
v 0.57279687 0.88688835 0.37840181
v 0.57279687 0.77138007 0.46703443
v 0.57279687 0.77138007 0.46703443
vt 0.48 0.86923077
vt 0.58666667 0.86923077
vt 0.58666667 0.80769231
vt 0.48 0.80769231
vn 0 -0.60876143 -0.79335334
usemtl texture
f 20/52/13 23/51/13 21/50/13 18/49/13
vt 0.48 0.86923077
vt 0.48 0.86923077
vt 0.48 0.80769231
vt 0.48 0.80769231
vn 1 0 0
usemtl texture
f 19/56/14 20/55/14 18/54/14 17/53/14
vt 0.58666667 0.86923077
vt 0.69333333 0.86923077
vt 0.69333333 0.80769231
vt 0.58666667 0.80769231
vn 0 0.60876143 0.79335334
usemtl texture
f 24/60/15 19/59/15 17/58/15 22/57/15
vt 0.58666667 0.86923077
vt 0.58666667 0.86923077
vt 0.58666667 0.80769231
vt 0.58666667 0.80769231
vn -1 0 0
usemtl texture
f 23/64/16 24/63/16 22/62/16 21/61/16
vt 0.58666667 0.86923077
vt 0.48 0.86923077
vt 0.48 0.86923077
vt 0.58666667 0.86923077
vn 0 0.79335334 -0.60876143
usemtl texture
f 22/68/17 17/67/17 18/66/17 21/65/17
vt 0.69333333 0.86923077
vt 0.58666667 0.86923077
vt 0.58666667 0.86923077
vt 0.69333333 0.86923077
vn 0 -0.79335334 0.60876143
usemtl texture
f 23/72/18 20/71/18 19/70/18 24/69/18

o torso
v 0.58189687 0.72188938 0.55459813
v 0.58189687 0.72188938 0.45450187
v 0.58189687 0.53079562 0.55459813
v 0.58189687 0.53079562 0.45450187
v 0.41810313 0.72188938 0.45450187
v 0.41810313 0.72188938 0.55459813
v 0.41810313 0.53079562 0.45450187
v 0.41810313 0.53079562 0.55459813
vt 0.20666667 0.95
vt 0.32666667 0.95
vt 0.32666667 0.86923077
vt 0.20666667 0.86923077
vn 0 0 -1
usemtl texture
f 28/76/19 31/75/19 29/74/19 26/73/19
vt 0.13333333 0.95
vt 0.20666667 0.95
vt 0.20666667 0.86923077
vt 0.13333333 0.86923077
vn 1 0 0
usemtl texture
f 27/80/20 28/79/20 26/78/20 25/77/20
vt 0.4 0.95
vt 0.52 0.95
vt 0.52 0.86923077
vt 0.4 0.86923077
vn 0 0 1
usemtl texture
f 32/84/21 27/83/21 25/82/21 30/81/21
vt 0.32666667 0.95
vt 0.4 0.95
vt 0.4 0.86923077
vt 0.32666667 0.86923077
vn -1 0 0
usemtl texture
f 31/88/22 32/87/22 30/86/22 29/85/22
vt 0.32666667 0.95
vt 0.20666667 0.95
vt 0.20666667 0.99230769
vt 0.32666667 0.99230769
vn 0 1 0
usemtl texture
f 30/92/23 25/91/23 26/90/23 29/89/23
vt 0.44666667 0.99230769
vt 0.32666667 0.99230769
vt 0.32666667 0.95
vt 0.44666667 0.95
vn 0 -1 0
usemtl texture
f 31/96/24 28/95/24 27/94/24 32/93/24

o left_ribcage
v 0.5 0.72188938 0.45359187
v 0.5 0.72188938 0.45359187
v 0.5 0.53079562 0.45359187
v 0.5 0.53079562 0.45359187
v 0.41810313 0.72188938 0.45359187
v 0.41810313 0.72188938 0.45359187
v 0.41810313 0.53079562 0.45359187
v 0.41810313 0.53079562 0.45359187
vt 0.79333333 0.95
vt 0.73333333 0.95
vt 0.73333333 0.86923077
vt 0.79333333 0.86923077
vn 0 0 -1
usemtl texture
f 36/100/25 39/99/25 37/98/25 34/97/25
vt 0.79333333 0.95
vt 0.79333333 0.95
vt 0.79333333 0.86923077
vt 0.79333333 0.86923077
vn 1 0 0
usemtl texture
f 35/104/26 36/103/26 34/102/26 33/101/26
vt 0.85333333 0.95
vt 0.79333333 0.95
vt 0.79333333 0.86923077
vt 0.85333333 0.86923077
vn 0 0 1
usemtl texture
f 40/108/27 35/107/27 33/106/27 38/105/27
vt 0.73333333 0.95
vt 0.73333333 0.95
vt 0.73333333 0.86923077
vt 0.73333333 0.86923077
vn -1 0 0
usemtl texture
f 39/112/28 40/111/28 38/110/28 37/109/28
vt 0.73333333 0.95
vt 0.79333333 0.95
vt 0.79333333 0.95
vt 0.73333333 0.95
vn 0 1 0
usemtl texture
f 38/116/29 33/115/29 34/114/29 37/113/29
vt 0.79333333 0.95
vt 0.85333333 0.95
vt 0.85333333 0.95
vt 0.79333333 0.95
vn 0 -1 0
usemtl texture
f 39/120/30 36/119/30 35/118/30 40/117/30

o right_ribcage
v 0.58189687 0.72188938 0.45359187
v 0.58189687 0.72188938 0.45359187
v 0.58189687 0.53079562 0.45359187
v 0.58189687 0.53079562 0.45359187
v 0.5 0.72188938 0.45359187
v 0.5 0.72188938 0.45359187
v 0.5 0.53079562 0.45359187
v 0.5 0.53079562 0.45359187
vt 0.73333333 0.95
vt 0.79333333 0.95
vt 0.79333333 0.86923077
vt 0.73333333 0.86923077
vn 0 0 -1
usemtl texture
f 44/124/31 47/123/31 45/122/31 42/121/31
vt 0.73333333 0.95
vt 0.73333333 0.95
vt 0.73333333 0.86923077
vt 0.73333333 0.86923077
vn 1 0 0
usemtl texture
f 43/128/32 44/127/32 42/126/32 41/125/32
vt 0.79333333 0.95
vt 0.85333333 0.95
vt 0.85333333 0.86923077
vt 0.79333333 0.86923077
vn 0 0 1
usemtl texture
f 48/132/33 43/131/33 41/130/33 46/129/33
vt 0.79333333 0.95
vt 0.79333333 0.95
vt 0.79333333 0.86923077
vt 0.79333333 0.86923077
vn -1 0 0
usemtl texture
f 47/136/34 48/135/34 46/134/34 45/133/34
vt 0.79333333 0.95
vt 0.73333333 0.95
vt 0.73333333 0.95
vt 0.79333333 0.95
vn 0 1 0
usemtl texture
f 46/140/35 41/139/35 42/138/35 45/137/35
vt 0.85333333 0.95
vt 0.79333333 0.95
vt 0.79333333 0.95
vt 0.85333333 0.95
vn 0 -1 0
usemtl texture
f 47/144/36 44/143/36 43/142/36 48/141/36

o left_arm
v 0.4084695 0.69812505 0.5369949
v 0.42527658 0.73041113 0.47395042
v 0.379258 0.47608186 0.41549555
v 0.39606508 0.50836795 0.35245106
v 0.35493864 0.74565383 0.463005
v 0.33813157 0.71336775 0.52604949
v 0.32572714 0.52361064 0.34150565
v 0.30892007 0.49132456 0.40455014
vt 0.18666667 0.73846154
vt 0.24 0.73846154
vt 0.24 0.63076923
vt 0.18666667 0.63076923
vn 0.23087431 0.44350536 -0.86602543
usemtl texture
f 52/148/37 55/147/37 53/146/37 50/145/37
vt 0.13333333 0.73846154
vt 0.18666667 0.73846154
vt 0.18666667 0.63076923
vt 0.13333333 0.63076923
vn 0.96620532 -0.2093831 0.15035293
usemtl texture
f 51/152/38 52/151/38 50/150/38 49/149/38
vt 0.29333333 0.73846154
vt 0.34666667 0.73846154
vt 0.34666667 0.63076923
vt 0.29333333 0.63076923
vn -0.23087431 -0.44350536 0.86602543
usemtl texture
f 56/156/39 51/155/39 49/154/39 54/153/39
vt 0.24 0.73846154
vt 0.29333333 0.73846154
vt 0.29333333 0.63076923
vt 0.24 0.63076923
vn -0.96620532 0.2093831 -0.15035293
usemtl texture
f 55/160/40 56/159/40 54/158/40 53/157/40
vt 0.24 0.73846154
vt 0.18666667 0.73846154
vt 0.18666667 0.76923077
vt 0.24 0.76923077
vn 0.11464876 0.87147101 0.47685841
usemtl texture
f 54/164/41 49/163/41 50/162/41 53/161/41
vt 0.29333333 0.76923077
vt 0.24 0.76923077
vt 0.24 0.73846154
vt 0.29333333 0.73846154
vn -0.11464876 -0.87147101 -0.47685841
usemtl texture
f 55/168/42 52/167/42 51/166/42 56/165/42

o right_arm
v 0.65455649 0.7036106 0.53163573
v 0.65455649 0.74536553 0.47200351
v 0.67676301 0.49569204 0.3860496
v 0.67676301 0.53744697 0.32641738
v 0.58203538 0.74016819 0.4683643
v 0.58203538 0.69841327 0.52799652
v 0.60424191 0.53224963 0.32277816
v 0.60424191 0.4904947 0.38241039
vt 0.48 0.76923077
vt 0.53333333 0.76923077
vt 0.53333333 0.66153846
vt 0.48 0.66153846
vn 4e-8 0.57357641 -0.81915206
usemtl texture
f 60/172/43 63/171/43 61/170/43 58/169/43
vt 0.42666667 0.76923077
vt 0.48 0.76923077
vt 0.48 0.66153846
vt 0.42666667 0.66153846
vn 0.9961947 0.07139379 0.04999052
usemtl texture
f 59/176/44 60/175/44 58/174/44 57/173/44
vt 0.58666667 0.76923077
vt 0.64 0.76923077
vt 0.64 0.66153846
vt 0.58666667 0.66153846
vn -4e-8 -0.57357641 0.81915206
usemtl texture
f 64/180/45 59/179/45 57/178/45 62/177/45
vt 0.53333333 0.76923077
vt 0.58666667 0.76923077
vt 0.58666667 0.66153846
vt 0.53333333 0.66153846
vn -0.9961947 -0.07139379 -0.04999052
usemtl texture
f 63/184/46 64/183/46 62/182/46 61/181/46
vt 0.53333333 0.76923077
vt 0.48 0.76923077
vt 0.48 0.8
vt 0.53333333 0.8
vn -0.08715575 0.81603494 0.57139377
usemtl texture
f 62/188/47 57/187/47 58/186/47 61/185/47
vt 0.58666667 0.8
vt 0.53333333 0.8
vt 0.53333333 0.76923077
vt 0.58666667 0.76923077
vn 0.08715575 -0.81603494 -0.57139377
usemtl texture
f 63/192/48 60/191/48 59/190/48 64/189/48

o left_leg
v 0.47179063 0.50349625 0.4909
v 0.47179063 0.55809438 0.4909
v 0.47179063 0.50349625 0.37260437
v 0.47179063 0.55809438 0.37260437
v 0.4171925 0.55809438 0.4909
v 0.4171925 0.50349625 0.4909
v 0.4171925 0.55809438 0.37260437
v 0.4171925 0.50349625 0.37260437
vt 0.68 0.67692308
vt 0.72 0.67692308
vt 0.72 0.62692308
vt 0.68 0.62692308
vn 0 1 0
usemtl texture
f 68/196/49 71/195/49 69/194/49 66/193/49
vt 0.64 0.67692308
vt 0.68 0.67692308
vt 0.68 0.62692308
vt 0.64 0.62692308
vn 1 0 0
usemtl texture
f 67/200/50 68/199/50 66/198/50 65/197/50
vt 0.76 0.67692308
vt 0.8 0.67692308
vt 0.8 0.62692308
vt 0.76 0.62692308
vn 0 -1 0
usemtl texture
f 72/204/51 67/203/51 65/202/51 70/201/51
vt 0.72 0.67692308
vt 0.76 0.67692308
vt 0.76 0.62692308
vt 0.72 0.62692308
vn -1 0 0
usemtl texture
f 71/208/52 72/207/52 70/206/52 69/205/52
vt 0.72 0.67692308
vt 0.68 0.67692308
vt 0.68 0.7
vt 0.72 0.7
vn 0 0 1
usemtl texture
f 70/212/53 65/211/53 66/210/53 69/209/53
vt 0.76 0.7
vt 0.72 0.7
vt 0.72 0.67692308
vt 0.76 0.67692308
vn 0 0 -1
usemtl texture
f 71/216/54 68/215/54 67/214/54 72/213/54

o right_leg
v 0.5828075 0.50349625 0.4909
v 0.5828075 0.55809438 0.4909
v 0.5828075 0.50349625 0.37260437
v 0.5828075 0.55809438 0.37260437
v 0.52820937 0.55809438 0.4909
v 0.52820937 0.50349625 0.4909
v 0.52820937 0.55809438 0.37260437
v 0.52820937 0.50349625 0.37260437
vt 0.68 0.78461538
vt 0.72 0.78461538
vt 0.72 0.73461538
vt 0.68 0.73461538
vn 0 1 0
usemtl texture
f 76/220/55 79/219/55 77/218/55 74/217/55
vt 0.64 0.78461538
vt 0.68 0.78461538
vt 0.68 0.73461538
vt 0.64 0.73461538
vn 1 0 0
usemtl texture
f 75/224/56 76/223/56 74/222/56 73/221/56
vt 0.76 0.78461538
vt 0.8 0.78461538
vt 0.8 0.73461538
vt 0.76 0.73461538
vn 0 -1 0
usemtl texture
f 80/228/57 75/227/57 73/226/57 78/225/57
vt 0.72 0.78461538
vt 0.76 0.78461538
vt 0.76 0.73461538
vt 0.72 0.73461538
vn -1 0 0
usemtl texture
f 79/232/58 80/231/58 78/230/58 77/229/58
vt 0.72 0.78461538
vt 0.68 0.78461538
vt 0.68 0.80769231
vt 0.72 0.80769231
vn 0 0 1
usemtl texture
f 78/236/59 73/235/59 74/234/59 77/233/59
vt 0.76 0.80769231
vt 0.72 0.80769231
vt 0.72 0.78461538
vt 0.76 0.78461538
vn 0 0 -1
usemtl texture
f 79/240/60 76/239/60 75/238/60 80/237/60

o cube
v 0.779825 1.061075 0.779825
v 0.779825 1.061075 0.220175
v 0.779825 0.501425 0.779825
v 0.779825 0.501425 0.220175
v 0.220175 1.061075 0.220175
v 0.220175 1.061075 0.779825
v 0.220175 0.501425 0.220175
v 0.220175 0.501425 0.779825
vt 0.13333333 0.49230769
vt 0.24 0.49230769
vt 0.24 0.43076923
vt 0.13333333 0.43076923
vn 0 0 -1
usemtl texture
f 84/244/61 87/243/61 85/242/61 82/241/61
vt 0.13333333 0.49230769
vt 0.24 0.49230769
vt 0.24 0.43076923
vt 0.13333333 0.43076923
vn 1 0 0
usemtl texture
f 83/248/62 84/247/62 82/246/62 81/245/62
vt 0.13333333 0.49230769
vt 0.24 0.49230769
vt 0.24 0.43076923
vt 0.13333333 0.43076923
vn 0 0 1
usemtl texture
f 88/252/63 83/251/63 81/250/63 86/249/63
vt 0.13333333 0.49230769
vt 0.24 0.49230769
vt 0.24 0.43076923
vt 0.13333333 0.43076923
vn -1 0 0
usemtl texture
f 87/256/64 88/255/64 86/254/64 85/253/64
vt 0.13333333 0.49230769
vt 0.24 0.49230769
vt 0.24 0.43076923
vt 0.13333333 0.43076923
vn 0 1 0
usemtl texture
f 86/260/65 81/259/65 82/258/65 85/257/65
vt 0.13333333 0.49230769
vt 0.24 0.49230769
vt 0.24 0.43076923
vt 0.13333333 0.43076923
vn 0 -1 0
usemtl texture
f 87/264/66 84/263/66 83/262/66 88/261/66

o cube
v 0.220105 1.061145 0.779755
v 0.220105 1.061145 0.220245
v 0.220105 0.501495 0.779755
v 0.220105 0.501495 0.220245
v 0.779755 1.061145 0.220245
v 0.779755 1.061145 0.779755
v 0.779755 0.501495 0.220245
v 0.779755 0.501495 0.779755
vt 0.24 0.49230769
vt 0.13333333 0.49230769
vt 0.13333333 0.43076923
vt 0.24 0.43076923
vn 0 0 -1
usemtl texture
f 92/268/67 95/267/67 93/266/67 90/265/67
vt 0.24 0.49230769
vt 0.13333333 0.49230769
vt 0.13333333 0.43076923
vt 0.24 0.43076923
vn 1 0 0
usemtl texture
f 91/272/68 92/271/68 90/270/68 89/269/68
vt 0.24 0.49230769
vt 0.13333333 0.49230769
vt 0.13333333 0.43076923
vt 0.24 0.43076923
vn 0 0 1
usemtl texture
f 96/276/69 91/275/69 89/274/69 94/273/69
vt 0.24 0.49230769
vt 0.13333333 0.49230769
vt 0.13333333 0.43076923
vt 0.24 0.43076923
vn -1 0 0
usemtl texture
f 95/280/70 96/279/70 94/278/70 93/277/70
vt 0.24 0.49230769
vt 0.13333333 0.49230769
vt 0.13333333 0.43076923
vt 0.24 0.43076923
vn 0 1 0
usemtl texture
f 94/284/71 89/283/71 90/282/71 93/281/71
vt 0.24 0.49230769
vt 0.13333333 0.49230769
vt 0.13333333 0.43076923
vt 0.24 0.43076923
vn 0 -1 0
usemtl texture
f 95/288/72 92/287/72 91/286/72 96/285/72

o cube
v 1 0.4375 1
v 1 0.4375 0
v 1 0 1
v 1 0 0
v 0 0.4375 0
v 0 0.4375 1
v 0 0 0
v 0 0 1
vt 0.25333333 0.46153846
vt 0.36 0.46153846
vt 0.36 0.43076923
vt 0.25333333 0.43076923
vn 0 0 -1
usemtl texture
f 100/292/73 103/291/73 101/290/73 98/289/73
vt 0.13333333 0.39230769
vt 0.24 0.39230769
vt 0.24 0.36153846
vt 0.13333333 0.36153846
vn 1 0 0
usemtl texture
f 99/296/74 100/295/74 98/294/74 97/293/74
vt 0.25333333 0.46153846
vt 0.36 0.46153846
vt 0.36 0.43076923
vt 0.25333333 0.43076923
vn 0 0 1
usemtl texture
f 104/300/75 99/299/75 97/298/75 102/297/75
vt 0.13333333 0.39230769
vt 0.24 0.39230769
vt 0.24 0.36153846
vt 0.13333333 0.36153846
vn -1 0 0
usemtl texture
f 103/304/76 104/303/76 102/302/76 101/301/76
vt 0.73333333 0.49230769
vt 0.84 0.49230769
vt 0.84 0.43076923
vt 0.73333333 0.43076923
vn 0 1 0
usemtl texture
f 102/308/77 97/307/77 98/306/77 101/305/77
vt 0.25333333 0.46153846
vt 0.36 0.46153846
vt 0.36 0.43076923
vt 0.25333333 0.43076923
vn 0 -1 0
usemtl texture
f 103/312/78 100/311/78 99/310/78 104/309/78

o cube
v 0.875 0.5 0.875
v 0.875 0.5 0.125
v 0.875 0 0.875
v 0.875 0 0.125
v 0.125 0.5 0.125
v 0.125 0.5 0.875
v 0.125 0 0.125
v 0.125 0 0.875
vt 0.49333333 0.46153846
vt 0.6 0.46153846
vt 0.6 0.43076923
vt 0.49333333 0.43076923
vn 0 0 -1
usemtl texture
f 108/316/79 111/315/79 109/314/79 106/313/79
vt 0.49333333 0.46153846
vt 0.6 0.46153846
vt 0.6 0.43076923
vt 0.49333333 0.43076923
vn 1 0 0
usemtl texture
f 107/320/80 108/319/80 106/318/80 105/317/80
vt 0.49333333 0.46153846
vt 0.6 0.46153846
vt 0.6 0.43076923
vt 0.49333333 0.43076923
vn 0 0 1
usemtl texture
f 112/324/81 107/323/81 105/322/81 110/321/81
vt 0.49333333 0.46153846
vt 0.6 0.46153846
vt 0.6 0.43076923
vt 0.49333333 0.43076923
vn -1 0 0
usemtl texture
f 111/328/82 112/327/82 110/326/82 109/325/82
vt 0.61333333 0.49230769
vt 0.72 0.49230769
vt 0.72 0.43076923
vt 0.61333333 0.43076923
vn 0 1 0
usemtl texture
f 110/332/83 105/331/83 106/330/83 109/329/83
vt 0.37333333 0.49230769
vt 0.48 0.49230769
vt 0.48 0.43076923
vt 0.37333333 0.43076923
vn 0 -1 0
usemtl texture
f 111/336/84 108/335/84 107/334/84 112/333/84

o cube
v 0.15088835 0.9375 1.02588835
v 0.15088835 0.9375 1.02588835
v 0.15088835 0.4375 1.02588835
v 0.15088835 0.4375 1.02588835
v -0.02588835 0.9375 0.84911165
v -0.02588835 0.9375 0.84911165
v -0.02588835 0.4375 0.84911165
v -0.02588835 0.4375 0.84911165
vt 0.04 0.96153846
vt 0.09333333 0.96153846
vt 0.09333333 0.93076923
vt 0.04 0.93076923
vn 0.70710678 0 -0.70710678
usemtl texture
f 116/340/85 119/339/85 117/338/85 114/337/85
vt 0.09333333 0.96153846
vt 0.04 0.96153846
vt 0.04 0.93076923
vt 0.09333333 0.93076923
vn -0.70710678 0 0.70710678
usemtl texture
f 120/344/86 115/343/86 113/342/86 118/341/86

o cube
v 0.125 0.5 0.125
v 0.125 0.5 0.0625
v 0.125 0.4375 0.125
v 0.125 0.4375 0.0625
v 0.0625 0.5 0.0625
v 0.0625 0.5 0.125
v 0.0625 0.4375 0.0625
v 0.0625 0.4375 0.125
vt 0.62 0.47692308
vt 0.62666667 0.47692308
vt 0.62666667 0.47307692
vt 0.62 0.47307692
vn 0 0 -1
usemtl texture
f 124/348/87 127/347/87 125/346/87 122/345/87
vt 0.62 0.47692308
vt 0.62666667 0.47692308
vt 0.62666667 0.47307692
vt 0.62 0.47307692
vn 1 0 0
usemtl texture
f 123/352/88 124/351/88 122/350/88 121/349/88
vt 0.62 0.47692308
vt 0.62666667 0.47692308
vt 0.62666667 0.47307692
vt 0.62 0.47307692
vn 0 0 1
usemtl texture
f 128/356/89 123/355/89 121/354/89 126/353/89
vt 0.62 0.47692308
vt 0.62666667 0.47692308
vt 0.62666667 0.47307692
vt 0.62 0.47307692
vn -1 0 0
usemtl texture
f 127/360/90 128/359/90 126/358/90 125/357/90
vt 0.62 0.47692308
vt 0.62666667 0.47692308
vt 0.62666667 0.47307692
vt 0.62 0.47307692
vn 0 1 0
usemtl texture
f 126/364/91 121/363/91 122/362/91 125/361/91
vt 0.62 0.47692308
vt 0.62666667 0.47692308
vt 0.62666667 0.47307692
vt 0.62 0.47307692
vn 0 -1 0
usemtl texture
f 127/368/92 124/367/92 123/366/92 128/365/92

o cube
v 0.9375 0.5 0.125
v 0.9375 0.5 0.0625
v 0.9375 0.4375 0.125
v 0.9375 0.4375 0.0625
v 0.875 0.5 0.0625
v 0.875 0.5 0.125
v 0.875 0.4375 0.0625
v 0.875 0.4375 0.125
vt 0.62 0.47692308
vt 0.62666667 0.47692308
vt 0.62666667 0.47307692
vt 0.62 0.47307692
vn 0 0 -1
usemtl texture
f 132/372/93 135/371/93 133/370/93 130/369/93
vt 0.62 0.47692308
vt 0.62666667 0.47692308
vt 0.62666667 0.47307692
vt 0.62 0.47307692
vn 1 0 0
usemtl texture
f 131/376/94 132/375/94 130/374/94 129/373/94
vt 0.62 0.47692308
vt 0.62666667 0.47692308
vt 0.62666667 0.47307692
vt 0.62 0.47307692
vn 0 0 1
usemtl texture
f 136/380/95 131/379/95 129/378/95 134/377/95
vt 0.62 0.47692308
vt 0.62666667 0.47692308
vt 0.62666667 0.47307692
vt 0.62 0.47307692
vn -1 0 0
usemtl texture
f 135/384/96 136/383/96 134/382/96 133/381/96
vt 0.62 0.47692308
vt 0.62666667 0.47692308
vt 0.62666667 0.47307692
vt 0.62 0.47307692
vn 0 1 0
usemtl texture
f 134/388/97 129/387/97 130/386/97 133/385/97
vt 0.62 0.47692308
vt 0.62666667 0.47692308
vt 0.62666667 0.47307692
vt 0.62 0.47307692
vn 0 -1 0
usemtl texture
f 135/392/98 132/391/98 131/390/98 136/389/98

o cube
v 0.9375 0.5 0.9375
v 0.9375 0.5 0.875
v 0.9375 0.4375 0.9375
v 0.9375 0.4375 0.875
v 0.875 0.5 0.875
v 0.875 0.5 0.9375
v 0.875 0.4375 0.875
v 0.875 0.4375 0.9375
vt 0.62 0.47692308
vt 0.62666667 0.47692308
vt 0.62666667 0.47307692
vt 0.62 0.47307692
vn 0 0 -1
usemtl texture
f 140/396/99 143/395/99 141/394/99 138/393/99
vt 0.62 0.47692308
vt 0.62666667 0.47692308
vt 0.62666667 0.47307692
vt 0.62 0.47307692
vn 1 0 0
usemtl texture
f 139/400/100 140/399/100 138/398/100 137/397/100
vt 0.62 0.47692308
vt 0.62666667 0.47692308
vt 0.62666667 0.47307692
vt 0.62 0.47307692
vn 0 0 1
usemtl texture
f 144/404/101 139/403/101 137/402/101 142/401/101
vt 0.62 0.47692308
vt 0.62666667 0.47692308
vt 0.62666667 0.47307692
vt 0.62 0.47307692
vn -1 0 0
usemtl texture
f 143/408/102 144/407/102 142/406/102 141/405/102
vt 0.62 0.47692308
vt 0.62666667 0.47692308
vt 0.62666667 0.47307692
vt 0.62 0.47307692
vn 0 1 0
usemtl texture
f 142/412/103 137/411/103 138/410/103 141/409/103
vt 0.62 0.47692308
vt 0.62666667 0.47692308
vt 0.62666667 0.47307692
vt 0.62 0.47307692
vn 0 -1 0
usemtl texture
f 143/416/104 140/415/104 139/414/104 144/413/104

o cube
v 0.125 0.5 0.9375
v 0.125 0.5 0.875
v 0.125 0.4375 0.9375
v 0.125 0.4375 0.875
v 0.0625 0.5 0.875
v 0.0625 0.5 0.9375
v 0.0625 0.4375 0.875
v 0.0625 0.4375 0.9375
vt 0.62 0.47692308
vt 0.62666667 0.47692308
vt 0.62666667 0.47307692
vt 0.62 0.47307692
vn 0 0 -1
usemtl texture
f 148/420/105 151/419/105 149/418/105 146/417/105
vt 0.62 0.47692308
vt 0.62666667 0.47692308
vt 0.62666667 0.47307692
vt 0.62 0.47307692
vn 1 0 0
usemtl texture
f 147/424/106 148/423/106 146/422/106 145/421/106
vt 0.62 0.47692308
vt 0.62666667 0.47692308
vt 0.62666667 0.47307692
vt 0.62 0.47307692
vn 0 0 1
usemtl texture
f 152/428/107 147/427/107 145/426/107 150/425/107
vt 0.62 0.47692308
vt 0.62666667 0.47692308
vt 0.62666667 0.47307692
vt 0.62 0.47307692
vn -1 0 0
usemtl texture
f 151/432/108 152/431/108 150/430/108 149/429/108
vt 0.62 0.47692308
vt 0.62666667 0.47692308
vt 0.62666667 0.47307692
vt 0.62 0.47307692
vn 0 1 0
usemtl texture
f 150/436/109 145/435/109 146/434/109 149/433/109
vt 0.62 0.47692308
vt 0.62666667 0.47692308
vt 0.62666667 0.47307692
vt 0.62 0.47307692
vn 0 -1 0
usemtl texture
f 151/440/110 148/439/110 147/438/110 152/437/110

o cube
v 0.78125 1.1875 0.78125
v 0.78125 1.1875 0.21875
v 0.78125 1.0625 0.78125
v 0.78125 1.0625 0.21875
v 0.21875 1.1875 0.21875
v 0.21875 1.1875 0.78125
v 0.21875 1.0625 0.21875
v 0.21875 1.0625 0.78125
vt 0.00133333 1
vt 0.06133333 1
vt 0.06133333 0.99230769
vt 0.00133333 0.99230769
vn 0 0 -1
usemtl texture
f 156/444/111 159/443/111 157/442/111 154/441/111
vt 0.00066667 1
vt 0.06066667 1
vt 0.06066667 0.99230769
vt 0.00066667 0.99230769
vn 1 0 0
usemtl texture
f 155/448/112 156/447/112 154/446/112 153/445/112
vt 0 1
vt 0.06 1
vt 0.06 0.99230769
vt 0 0.99230769
vn 0 0 1
usemtl texture
f 160/452/113 155/451/113 153/450/113 158/449/113
vt 0.00333333 1
vt 0.06333333 1
vt 0.06333333 0.99230769
vt 0.00333333 0.99230769
vn -1 0 0
usemtl texture
f 159/456/114 160/455/114 158/454/114 157/453/114
vt 0 0.99807692
vt 0.06 0.99807692
vt 0.06 0.96346154
vt 0 0.96346154
vn 0 1 0
usemtl texture
f 158/460/115 153/459/115 154/458/115 157/457/115
vt 0 0.99961538
vt 0.06 0.99961538
vt 0.06 0.965
vt 0 0.965
vn 0 -1 0
usemtl texture
f 159/464/116 156/463/116 155/462/116 160/461/116

o cube
v 0.9375 0.5625 0.625
v 0.9375 0.5625 0.375
v 0.9375 0.4375 0.625
v 0.9375 0.4375 0.375
v 0.875 0.5625 0.375
v 0.875 0.5625 0.625
v 0.875 0.4375 0.375
v 0.875 0.4375 0.625
vt 0.9 0.48461538
vt 0.90666667 0.48461538
vt 0.90666667 0.47692308
vt 0.9 0.47692308
vn 0 0 -1
usemtl texture
f 164/468/117 167/467/117 165/466/117 162/465/117
vt 0.85333333 0.49230769
vt 0.88 0.49230769
vt 0.88 0.48461538
vt 0.85333333 0.48461538
vn 1 0 0
usemtl texture
f 163/472/118 164/471/118 162/470/118 161/469/118
vt 0.9 0.47692308
vt 0.90666667 0.47692308
vt 0.90666667 0.46923077
vt 0.9 0.46923077
vn 0 0 1
usemtl texture
f 168/476/119 163/475/119 161/474/119 166/473/119
vt 0.85333333 0.48461538
vt 0.88 0.48461538
vt 0.88 0.47692308
vt 0.85333333 0.47692308
vn -1 0 0
usemtl texture
f 167/480/120 168/479/120 166/478/120 165/477/120
vt 0.87333333 0.45384615
vt 0.86666667 0.45384615
vt 0.86666667 0.46923077
vt 0.87333333 0.46923077
vn 0 1 0
usemtl texture
f 166/484/121 161/483/121 162/482/121 165/481/121
vt 0.9 0.48461538
vt 0.89333333 0.48461538
vt 0.89333333 0.46923077
vt 0.9 0.46923077
vn 0 -1 0
usemtl texture
f 167/488/122 164/487/122 163/486/122 168/485/122

o cube
v 0.875 0.625 0.625
v 0.875 0.625 0.375
v 0.875 0.5 0.625
v 0.875 0.5 0.375
v 0.775 0.625 0.375
v 0.775 0.625 0.625
v 0.775 0.5 0.375
v 0.775 0.5 0.625
vt 0.87333333 0.46923077
vt 0.88666667 0.46923077
vt 0.88666667 0.46153846
vt 0.87333333 0.46153846
vn 0 0 -1
usemtl texture
f 172/492/123 175/491/123 173/490/123 170/489/123
vt 0.85333333 0.47692308
vt 0.88 0.47692308
vt 0.88 0.46923077
vt 0.85333333 0.46923077
vn 1 0 0
usemtl texture
f 171/496/124 172/495/124 170/494/124 169/493/124
vt 0.88666667 0.46923077
vt 0.9 0.46923077
vt 0.9 0.46153846
vt 0.88666667 0.46153846
vn 0 0 1
usemtl texture
f 176/500/125 171/499/125 169/498/125 174/497/125
vt 0.88 0.49230769
vt 0.90666667 0.49230769
vt 0.90666667 0.48461538
vt 0.88 0.48461538
vn -1 0 0
usemtl texture
f 175/504/126 176/503/126 174/502/126 173/501/126
vt 0.89333333 0.46923077
vt 0.88 0.46923077
vt 0.88 0.48461538
vt 0.89333333 0.48461538
vn 0 1 0
usemtl texture
f 174/508/127 169/507/127 170/506/127 173/505/127
vt 0.86666667 0.46923077
vt 0.85333333 0.46923077
vt 0.85333333 0.45384615
vt 0.86666667 0.45384615
vn 0 -1 0
usemtl texture
f 175/512/128 172/511/128 171/510/128 176/509/128

o cube
v 0.125 0.625 0.375
v 0.125 0.625 0.625
v 0.125 0.5 0.375
v 0.125 0.5 0.625
v 0.225 0.625 0.625
v 0.225 0.625 0.375
v 0.225 0.5 0.625
v 0.225 0.5 0.375
vt 0.87333333 0.46923077
vt 0.88666667 0.46923077
vt 0.88666667 0.46153846
vt 0.87333333 0.46153846
vn 0 0 1
usemtl texture
f 180/516/129 183/515/129 181/514/129 178/513/129
vt 0.85333333 0.47692308
vt 0.88 0.47692308
vt 0.88 0.46923077
vt 0.85333333 0.46923077
vn -1 0 0
usemtl texture
f 179/520/130 180/519/130 178/518/130 177/517/130
vt 0.88666667 0.46923077
vt 0.9 0.46923077
vt 0.9 0.46153846
vt 0.88666667 0.46153846
vn 0 0 -1
usemtl texture
f 184/524/131 179/523/131 177/522/131 182/521/131
vt 0.88 0.49230769
vt 0.90666667 0.49230769
vt 0.90666667 0.48461538
vt 0.88 0.48461538
vn 1 0 0
usemtl texture
f 183/528/132 184/527/132 182/526/132 181/525/132
vt 0.89333333 0.46923077
vt 0.88 0.46923077
vt 0.88 0.48461538
vt 0.89333333 0.48461538
vn 0 1 0
usemtl texture
f 182/532/133 177/531/133 178/530/133 181/529/133
vt 0.86666667 0.46923077
vt 0.85333333 0.46923077
vt 0.85333333 0.45384615
vt 0.86666667 0.45384615
vn 0 -1 0
usemtl texture
f 183/536/134 180/535/134 179/534/134 184/533/134

o cube
v 0.0625 0.5625 0.375
v 0.0625 0.5625 0.625
v 0.0625 0.4375 0.375
v 0.0625 0.4375 0.625
v 0.125 0.5625 0.625
v 0.125 0.5625 0.375
v 0.125 0.4375 0.625
v 0.125 0.4375 0.375
vt 0.9 0.48461538
vt 0.90666667 0.48461538
vt 0.90666667 0.47692308
vt 0.9 0.47692308
vn 0 0 1
usemtl texture
f 188/540/135 191/539/135 189/538/135 186/537/135
vt 0.85333333 0.49230769
vt 0.88 0.49230769
vt 0.88 0.48461538
vt 0.85333333 0.48461538
vn -1 0 0
usemtl texture
f 187/544/136 188/543/136 186/542/136 185/541/136
vt 0.9 0.47692308
vt 0.90666667 0.47692308
vt 0.90666667 0.46923077
vt 0.9 0.46923077
vn 0 0 -1
usemtl texture
f 192/548/137 187/547/137 185/546/137 190/545/137
vt 0.85333333 0.48461538
vt 0.88 0.48461538
vt 0.88 0.47692308
vt 0.85333333 0.47692308
vn 1 0 0
usemtl texture
f 191/552/138 192/551/138 190/550/138 189/549/138
vt 0.87333333 0.45384615
vt 0.86666667 0.45384615
vt 0.86666667 0.46923077
vt 0.87333333 0.46923077
vn 0 1 0
usemtl texture
f 190/556/139 185/555/139 186/554/139 189/553/139
vt 0.9 0.48461538
vt 0.89333333 0.48461538
vt 0.89333333 0.46923077
vt 0.9 0.46923077
vn 0 -1 0
usemtl texture
f 191/560/140 188/559/140 187/558/140 192/557/140

o cube
v 0.5625 0.84375 0.15625
v 0.5625 0.84375 0.09375
v 0.5625 0.71875 0.15625
v 0.5625 0.71875 0.09375
v 0.4375 0.84375 0.09375
v 0.4375 0.84375 0.15625
v 0.4375 0.71875 0.09375
v 0.4375 0.71875 0.15625
vt 0.26 0.37692308
vt 0.27333333 0.37692308
vt 0.27333333 0.36923077
vt 0.26 0.36923077
vn 0 0 -1
usemtl texture
f 196/564/141 199/563/141 197/562/141 194/561/141
vt 0.3 0.37692308
vt 0.30666667 0.37692308
vt 0.30666667 0.36923077
vt 0.3 0.36923077
vn 1 0 0
usemtl texture
f 195/568/142 196/567/142 194/566/142 193/565/142
vt 0.27333333 0.37692308
vt 0.28666667 0.37692308
vt 0.28666667 0.36923077
vt 0.27333333 0.36923077
vn 0 0 1
usemtl texture
f 200/572/143 195/571/143 193/570/143 198/569/143
vt 0.33333333 0.38076923
vt 0.34 0.38076923
vt 0.34 0.37307692
vt 0.33333333 0.37307692
vn -1 0 0
usemtl texture
f 199/576/144 200/575/144 198/574/144 197/573/144
vt 0.35333333 0.41923077
vt 0.34 0.41923077
vt 0.34 0.42307692
vt 0.35333333 0.42307692
vn 0 1 0
usemtl texture
f 198/580/145 193/579/145 194/578/145 197/577/145
vt 0.35333333 0.41923077
vt 0.34 0.41923077
vt 0.34 0.41538462
vt 0.35333333 0.41538462
vn 0 -1 0
usemtl texture
f 199/584/146 196/583/146 195/582/146 200/581/146

o cube
v 0.625 0.90625 0.21875
v 0.625 0.90625 0.15625
v 0.625 0.65625 0.21875
v 0.625 0.65625 0.15625
v 0.375 0.90625 0.15625
v 0.375 0.90625 0.21875
v 0.375 0.65625 0.15625
v 0.375 0.65625 0.21875
vt 0.25333333 0.42307692
vt 0.28 0.42307692
vt 0.28 0.40769231
vt 0.25333333 0.40769231
vn 0 0 -1
usemtl texture
f 204/588/147 207/587/147 205/586/147 202/585/147
vt 0.25333333 0.39230769
vt 0.26 0.39230769
vt 0.26 0.37692308
vt 0.25333333 0.37692308
vn 1 0 0
usemtl texture
f 203/592/148 204/591/148 202/590/148 201/589/148
vt 0.25333333 0.40769231
vt 0.28 0.40769231
vt 0.28 0.39230769
vt 0.25333333 0.39230769
vn 0 0 1
usemtl texture
f 208/596/149 203/595/149 201/594/149 206/593/149
vt 0.30666667 0.42307692
vt 0.31333333 0.42307692
vt 0.31333333 0.40769231
vt 0.30666667 0.40769231
vn -1 0 0
usemtl texture
f 207/600/150 208/599/150 206/598/150 205/597/150
vt 0.33333333 0.40384615
vt 0.30666667 0.40384615
vt 0.30666667 0.40769231
vt 0.33333333 0.40769231
vn 0 1 0
usemtl texture
f 206/604/151 201/603/151 202/602/151 205/601/151
vt 0.33333333 0.40384615
vt 0.30666667 0.40384615
vt 0.30666667 0.4
vt 0.33333333 0.4
vn 0 -1 0
usemtl texture
f 207/608/152 204/607/152 203/606/152 208/605/152

o cube
v 0.375 0.96875 0.03125
v 0.375 0.96875 -0.03125
v 0.375 0.59375 0.03125
v 0.375 0.59375 -0.03125
v 0.3125 0.96875 -0.03125
v 0.3125 0.96875 0.03125
v 0.3125 0.59375 -0.03125
v 0.3125 0.59375 0.03125
vt 0.28 0.42307692
vt 0.28666667 0.42307692
vt 0.28666667 0.4
vt 0.28 0.4
vn 0 0 -1
usemtl texture
f 212/612/153 215/611/153 213/610/153 210/609/153
vt 0.28666667 0.42307692
vt 0.29333333 0.42307692
vt 0.29333333 0.4
vt 0.28666667 0.4
vn 1 0 0
usemtl texture
f 211/616/154 212/615/154 210/614/154 209/613/154
vt 0.29333333 0.42307692
vt 0.3 0.42307692
vt 0.3 0.4
vt 0.29333333 0.4
vn 0 0 1
usemtl texture
f 216/620/155 211/619/155 209/618/155 214/617/155
vt 0.28 0.4
vt 0.28666667 0.4
vt 0.28666667 0.37692308
vt 0.28 0.37692308
vn -1 0 0
usemtl texture
f 215/624/156 216/623/156 214/622/156 213/621/156
vt 0.34666667 0.41153846
vt 0.34 0.41153846
vt 0.34 0.41538462
vt 0.34666667 0.41538462
vn 0 1 0
usemtl texture
f 214/628/157 209/627/157 210/626/157 213/625/157
vt 0.34666667 0.41153846
vt 0.34 0.41153846
vt 0.34 0.40769231
vt 0.34666667 0.40769231
vn 0 -1 0
usemtl texture
f 215/632/158 212/631/158 211/630/158 216/629/158

o cube
v 0.625 0.65625 0.03125
v 0.625 0.65625 -0.03125
v 0.625 0.59375 0.03125
v 0.625 0.59375 -0.03125
v 0.375 0.65625 -0.03125
v 0.375 0.65625 0.03125
v 0.375 0.59375 -0.03125
v 0.375 0.59375 0.03125
vt 0.30666667 0.4
vt 0.33333333 0.4
vt 0.33333333 0.39615385
vt 0.30666667 0.39615385
vn 0 0 -1
usemtl texture
f 220/636/159 223/635/159 221/634/159 218/633/159
vt 0.34 0.38076923
vt 0.34666667 0.38076923
vt 0.34666667 0.37692308
vt 0.34 0.37692308
vn 1 0 0
usemtl texture
f 219/640/160 220/639/160 218/638/160 217/637/160
vt 0.30666667 0.39615385
vt 0.33333333 0.39615385
vt 0.33333333 0.39230769
vt 0.30666667 0.39230769
vn 0 0 1
usemtl texture
f 224/644/161 219/643/161 217/642/161 222/641/161
vt 0.33333333 0.37307692
vt 0.34 0.37307692
vt 0.34 0.36923077
vt 0.33333333 0.36923077
vn -1 0 0
usemtl texture
f 223/648/162 224/647/162 222/646/162 221/645/162
vt 0.33333333 0.38846154
vt 0.30666667 0.38846154
vt 0.30666667 0.39230769
vt 0.33333333 0.39230769
vn 0 1 0
usemtl texture
f 222/652/163 217/651/163 218/650/163 221/649/163
vt 0.34 0.42307692
vt 0.31333333 0.42307692
vt 0.31333333 0.41923077
vt 0.34 0.41923077
vn 0 -1 0
usemtl texture
f 223/656/164 220/655/164 219/654/164 224/653/164

o cube
v 0.6875 0.96875 0.03125
v 0.6875 0.96875 -0.03125
v 0.6875 0.59375 0.03125
v 0.6875 0.59375 -0.03125
v 0.625 0.96875 -0.03125
v 0.625 0.96875 0.03125
v 0.625 0.59375 -0.03125
v 0.625 0.59375 0.03125
vt 0.28666667 0.4
vt 0.29333333 0.4
vt 0.29333333 0.37692308
vt 0.28666667 0.37692308
vn 0 0 -1
usemtl texture
f 228/660/165 231/659/165 229/658/165 226/657/165
vt 0.29333333 0.4
vt 0.3 0.4
vt 0.3 0.37692308
vt 0.29333333 0.37692308
vn 1 0 0
usemtl texture
f 227/664/166 228/663/166 226/662/166 225/661/166
vt 0.3 0.42307692
vt 0.30666667 0.42307692
vt 0.30666667 0.4
vt 0.3 0.4
vn 0 0 1
usemtl texture
f 232/668/167 227/667/167 225/666/167 230/665/167
vt 0.3 0.4
vt 0.30666667 0.4
vt 0.30666667 0.37692308
vt 0.3 0.37692308
vn -1 0 0
usemtl texture
f 231/672/168 232/671/168 230/670/168 229/669/168
vt 0.29333333 0.36923077
vt 0.28666667 0.36923077
vt 0.28666667 0.37307692
vt 0.29333333 0.37307692
vn 0 1 0
usemtl texture
f 230/676/169 225/675/169 226/674/169 229/673/169
vt 0.3 0.37307692
vt 0.29333333 0.37307692
vt 0.29333333 0.36923077
vt 0.3 0.36923077
vn 0 -1 0
usemtl texture
f 231/680/170 228/679/170 227/678/170 232/677/170

o cube
v 0.625 0.96875 0.03125
v 0.625 0.96875 -0.03125
v 0.625 0.90625 0.03125
v 0.625 0.90625 -0.03125
v 0.375 0.96875 -0.03125
v 0.375 0.96875 0.03125
v 0.375 0.90625 -0.03125
v 0.375 0.90625 0.03125
vt 0.31333333 0.41923077
vt 0.34 0.41923077
vt 0.34 0.41538462
vt 0.31333333 0.41538462
vn 0 0 -1
usemtl texture
f 236/684/171 239/683/171 237/682/171 234/681/171
vt 0.34 0.37692308
vt 0.34666667 0.37692308
vt 0.34666667 0.37307692
vt 0.34 0.37307692
vn 1 0 0
usemtl texture
f 235/688/172 236/687/172 234/686/172 233/685/172
vt 0.31333333 0.41538462
vt 0.34 0.41538462
vt 0.34 0.41153846
vt 0.31333333 0.41153846
vn 0 0 1
usemtl texture
f 240/692/173 235/691/173 233/690/173 238/689/173
vt 0.34 0.37307692
vt 0.34666667 0.37307692
vt 0.34666667 0.36923077
vt 0.34 0.36923077
vn -1 0 0
usemtl texture
f 239/696/174 240/695/174 238/694/174 237/693/174
vt 0.34 0.40769231
vt 0.31333333 0.40769231
vt 0.31333333 0.41153846
vt 0.34 0.41153846
vn 0 1 0
usemtl texture
f 238/700/175 233/699/175 234/698/175 237/697/175
vt 0.33333333 0.38846154
vt 0.30666667 0.38846154
vt 0.30666667 0.38461538
vt 0.33333333 0.38461538
vn 0 -1 0
usemtl texture
f 239/704/176 236/703/176 235/702/176 240/701/176

o cube
v 0.625 0.90625 0.09375
v 0.625 0.90625 0.03125
v 0.625 0.65625 0.09375
v 0.625 0.65625 0.03125
v 0.5625 0.90625 0.03125
v 0.5625 0.90625 0.09375
v 0.5625 0.65625 0.03125
v 0.5625 0.65625 0.09375
vt 0.26 0.39230769
vt 0.26666667 0.39230769
vt 0.26666667 0.37692308
vt 0.26 0.37692308
vn 0 0 -1
usemtl texture
f 244/708/177 247/707/177 245/706/177 242/705/177
vt 0.25333333 0.37692308
vt 0.26 0.37692308
vt 0.26 0.36153846
vt 0.25333333 0.36153846
vn 1 0 0
usemtl texture
f 243/712/178 244/711/178 242/710/178 241/709/178
vt 0.27333333 0.39230769
vt 0.28 0.39230769
vt 0.28 0.37692308
vt 0.27333333 0.37692308
vn 0 0 1
usemtl texture
f 248/716/179 243/715/179 241/714/179 246/713/179
vt 0.30666667 0.38461538
vt 0.31333333 0.38461538
vt 0.31333333 0.36923077
vt 0.30666667 0.36923077
vn -1 0 0
usemtl texture
f 247/720/180 248/719/180 246/718/180 245/717/180
vt 0.26666667 0.36538462
vt 0.26 0.36538462
vt 0.26 0.36923077
vt 0.26666667 0.36923077
vn 0 1 0
usemtl texture
f 246/724/181 241/723/181 242/722/181 245/721/181
vt 0.27333333 0.36923077
vt 0.26666667 0.36923077
vt 0.26666667 0.36538462
vt 0.27333333 0.36538462
vn 0 -1 0
usemtl texture
f 247/728/182 244/727/182 243/726/182 248/725/182

o cube
v 0.5625 0.71875 0.09375
v 0.5625 0.71875 0.03125
v 0.5625 0.65625 0.09375
v 0.5625 0.65625 0.03125
v 0.4375 0.71875 0.03125
v 0.4375 0.71875 0.09375
v 0.4375 0.65625 0.03125
v 0.4375 0.65625 0.09375
vt 0.33333333 0.40769231
vt 0.34666667 0.40769231
vt 0.34666667 0.40384615
vt 0.33333333 0.40384615
vn 0 0 -1
usemtl texture
f 252/732/183 255/731/183 253/730/183 250/729/183
vt 0.34666667 0.41153846
vt 0.35333333 0.41153846
vt 0.35333333 0.40769231
vt 0.34666667 0.40769231
vn 1 0 0
usemtl texture
f 251/736/184 252/735/184 250/734/184 249/733/184
vt 0.28666667 0.37692308
vt 0.3 0.37692308
vt 0.3 0.37307692
vt 0.28666667 0.37307692
vn 0 0 1
usemtl texture
f 256/740/185 251/739/185 249/738/185 254/737/185
vt 0.28 0.36923077
vt 0.28666667 0.36923077
vt 0.28666667 0.36538462
vt 0.28 0.36538462
vn -1 0 0
usemtl texture
f 255/744/186 256/743/186 254/742/186 253/741/186
vt 0.34666667 0.4
vt 0.33333333 0.4
vt 0.33333333 0.40384615
vt 0.34666667 0.40384615
vn 0 1 0
usemtl texture
f 254/748/187 249/747/187 250/746/187 253/745/187
vt 0.34666667 0.4
vt 0.33333333 0.4
vt 0.33333333 0.39615385
vt 0.34666667 0.39615385
vn 0 -1 0
usemtl texture
f 255/752/188 252/751/188 251/750/188 256/749/188

o cube
v 0.4375 0.90625 0.09375
v 0.4375 0.90625 0.03125
v 0.4375 0.65625 0.09375
v 0.4375 0.65625 0.03125
v 0.375 0.90625 0.03125
v 0.375 0.90625 0.09375
v 0.375 0.65625 0.03125
v 0.375 0.65625 0.09375
vt 0.31333333 0.38461538
vt 0.32 0.38461538
vt 0.32 0.36923077
vt 0.31333333 0.36923077
vn 0 0 -1
usemtl texture
f 260/756/189 263/755/189 261/754/189 258/753/189
vt 0.32 0.38461538
vt 0.32666667 0.38461538
vt 0.32666667 0.36923077
vt 0.32 0.36923077
vn 1 0 0
usemtl texture
f 259/760/190 260/759/190 258/758/190 257/757/190
vt 0.32666667 0.38461538
vt 0.33333333 0.38461538
vt 0.33333333 0.36923077
vt 0.32666667 0.36923077
vn 0 0 1
usemtl texture
f 264/764/191 259/763/191 257/762/191 262/761/191
vt 0.25333333 0.37692308
vt 0.26 0.37692308
vt 0.26 0.36153846
vt 0.25333333 0.36153846
vn -1 0 0
usemtl texture
f 263/768/192 264/767/192 262/766/192 261/765/192
vt 0.35333333 0.41153846
vt 0.34666667 0.41153846
vt 0.34666667 0.41538462
vt 0.35333333 0.41538462
vn 0 1 0
usemtl texture
f 262/772/193 257/771/193 258/770/193 261/769/193
vt 0.28 0.36923077
vt 0.27333333 0.36923077
vt 0.27333333 0.36538462
vt 0.28 0.36538462
vn 0 -1 0
usemtl texture
f 263/776/194 260/775/194 259/774/194 264/773/194

o cube
v 0.5625 0.90625 0.09375
v 0.5625 0.90625 0.03125
v 0.5625 0.84375 0.09375
v 0.5625 0.84375 0.03125
v 0.4375 0.90625 0.03125
v 0.4375 0.90625 0.09375
v 0.4375 0.84375 0.03125
v 0.4375 0.84375 0.09375
vt 0.33333333 0.39615385
vt 0.34666667 0.39615385
vt 0.34666667 0.39230769
vt 0.33333333 0.39230769
vn 0 0 -1
usemtl texture
f 268/780/195 271/779/195 269/778/195 266/777/195
vt 0.34666667 0.40769231
vt 0.35333333 0.40769231
vt 0.35333333 0.40384615
vt 0.34666667 0.40384615
vn 1 0 0
usemtl texture
f 267/784/196 268/783/196 266/782/196 265/781/196
vt 0.33333333 0.39230769
vt 0.34666667 0.39230769
vt 0.34666667 0.38846154
vt 0.33333333 0.38846154
vn 0 0 1
usemtl texture
f 272/788/197 267/787/197 265/786/197 270/785/197
vt 0.28666667 0.36923077
vt 0.29333333 0.36923077
vt 0.29333333 0.36538462
vt 0.28666667 0.36538462
vn -1 0 0
usemtl texture
f 271/792/198 272/791/198 270/790/198 269/789/198
vt 0.34666667 0.38461538
vt 0.33333333 0.38461538
vt 0.33333333 0.38846154
vt 0.34666667 0.38846154
vn 0 1 0
usemtl texture
f 270/796/199 265/795/199 266/794/199 269/793/199
vt 0.34666667 0.38461538
vt 0.33333333 0.38461538
vt 0.33333333 0.38076923
vt 0.34666667 0.38076923
vn 0 -1 0
usemtl texture
f 271/800/200 268/799/200 267/798/200 272/797/200

o cube
v 0.78125 0.84375 0.21875
v 0.78125 0.84375 0.175
v 0.78125 0.71875 0.21875
v 0.78125 0.71875 0.175
v 0.625 0.84375 0.175
v 0.625 0.84375 0.21875
v 0.625 0.71875 0.175
v 0.625 0.71875 0.21875
vt 0.25333333 0.42307692
vt 0.28666667 0.42307692
vt 0.28666667 0.41538462
vt 0.25333333 0.41538462
vn 0 0 -1
usemtl texture
f 276/804/201 279/803/201 277/802/201 274/801/201
vt 0.25333333 0.39230769
vt 0.26 0.39230769
vt 0.26 0.37692308
vt 0.25333333 0.37692308
vn 1 0 0
usemtl texture
f 275/808/202 276/807/202 274/806/202 273/805/202
vt 0.25333333 0.41538462
vt 0.28666667 0.41538462
vt 0.28666667 0.40769231
vt 0.25333333 0.40769231
vn 0 0 1
usemtl texture
f 280/812/203 275/811/203 273/810/203 278/809/203
vt 0.30666667 0.42307692
vt 0.31333333 0.42307692
vt 0.31333333 0.40769231
vt 0.30666667 0.40769231
vn -1 0 0
usemtl texture
f 279/816/204 280/815/204 278/814/204 277/813/204
vt 0.33333333 0.40384615
vt 0.30666667 0.40384615
vt 0.30666667 0.40769231
vt 0.33333333 0.40769231
vn 0 1 0
usemtl texture
f 278/820/205 273/819/205 274/818/205 277/817/205
vt 0.33333333 0.40384615
vt 0.30666667 0.40384615
vt 0.30666667 0.4
vt 0.33333333 0.4
vn 0 -1 0
usemtl texture
f 279/824/206 276/823/206 275/822/206 280/821/206

o cube
v 0.375 0.84375 0.21875
v 0.375 0.84375 0.175
v 0.375 0.71875 0.21875
v 0.375 0.71875 0.175
v 0.21875 0.84375 0.175
v 0.21875 0.84375 0.21875
v 0.21875 0.71875 0.175
v 0.21875 0.71875 0.21875
vt 0.25333333 0.42307692
vt 0.28666667 0.42307692
vt 0.28666667 0.41538462
vt 0.25333333 0.41538462
vn 0 0 -1
usemtl texture
f 284/828/207 287/827/207 285/826/207 282/825/207
vt 0.25333333 0.39230769
vt 0.26 0.39230769
vt 0.26 0.37692308
vt 0.25333333 0.37692308
vn 1 0 0
usemtl texture
f 283/832/208 284/831/208 282/830/208 281/829/208
vt 0.25333333 0.41538462
vt 0.28666667 0.41538462
vt 0.28666667 0.40769231
vt 0.25333333 0.40769231
vn 0 0 1
usemtl texture
f 288/836/209 283/835/209 281/834/209 286/833/209
vt 0.30666667 0.42307692
vt 0.31333333 0.42307692
vt 0.31333333 0.40769231
vt 0.30666667 0.40769231
vn -1 0 0
usemtl texture
f 287/840/210 288/839/210 286/838/210 285/837/210
vt 0.33333333 0.40384615
vt 0.30666667 0.40384615
vt 0.30666667 0.40769231
vt 0.33333333 0.40769231
vn 0 1 0
usemtl texture
f 286/844/211 281/843/211 282/842/211 285/841/211
vt 0.33333333 0.40384615
vt 0.30666667 0.40384615
vt 0.30666667 0.4
vt 0.33333333 0.4
vn 0 -1 0
usemtl texture
f 287/848/212 284/847/212 283/846/212 288/845/212

o cube
v 0.15088835 0.9375 1.02588835
v 0.15088835 0.9375 1.02588835
v 0.15088835 0.4375 1.02588835
v 0.15088835 0.4375 1.02588835
v -0.02588835 0.9375 0.84911165
v -0.02588835 0.9375 0.84911165
v -0.02588835 0.4375 0.84911165
v -0.02588835 0.4375 0.84911165
vt 0.04 0.9
vt 0.09333333 0.9
vt 0.09333333 0.86923077
vt 0.04 0.86923077
vn 0.70710678 0 -0.70710678
usemtl texture
f 292/852/213 295/851/213 293/850/213 290/849/213
vt 0.09333333 0.9
vt 0.04 0.9
vt 0.04 0.86923077
vt 0.09333333 0.86923077
vn -0.70710678 0 0.70710678
usemtl texture
f 296/856/214 291/855/214 289/854/214 294/853/214

o cube
v 0.15088835 0.9375 1.02588835
v 0.15088835 0.9375 1.02588835
v 0.15088835 0.4375 1.02588835
v 0.15088835 0.4375 1.02588835
v -0.02588835 0.9375 0.84911165
v -0.02588835 0.9375 0.84911165
v -0.02588835 0.4375 0.84911165
v -0.02588835 0.4375 0.84911165
vt 0.04 0.83846154
vt 0.09333333 0.83846154
vt 0.09333333 0.80769231
vt 0.04 0.80769231
vn 0.70710678 0 -0.70710678
usemtl texture
f 300/860/215 303/859/215 301/858/215 298/857/215
vt 0.09333333 0.83846154
vt 0.04 0.83846154
vt 0.04 0.80769231
vt 0.09333333 0.80769231
vn -0.70710678 0 0.70710678
usemtl texture
f 304/864/216 299/863/216 297/862/216 302/861/216

o cube
v 0.15088835 0.9375 1.02588835
v 0.15088835 0.9375 1.02588835
v 0.15088835 0.4375 1.02588835
v 0.15088835 0.4375 1.02588835
v -0.02588835 0.9375 0.84911165
v -0.02588835 0.9375 0.84911165
v -0.02588835 0.4375 0.84911165
v -0.02588835 0.4375 0.84911165
vt 0.04 0.77692308
vt 0.09333333 0.77692308
vt 0.09333333 0.74615385
vt 0.04 0.74615385
vn 0.70710678 0 -0.70710678
usemtl texture
f 308/868/217 311/867/217 309/866/217 306/865/217
vt 0.09333333 0.77692308
vt 0.04 0.77692308
vt 0.04 0.74615385
vt 0.09333333 0.74615385
vn -0.70710678 0 0.70710678
usemtl texture
f 312/872/218 307/871/218 305/870/218 310/869/218

o cube
v 0.15088835 0.9375 1.02588835
v 0.15088835 0.9375 1.02588835
v 0.15088835 0.4375 1.02588835
v 0.15088835 0.4375 1.02588835
v -0.02588835 0.9375 0.84911165
v -0.02588835 0.9375 0.84911165
v -0.02588835 0.4375 0.84911165
v -0.02588835 0.4375 0.84911165
vt 0.04 0.71538462
vt 0.09333333 0.71538462
vt 0.09333333 0.68461538
vt 0.04 0.68461538
vn 0.70710678 0 -0.70710678
usemtl texture
f 316/876/219 319/875/219 317/874/219 314/873/219
vt 0.09333333 0.71538462
vt 0.04 0.71538462
vt 0.04 0.68461538
vt 0.09333333 0.68461538
vn -0.70710678 0 0.70710678
usemtl texture
f 320/880/220 315/879/220 313/878/220 318/877/220

o cube
v 0.15088835 0.9375 1.02588835
v 0.15088835 0.9375 1.02588835
v 0.15088835 0.4375 1.02588835
v 0.15088835 0.4375 1.02588835
v -0.02588835 0.9375 0.84911165
v -0.02588835 0.9375 0.84911165
v -0.02588835 0.4375 0.84911165
v -0.02588835 0.4375 0.84911165
vt 0.04 0.65384615
vt 0.09333333 0.65384615
vt 0.09333333 0.62307692
vt 0.04 0.62307692
vn 0.70710678 0 -0.70710678
usemtl texture
f 324/884/221 327/883/221 325/882/221 322/881/221
vt 0.09333333 0.65384615
vt 0.04 0.65384615
vt 0.04 0.62307692
vt 0.09333333 0.62307692
vn -0.70710678 0 0.70710678
usemtl texture
f 328/888/222 323/887/222 321/886/222 326/885/222

o cube
v 0.15088835 0.9375 1.02588835
v 0.15088835 0.9375 1.02588835
v 0.15088835 0.4375 1.02588835
v 0.15088835 0.4375 1.02588835
v -0.02588835 0.9375 0.84911165
v -0.02588835 0.9375 0.84911165
v -0.02588835 0.4375 0.84911165
v -0.02588835 0.4375 0.84911165
vt 0.04 0.59230769
vt 0.09333333 0.59230769
vt 0.09333333 0.56153846
vt 0.04 0.56153846
vn 0.70710678 0 -0.70710678
usemtl texture
f 332/892/223 335/891/223 333/890/223 330/889/223
vt 0.09333333 0.59230769
vt 0.04 0.59230769
vt 0.04 0.56153846
vt 0.09333333 0.56153846
vn -0.70710678 0 0.70710678
usemtl texture
f 336/896/224 331/895/224 329/894/224 334/893/224

o cube
v 0.15088835 0.9375 1.02588835
v 0.15088835 0.9375 1.02588835
v 0.15088835 0.4375 1.02588835
v 0.15088835 0.4375 1.02588835
v -0.02588835 0.9375 0.84911165
v -0.02588835 0.9375 0.84911165
v -0.02588835 0.4375 0.84911165
v -0.02588835 0.4375 0.84911165
vt 0.04 0.53076923
vt 0.09333333 0.53076923
vt 0.09333333 0.5
vt 0.04 0.5
vn 0.70710678 0 -0.70710678
usemtl texture
f 340/900/225 343/899/225 341/898/225 338/897/225
vt 0.09333333 0.53076923
vt 0.04 0.53076923
vt 0.04 0.5
vt 0.09333333 0.5
vn -0.70710678 0 0.70710678
usemtl texture
f 344/904/226 339/903/226 337/902/226 342/901/226

o cube
v 0.15088835 0.9375 1.02588835
v 0.15088835 0.9375 1.02588835
v 0.15088835 0.4375 1.02588835
v 0.15088835 0.4375 1.02588835
v -0.02588835 0.9375 0.84911165
v -0.02588835 0.9375 0.84911165
v -0.02588835 0.4375 0.84911165
v -0.02588835 0.4375 0.84911165
vt 0.04 0.46923077
vt 0.09333333 0.46923077
vt 0.09333333 0.43846154
vt 0.04 0.43846154
vn 0.70710678 0 -0.70710678
usemtl texture
f 348/908/227 351/907/227 349/906/227 346/905/227
vt 0.09333333 0.46923077
vt 0.04 0.46923077
vt 0.04 0.43846154
vt 0.09333333 0.43846154
vn -0.70710678 0 0.70710678
usemtl texture
f 352/912/228 347/911/228 345/910/228 350/909/228

o cube
v 0.15088835 0.9375 1.02588835
v 0.15088835 0.9375 1.02588835
v 0.15088835 0.4375 1.02588835
v 0.15088835 0.4375 1.02588835
v -0.02588835 0.9375 0.84911165
v -0.02588835 0.9375 0.84911165
v -0.02588835 0.4375 0.84911165
v -0.02588835 0.4375 0.84911165
vt 0.04 0.40769231
vt 0.09333333 0.40769231
vt 0.09333333 0.37692308
vt 0.04 0.37692308
vn 0.70710678 0 -0.70710678
usemtl texture
f 356/916/229 359/915/229 357/914/229 354/913/229
vt 0.09333333 0.40769231
vt 0.04 0.40769231
vt 0.04 0.37692308
vt 0.09333333 0.37692308
vn -0.70710678 0 0.70710678
usemtl texture
f 360/920/230 355/919/230 353/918/230 358/917/230

o cube
v 0.15088835 0.9375 1.02588835
v 0.15088835 0.9375 1.02588835
v 0.15088835 0.4375 1.02588835
v 0.15088835 0.4375 1.02588835
v -0.02588835 0.9375 0.84911165
v -0.02588835 0.9375 0.84911165
v -0.02588835 0.4375 0.84911165
v -0.02588835 0.4375 0.84911165
vt 0.04 0.34615385
vt 0.09333333 0.34615385
vt 0.09333333 0.31538462
vt 0.04 0.31538462
vn 0.70710678 0 -0.70710678
usemtl texture
f 364/924/231 367/923/231 365/922/231 362/921/231
vt 0.09333333 0.34615385
vt 0.04 0.34615385
vt 0.04 0.31538462
vt 0.09333333 0.31538462
vn -0.70710678 0 0.70710678
usemtl texture
f 368/928/232 363/927/232 361/926/232 366/925/232

o cube
v 0.15088835 0.9375 1.02588835
v 0.15088835 0.9375 1.02588835
v 0.15088835 0.4375 1.02588835
v 0.15088835 0.4375 1.02588835
v -0.02588835 0.9375 0.84911165
v -0.02588835 0.9375 0.84911165
v -0.02588835 0.4375 0.84911165
v -0.02588835 0.4375 0.84911165
vt 0.04 0.28461538
vt 0.09333333 0.28461538
vt 0.09333333 0.25384615
vt 0.04 0.25384615
vn 0.70710678 0 -0.70710678
usemtl texture
f 372/932/233 375/931/233 373/930/233 370/929/233
vt 0.09333333 0.28461538
vt 0.04 0.28461538
vt 0.04 0.25384615
vt 0.09333333 0.25384615
vn -0.70710678 0 0.70710678
usemtl texture
f 376/936/234 371/935/234 369/934/234 374/933/234

o cube
v 0.15088835 0.9375 1.02588835
v 0.15088835 0.9375 1.02588835
v 0.15088835 0.4375 1.02588835
v 0.15088835 0.4375 1.02588835
v -0.02588835 0.9375 0.84911165
v -0.02588835 0.9375 0.84911165
v -0.02588835 0.4375 0.84911165
v -0.02588835 0.4375 0.84911165
vt 0.04 0.22307692
vt 0.09333333 0.22307692
vt 0.09333333 0.19230769
vt 0.04 0.19230769
vn 0.70710678 0 -0.70710678
usemtl texture
f 380/940/235 383/939/235 381/938/235 378/937/235
vt 0.09333333 0.22307692
vt 0.04 0.22307692
vt 0.04 0.19230769
vt 0.09333333 0.19230769
vn -0.70710678 0 0.70710678
usemtl texture
f 384/944/236 379/943/236 377/942/236 382/941/236

o cube
v 0.15088835 0.9375 1.02588835
v 0.15088835 0.9375 1.02588835
v 0.15088835 0.4375 1.02588835
v 0.15088835 0.4375 1.02588835
v -0.02588835 0.9375 0.84911165
v -0.02588835 0.9375 0.84911165
v -0.02588835 0.4375 0.84911165
v -0.02588835 0.4375 0.84911165
vt 0.04 0.16153846
vt 0.09333333 0.16153846
vt 0.09333333 0.13076923
vt 0.04 0.13076923
vn 0.70710678 0 -0.70710678
usemtl texture
f 388/948/237 391/947/237 389/946/237 386/945/237
vt 0.09333333 0.16153846
vt 0.04 0.16153846
vt 0.04 0.13076923
vt 0.09333333 0.13076923
vn -0.70710678 0 0.70710678
usemtl texture
f 392/952/238 387/951/238 385/950/238 390/949/238

o cube
v 0.15088835 0.9375 1.02588835
v 0.15088835 0.9375 1.02588835
v 0.15088835 0.4375 1.02588835
v 0.15088835 0.4375 1.02588835
v -0.02588835 0.9375 0.84911165
v -0.02588835 0.9375 0.84911165
v -0.02588835 0.4375 0.84911165
v -0.02588835 0.4375 0.84911165
vt 0.04 0.1
vt 0.09333333 0.1
vt 0.09333333 0.06923077
vt 0.04 0.06923077
vn 0.70710678 0 -0.70710678
usemtl texture
f 396/956/239 399/955/239 397/954/239 394/953/239
vt 0.09333333 0.1
vt 0.04 0.1
vt 0.04 0.06923077
vt 0.09333333 0.06923077
vn -0.70710678 0 0.70710678
usemtl texture
f 400/960/240 395/959/240 393/958/240 398/957/240

o cube
v 0.15088835 0.9375 1.02588835
v 0.15088835 0.9375 1.02588835
v 0.15088835 0.4375 1.02588835
v 0.15088835 0.4375 1.02588835
v -0.02588835 0.9375 0.84911165
v -0.02588835 0.9375 0.84911165
v -0.02588835 0.4375 0.84911165
v -0.02588835 0.4375 0.84911165
vt 0.04 0.03846154
vt 0.09333333 0.03846154
vt 0.09333333 0.00769231
vt 0.04 0.00769231
vn 0.70710678 0 -0.70710678
usemtl texture
f 404/964/241 407/963/241 405/962/241 402/961/241
vt 0.09333333 0.03846154
vt 0.04 0.03846154
vt 0.04 0.00769231
vt 0.09333333 0.00769231
vn -0.70710678 0 0.70710678
usemtl texture
f 408/968/242 403/967/242 401/966/242 406/965/242

o cube
v 1.02588835 0.9375 0.84911165
v 1.02588835 0.9375 0.84911165
v 1.02588835 0.4375 0.84911165
v 1.02588835 0.4375 0.84911165
v 0.84911165 0.9375 1.02588835
v 0.84911165 0.9375 1.02588835
v 0.84911165 0.4375 1.02588835
v 0.84911165 0.4375 1.02588835
vt 0.04 0.96153846
vt 0.09333333 0.96153846
vt 0.09333333 0.93076923
vt 0.04 0.93076923
vn -0.70710678 0 -0.70710678
usemtl texture
f 412/972/243 415/971/243 413/970/243 410/969/243
vt 0.09333333 0.96153846
vt 0.04 0.96153846
vt 0.04 0.93076923
vt 0.09333333 0.93076923
vn 0.70710678 0 0.70710678
usemtl texture
f 416/976/244 411/975/244 409/974/244 414/973/244

o cube
v 1.02588835 0.9375 0.84911165
v 1.02588835 0.9375 0.84911165
v 1.02588835 0.4375 0.84911165
v 1.02588835 0.4375 0.84911165
v 0.84911165 0.9375 1.02588835
v 0.84911165 0.9375 1.02588835
v 0.84911165 0.4375 1.02588835
v 0.84911165 0.4375 1.02588835
vt 0.04 0.9
vt 0.09333333 0.9
vt 0.09333333 0.86923077
vt 0.04 0.86923077
vn -0.70710678 0 -0.70710678
usemtl texture
f 420/980/245 423/979/245 421/978/245 418/977/245
vt 0.09333333 0.9
vt 0.04 0.9
vt 0.04 0.86923077
vt 0.09333333 0.86923077
vn 0.70710678 0 0.70710678
usemtl texture
f 424/984/246 419/983/246 417/982/246 422/981/246

o cube
v 1.02588835 0.9375 0.84911165
v 1.02588835 0.9375 0.84911165
v 1.02588835 0.4375 0.84911165
v 1.02588835 0.4375 0.84911165
v 0.84911165 0.9375 1.02588835
v 0.84911165 0.9375 1.02588835
v 0.84911165 0.4375 1.02588835
v 0.84911165 0.4375 1.02588835
vt 0.04 0.83846154
vt 0.09333333 0.83846154
vt 0.09333333 0.80769231
vt 0.04 0.80769231
vn -0.70710678 0 -0.70710678
usemtl texture
f 428/988/247 431/987/247 429/986/247 426/985/247
vt 0.09333333 0.83846154
vt 0.04 0.83846154
vt 0.04 0.80769231
vt 0.09333333 0.80769231
vn 0.70710678 0 0.70710678
usemtl texture
f 432/992/248 427/991/248 425/990/248 430/989/248

o cube
v 1.02588835 0.9375 0.84911165
v 1.02588835 0.9375 0.84911165
v 1.02588835 0.4375 0.84911165
v 1.02588835 0.4375 0.84911165
v 0.84911165 0.9375 1.02588835
v 0.84911165 0.9375 1.02588835
v 0.84911165 0.4375 1.02588835
v 0.84911165 0.4375 1.02588835
vt 0.04 0.77692308
vt 0.09333333 0.77692308
vt 0.09333333 0.74615385
vt 0.04 0.74615385
vn -0.70710678 0 -0.70710678
usemtl texture
f 436/996/249 439/995/249 437/994/249 434/993/249
vt 0.09333333 0.77692308
vt 0.04 0.77692308
vt 0.04 0.74615385
vt 0.09333333 0.74615385
vn 0.70710678 0 0.70710678
usemtl texture
f 440/1000/250 435/999/250 433/998/250 438/997/250

o cube
v 1.02588835 0.9375 0.84911165
v 1.02588835 0.9375 0.84911165
v 1.02588835 0.4375 0.84911165
v 1.02588835 0.4375 0.84911165
v 0.84911165 0.9375 1.02588835
v 0.84911165 0.9375 1.02588835
v 0.84911165 0.4375 1.02588835
v 0.84911165 0.4375 1.02588835
vt 0.04 0.71538462
vt 0.09333333 0.71538462
vt 0.09333333 0.68461538
vt 0.04 0.68461538
vn -0.70710678 0 -0.70710678
usemtl texture
f 444/1004/251 447/1003/251 445/1002/251 442/1001/251
vt 0.09333333 0.71538462
vt 0.04 0.71538462
vt 0.04 0.68461538
vt 0.09333333 0.68461538
vn 0.70710678 0 0.70710678
usemtl texture
f 448/1008/252 443/1007/252 441/1006/252 446/1005/252

o cube
v 1.02588835 0.9375 0.84911165
v 1.02588835 0.9375 0.84911165
v 1.02588835 0.4375 0.84911165
v 1.02588835 0.4375 0.84911165
v 0.84911165 0.9375 1.02588835
v 0.84911165 0.9375 1.02588835
v 0.84911165 0.4375 1.02588835
v 0.84911165 0.4375 1.02588835
vt 0.04 0.65384615
vt 0.09333333 0.65384615
vt 0.09333333 0.62307692
vt 0.04 0.62307692
vn -0.70710678 0 -0.70710678
usemtl texture
f 452/1012/253 455/1011/253 453/1010/253 450/1009/253
vt 0.09333333 0.65384615
vt 0.04 0.65384615
vt 0.04 0.62307692
vt 0.09333333 0.62307692
vn 0.70710678 0 0.70710678
usemtl texture
f 456/1016/254 451/1015/254 449/1014/254 454/1013/254

o cube
v 1.02588835 0.9375 0.84911165
v 1.02588835 0.9375 0.84911165
v 1.02588835 0.4375 0.84911165
v 1.02588835 0.4375 0.84911165
v 0.84911165 0.9375 1.02588835
v 0.84911165 0.9375 1.02588835
v 0.84911165 0.4375 1.02588835
v 0.84911165 0.4375 1.02588835
vt 0.04 0.59230769
vt 0.09333333 0.59230769
vt 0.09333333 0.56153846
vt 0.04 0.56153846
vn -0.70710678 0 -0.70710678
usemtl texture
f 460/1020/255 463/1019/255 461/1018/255 458/1017/255
vt 0.09333333 0.59230769
vt 0.04 0.59230769
vt 0.04 0.56153846
vt 0.09333333 0.56153846
vn 0.70710678 0 0.70710678
usemtl texture
f 464/1024/256 459/1023/256 457/1022/256 462/1021/256

o cube
v 1.02588835 0.9375 0.84911165
v 1.02588835 0.9375 0.84911165
v 1.02588835 0.4375 0.84911165
v 1.02588835 0.4375 0.84911165
v 0.84911165 0.9375 1.02588835
v 0.84911165 0.9375 1.02588835
v 0.84911165 0.4375 1.02588835
v 0.84911165 0.4375 1.02588835
vt 0.04 0.53076923
vt 0.09333333 0.53076923
vt 0.09333333 0.5
vt 0.04 0.5
vn -0.70710678 0 -0.70710678
usemtl texture
f 468/1028/257 471/1027/257 469/1026/257 466/1025/257
vt 0.09333333 0.53076923
vt 0.04 0.53076923
vt 0.04 0.5
vt 0.09333333 0.5
vn 0.70710678 0 0.70710678
usemtl texture
f 472/1032/258 467/1031/258 465/1030/258 470/1029/258

o cube
v 1.02588835 0.9375 0.84911165
v 1.02588835 0.9375 0.84911165
v 1.02588835 0.4375 0.84911165
v 1.02588835 0.4375 0.84911165
v 0.84911165 0.9375 1.02588835
v 0.84911165 0.9375 1.02588835
v 0.84911165 0.4375 1.02588835
v 0.84911165 0.4375 1.02588835
vt 0.04 0.46923077
vt 0.09333333 0.46923077
vt 0.09333333 0.43846154
vt 0.04 0.43846154
vn -0.70710678 0 -0.70710678
usemtl texture
f 476/1036/259 479/1035/259 477/1034/259 474/1033/259
vt 0.09333333 0.46923077
vt 0.04 0.46923077
vt 0.04 0.43846154
vt 0.09333333 0.43846154
vn 0.70710678 0 0.70710678
usemtl texture
f 480/1040/260 475/1039/260 473/1038/260 478/1037/260

o cube
v 1.02588835 0.9375 0.84911165
v 1.02588835 0.9375 0.84911165
v 1.02588835 0.4375 0.84911165
v 1.02588835 0.4375 0.84911165
v 0.84911165 0.9375 1.02588835
v 0.84911165 0.9375 1.02588835
v 0.84911165 0.4375 1.02588835
v 0.84911165 0.4375 1.02588835
vt 0.04 0.40769231
vt 0.09333333 0.40769231
vt 0.09333333 0.37692308
vt 0.04 0.37692308
vn -0.70710678 0 -0.70710678
usemtl texture
f 484/1044/261 487/1043/261 485/1042/261 482/1041/261
vt 0.09333333 0.40769231
vt 0.04 0.40769231
vt 0.04 0.37692308
vt 0.09333333 0.37692308
vn 0.70710678 0 0.70710678
usemtl texture
f 488/1048/262 483/1047/262 481/1046/262 486/1045/262

o cube
v 1.02588835 0.9375 0.84911165
v 1.02588835 0.9375 0.84911165
v 1.02588835 0.4375 0.84911165
v 1.02588835 0.4375 0.84911165
v 0.84911165 0.9375 1.02588835
v 0.84911165 0.9375 1.02588835
v 0.84911165 0.4375 1.02588835
v 0.84911165 0.4375 1.02588835
vt 0.04 0.34615385
vt 0.09333333 0.34615385
vt 0.09333333 0.31538462
vt 0.04 0.31538462
vn -0.70710678 0 -0.70710678
usemtl texture
f 492/1052/263 495/1051/263 493/1050/263 490/1049/263
vt 0.09333333 0.34615385
vt 0.04 0.34615385
vt 0.04 0.31538462
vt 0.09333333 0.31538462
vn 0.70710678 0 0.70710678
usemtl texture
f 496/1056/264 491/1055/264 489/1054/264 494/1053/264

o cube
v 1.02588835 0.9375 0.84911165
v 1.02588835 0.9375 0.84911165
v 1.02588835 0.4375 0.84911165
v 1.02588835 0.4375 0.84911165
v 0.84911165 0.9375 1.02588835
v 0.84911165 0.9375 1.02588835
v 0.84911165 0.4375 1.02588835
v 0.84911165 0.4375 1.02588835
vt 0.04 0.28461538
vt 0.09333333 0.28461538
vt 0.09333333 0.25384615
vt 0.04 0.25384615
vn -0.70710678 0 -0.70710678
usemtl texture
f 500/1060/265 503/1059/265 501/1058/265 498/1057/265
vt 0.09333333 0.28461538
vt 0.04 0.28461538
vt 0.04 0.25384615
vt 0.09333333 0.25384615
vn 0.70710678 0 0.70710678
usemtl texture
f 504/1064/266 499/1063/266 497/1062/266 502/1061/266

o cube
v 1.02588835 0.9375 0.84911165
v 1.02588835 0.9375 0.84911165
v 1.02588835 0.4375 0.84911165
v 1.02588835 0.4375 0.84911165
v 0.84911165 0.9375 1.02588835
v 0.84911165 0.9375 1.02588835
v 0.84911165 0.4375 1.02588835
v 0.84911165 0.4375 1.02588835
vt 0.04 0.22307692
vt 0.09333333 0.22307692
vt 0.09333333 0.19230769
vt 0.04 0.19230769
vn -0.70710678 0 -0.70710678
usemtl texture
f 508/1068/267 511/1067/267 509/1066/267 506/1065/267
vt 0.09333333 0.22307692
vt 0.04 0.22307692
vt 0.04 0.19230769
vt 0.09333333 0.19230769
vn 0.70710678 0 0.70710678
usemtl texture
f 512/1072/268 507/1071/268 505/1070/268 510/1069/268

o cube
v 1.02588835 0.9375 0.84911165
v 1.02588835 0.9375 0.84911165
v 1.02588835 0.4375 0.84911165
v 1.02588835 0.4375 0.84911165
v 0.84911165 0.9375 1.02588835
v 0.84911165 0.9375 1.02588835
v 0.84911165 0.4375 1.02588835
v 0.84911165 0.4375 1.02588835
vt 0.04 0.16153846
vt 0.09333333 0.16153846
vt 0.09333333 0.13076923
vt 0.04 0.13076923
vn -0.70710678 0 -0.70710678
usemtl texture
f 516/1076/269 519/1075/269 517/1074/269 514/1073/269
vt 0.09333333 0.16153846
vt 0.04 0.16153846
vt 0.04 0.13076923
vt 0.09333333 0.13076923
vn 0.70710678 0 0.70710678
usemtl texture
f 520/1080/270 515/1079/270 513/1078/270 518/1077/270

o cube
v 1.02588835 0.9375 0.84911165
v 1.02588835 0.9375 0.84911165
v 1.02588835 0.4375 0.84911165
v 1.02588835 0.4375 0.84911165
v 0.84911165 0.9375 1.02588835
v 0.84911165 0.9375 1.02588835
v 0.84911165 0.4375 1.02588835
v 0.84911165 0.4375 1.02588835
vt 0.04 0.1
vt 0.09333333 0.1
vt 0.09333333 0.06923077
vt 0.04 0.06923077
vn -0.70710678 0 -0.70710678
usemtl texture
f 524/1084/271 527/1083/271 525/1082/271 522/1081/271
vt 0.09333333 0.1
vt 0.04 0.1
vt 0.04 0.06923077
vt 0.09333333 0.06923077
vn 0.70710678 0 0.70710678
usemtl texture
f 528/1088/272 523/1087/272 521/1086/272 526/1085/272

o cube
v 1.02588835 0.9375 0.84911165
v 1.02588835 0.9375 0.84911165
v 1.02588835 0.4375 0.84911165
v 1.02588835 0.4375 0.84911165
v 0.84911165 0.9375 1.02588835
v 0.84911165 0.9375 1.02588835
v 0.84911165 0.4375 1.02588835
v 0.84911165 0.4375 1.02588835
vt 0.04 0.03846154
vt 0.09333333 0.03846154
vt 0.09333333 0.00769231
vt 0.04 0.00769231
vn -0.70710678 0 -0.70710678
usemtl texture
f 532/1092/273 535/1091/273 533/1090/273 530/1089/273
vt 0.09333333 0.03846154
vt 0.04 0.03846154
vt 0.04 0.00769231
vt 0.09333333 0.00769231
vn 0.70710678 0 0.70710678
usemtl texture
f 536/1096/274 531/1095/274 529/1094/274 534/1093/274

o cube
v 0.84911165 0.9375 -0.02588835
v 0.84911165 0.9375 -0.02588835
v 0.84911165 0.4375 -0.02588835
v 0.84911165 0.4375 -0.02588835
v 1.02588835 0.9375 0.15088835
v 1.02588835 0.9375 0.15088835
v 1.02588835 0.4375 0.15088835
v 1.02588835 0.4375 0.15088835
vt 0.04 0.96153846
vt 0.09333333 0.96153846
vt 0.09333333 0.93076923
vt 0.04 0.93076923
vn -0.70710678 0 0.70710678
usemtl texture
f 540/1100/275 543/1099/275 541/1098/275 538/1097/275
vt 0.09333333 0.96153846
vt 0.04 0.96153846
vt 0.04 0.93076923
vt 0.09333333 0.93076923
vn 0.70710678 0 -0.70710678
usemtl texture
f 544/1104/276 539/1103/276 537/1102/276 542/1101/276

o cube
v 0.84911165 0.9375 -0.02588835
v 0.84911165 0.9375 -0.02588835
v 0.84911165 0.4375 -0.02588835
v 0.84911165 0.4375 -0.02588835
v 1.02588835 0.9375 0.15088835
v 1.02588835 0.9375 0.15088835
v 1.02588835 0.4375 0.15088835
v 1.02588835 0.4375 0.15088835
vt 0.04 0.9
vt 0.09333333 0.9
vt 0.09333333 0.86923077
vt 0.04 0.86923077
vn -0.70710678 0 0.70710678
usemtl texture
f 548/1108/277 551/1107/277 549/1106/277 546/1105/277
vt 0.09333333 0.9
vt 0.04 0.9
vt 0.04 0.86923077
vt 0.09333333 0.86923077
vn 0.70710678 0 -0.70710678
usemtl texture
f 552/1112/278 547/1111/278 545/1110/278 550/1109/278

o cube
v 0.84911165 0.9375 -0.02588835
v 0.84911165 0.9375 -0.02588835
v 0.84911165 0.4375 -0.02588835
v 0.84911165 0.4375 -0.02588835
v 1.02588835 0.9375 0.15088835
v 1.02588835 0.9375 0.15088835
v 1.02588835 0.4375 0.15088835
v 1.02588835 0.4375 0.15088835
vt 0.04 0.83846154
vt 0.09333333 0.83846154
vt 0.09333333 0.80769231
vt 0.04 0.80769231
vn -0.70710678 0 0.70710678
usemtl texture
f 556/1116/279 559/1115/279 557/1114/279 554/1113/279
vt 0.09333333 0.83846154
vt 0.04 0.83846154
vt 0.04 0.80769231
vt 0.09333333 0.80769231
vn 0.70710678 0 -0.70710678
usemtl texture
f 560/1120/280 555/1119/280 553/1118/280 558/1117/280

o cube
v 0.84911165 0.9375 -0.02588835
v 0.84911165 0.9375 -0.02588835
v 0.84911165 0.4375 -0.02588835
v 0.84911165 0.4375 -0.02588835
v 1.02588835 0.9375 0.15088835
v 1.02588835 0.9375 0.15088835
v 1.02588835 0.4375 0.15088835
v 1.02588835 0.4375 0.15088835
vt 0.04 0.77692308
vt 0.09333333 0.77692308
vt 0.09333333 0.74615385
vt 0.04 0.74615385
vn -0.70710678 0 0.70710678
usemtl texture
f 564/1124/281 567/1123/281 565/1122/281 562/1121/281
vt 0.09333333 0.77692308
vt 0.04 0.77692308
vt 0.04 0.74615385
vt 0.09333333 0.74615385
vn 0.70710678 0 -0.70710678
usemtl texture
f 568/1128/282 563/1127/282 561/1126/282 566/1125/282

o cube
v 0.84911165 0.9375 -0.02588835
v 0.84911165 0.9375 -0.02588835
v 0.84911165 0.4375 -0.02588835
v 0.84911165 0.4375 -0.02588835
v 1.02588835 0.9375 0.15088835
v 1.02588835 0.9375 0.15088835
v 1.02588835 0.4375 0.15088835
v 1.02588835 0.4375 0.15088835
vt 0.04 0.71538462
vt 0.09333333 0.71538462
vt 0.09333333 0.68461538
vt 0.04 0.68461538
vn -0.70710678 0 0.70710678
usemtl texture
f 572/1132/283 575/1131/283 573/1130/283 570/1129/283
vt 0.09333333 0.71538462
vt 0.04 0.71538462
vt 0.04 0.68461538
vt 0.09333333 0.68461538
vn 0.70710678 0 -0.70710678
usemtl texture
f 576/1136/284 571/1135/284 569/1134/284 574/1133/284

o cube
v 0.84911165 0.9375 -0.02588835
v 0.84911165 0.9375 -0.02588835
v 0.84911165 0.4375 -0.02588835
v 0.84911165 0.4375 -0.02588835
v 1.02588835 0.9375 0.15088835
v 1.02588835 0.9375 0.15088835
v 1.02588835 0.4375 0.15088835
v 1.02588835 0.4375 0.15088835
vt 0.04 0.65384615
vt 0.09333333 0.65384615
vt 0.09333333 0.62307692
vt 0.04 0.62307692
vn -0.70710678 0 0.70710678
usemtl texture
f 580/1140/285 583/1139/285 581/1138/285 578/1137/285
vt 0.09333333 0.65384615
vt 0.04 0.65384615
vt 0.04 0.62307692
vt 0.09333333 0.62307692
vn 0.70710678 0 -0.70710678
usemtl texture
f 584/1144/286 579/1143/286 577/1142/286 582/1141/286

o cube
v 0.84911165 0.9375 -0.02588835
v 0.84911165 0.9375 -0.02588835
v 0.84911165 0.4375 -0.02588835
v 0.84911165 0.4375 -0.02588835
v 1.02588835 0.9375 0.15088835
v 1.02588835 0.9375 0.15088835
v 1.02588835 0.4375 0.15088835
v 1.02588835 0.4375 0.15088835
vt 0.04 0.59230769
vt 0.09333333 0.59230769
vt 0.09333333 0.56153846
vt 0.04 0.56153846
vn -0.70710678 0 0.70710678
usemtl texture
f 588/1148/287 591/1147/287 589/1146/287 586/1145/287
vt 0.09333333 0.59230769
vt 0.04 0.59230769
vt 0.04 0.56153846
vt 0.09333333 0.56153846
vn 0.70710678 0 -0.70710678
usemtl texture
f 592/1152/288 587/1151/288 585/1150/288 590/1149/288

o cube
v 0.84911165 0.9375 -0.02588835
v 0.84911165 0.9375 -0.02588835
v 0.84911165 0.4375 -0.02588835
v 0.84911165 0.4375 -0.02588835
v 1.02588835 0.9375 0.15088835
v 1.02588835 0.9375 0.15088835
v 1.02588835 0.4375 0.15088835
v 1.02588835 0.4375 0.15088835
vt 0.04 0.53076923
vt 0.09333333 0.53076923
vt 0.09333333 0.5
vt 0.04 0.5
vn -0.70710678 0 0.70710678
usemtl texture
f 596/1156/289 599/1155/289 597/1154/289 594/1153/289
vt 0.09333333 0.53076923
vt 0.04 0.53076923
vt 0.04 0.5
vt 0.09333333 0.5
vn 0.70710678 0 -0.70710678
usemtl texture
f 600/1160/290 595/1159/290 593/1158/290 598/1157/290

o cube
v 0.84911165 0.9375 -0.02588835
v 0.84911165 0.9375 -0.02588835
v 0.84911165 0.4375 -0.02588835
v 0.84911165 0.4375 -0.02588835
v 1.02588835 0.9375 0.15088835
v 1.02588835 0.9375 0.15088835
v 1.02588835 0.4375 0.15088835
v 1.02588835 0.4375 0.15088835
vt 0.04 0.46923077
vt 0.09333333 0.46923077
vt 0.09333333 0.43846154
vt 0.04 0.43846154
vn -0.70710678 0 0.70710678
usemtl texture
f 604/1164/291 607/1163/291 605/1162/291 602/1161/291
vt 0.09333333 0.46923077
vt 0.04 0.46923077
vt 0.04 0.43846154
vt 0.09333333 0.43846154
vn 0.70710678 0 -0.70710678
usemtl texture
f 608/1168/292 603/1167/292 601/1166/292 606/1165/292

o cube
v 0.84911165 0.9375 -0.02588835
v 0.84911165 0.9375 -0.02588835
v 0.84911165 0.4375 -0.02588835
v 0.84911165 0.4375 -0.02588835
v 1.02588835 0.9375 0.15088835
v 1.02588835 0.9375 0.15088835
v 1.02588835 0.4375 0.15088835
v 1.02588835 0.4375 0.15088835
vt 0.04 0.40769231
vt 0.09333333 0.40769231
vt 0.09333333 0.37692308
vt 0.04 0.37692308
vn -0.70710678 0 0.70710678
usemtl texture
f 612/1172/293 615/1171/293 613/1170/293 610/1169/293
vt 0.09333333 0.40769231
vt 0.04 0.40769231
vt 0.04 0.37692308
vt 0.09333333 0.37692308
vn 0.70710678 0 -0.70710678
usemtl texture
f 616/1176/294 611/1175/294 609/1174/294 614/1173/294

o cube
v 0.84911165 0.9375 -0.02588835
v 0.84911165 0.9375 -0.02588835
v 0.84911165 0.4375 -0.02588835
v 0.84911165 0.4375 -0.02588835
v 1.02588835 0.9375 0.15088835
v 1.02588835 0.9375 0.15088835
v 1.02588835 0.4375 0.15088835
v 1.02588835 0.4375 0.15088835
vt 0.04 0.34615385
vt 0.09333333 0.34615385
vt 0.09333333 0.31538462
vt 0.04 0.31538462
vn -0.70710678 0 0.70710678
usemtl texture
f 620/1180/295 623/1179/295 621/1178/295 618/1177/295
vt 0.09333333 0.34615385
vt 0.04 0.34615385
vt 0.04 0.31538462
vt 0.09333333 0.31538462
vn 0.70710678 0 -0.70710678
usemtl texture
f 624/1184/296 619/1183/296 617/1182/296 622/1181/296

o cube
v 0.84911165 0.9375 -0.02588835
v 0.84911165 0.9375 -0.02588835
v 0.84911165 0.4375 -0.02588835
v 0.84911165 0.4375 -0.02588835
v 1.02588835 0.9375 0.15088835
v 1.02588835 0.9375 0.15088835
v 1.02588835 0.4375 0.15088835
v 1.02588835 0.4375 0.15088835
vt 0.04 0.28461538
vt 0.09333333 0.28461538
vt 0.09333333 0.25384615
vt 0.04 0.25384615
vn -0.70710678 0 0.70710678
usemtl texture
f 628/1188/297 631/1187/297 629/1186/297 626/1185/297
vt 0.09333333 0.28461538
vt 0.04 0.28461538
vt 0.04 0.25384615
vt 0.09333333 0.25384615
vn 0.70710678 0 -0.70710678
usemtl texture
f 632/1192/298 627/1191/298 625/1190/298 630/1189/298

o cube
v 0.84911165 0.9375 -0.02588835
v 0.84911165 0.9375 -0.02588835
v 0.84911165 0.4375 -0.02588835
v 0.84911165 0.4375 -0.02588835
v 1.02588835 0.9375 0.15088835
v 1.02588835 0.9375 0.15088835
v 1.02588835 0.4375 0.15088835
v 1.02588835 0.4375 0.15088835
vt 0.04 0.22307692
vt 0.09333333 0.22307692
vt 0.09333333 0.19230769
vt 0.04 0.19230769
vn -0.70710678 0 0.70710678
usemtl texture
f 636/1196/299 639/1195/299 637/1194/299 634/1193/299
vt 0.09333333 0.22307692
vt 0.04 0.22307692
vt 0.04 0.19230769
vt 0.09333333 0.19230769
vn 0.70710678 0 -0.70710678
usemtl texture
f 640/1200/300 635/1199/300 633/1198/300 638/1197/300

o cube
v 0.84911165 0.9375 -0.02588835
v 0.84911165 0.9375 -0.02588835
v 0.84911165 0.4375 -0.02588835
v 0.84911165 0.4375 -0.02588835
v 1.02588835 0.9375 0.15088835
v 1.02588835 0.9375 0.15088835
v 1.02588835 0.4375 0.15088835
v 1.02588835 0.4375 0.15088835
vt 0.04 0.16153846
vt 0.09333333 0.16153846
vt 0.09333333 0.13076923
vt 0.04 0.13076923
vn -0.70710678 0 0.70710678
usemtl texture
f 644/1204/301 647/1203/301 645/1202/301 642/1201/301
vt 0.09333333 0.16153846
vt 0.04 0.16153846
vt 0.04 0.13076923
vt 0.09333333 0.13076923
vn 0.70710678 0 -0.70710678
usemtl texture
f 648/1208/302 643/1207/302 641/1206/302 646/1205/302

o cube
v 0.84911165 0.9375 -0.02588835
v 0.84911165 0.9375 -0.02588835
v 0.84911165 0.4375 -0.02588835
v 0.84911165 0.4375 -0.02588835
v 1.02588835 0.9375 0.15088835
v 1.02588835 0.9375 0.15088835
v 1.02588835 0.4375 0.15088835
v 1.02588835 0.4375 0.15088835
vt 0.04 0.1
vt 0.09333333 0.1
vt 0.09333333 0.06923077
vt 0.04 0.06923077
vn -0.70710678 0 0.70710678
usemtl texture
f 652/1212/303 655/1211/303 653/1210/303 650/1209/303
vt 0.09333333 0.1
vt 0.04 0.1
vt 0.04 0.06923077
vt 0.09333333 0.06923077
vn 0.70710678 0 -0.70710678
usemtl texture
f 656/1216/304 651/1215/304 649/1214/304 654/1213/304

o cube
v 0.84911165 0.9375 -0.02588835
v 0.84911165 0.9375 -0.02588835
v 0.84911165 0.4375 -0.02588835
v 0.84911165 0.4375 -0.02588835
v 1.02588835 0.9375 0.15088835
v 1.02588835 0.9375 0.15088835
v 1.02588835 0.4375 0.15088835
v 1.02588835 0.4375 0.15088835
vt 0.04 0.03846154
vt 0.09333333 0.03846154
vt 0.09333333 0.00769231
vt 0.04 0.00769231
vn -0.70710678 0 0.70710678
usemtl texture
f 660/1220/305 663/1219/305 661/1218/305 658/1217/305
vt 0.09333333 0.03846154
vt 0.04 0.03846154
vt 0.04 0.00769231
vt 0.09333333 0.00769231
vn 0.70710678 0 -0.70710678
usemtl texture
f 664/1224/306 659/1223/306 657/1222/306 662/1221/306

o cube
v 0.15088835 0.9375 -0.02588835
v 0.15088835 0.9375 -0.02588835
v 0.15088835 0.4375 -0.02588835
v 0.15088835 0.4375 -0.02588835
v -0.02588835 0.9375 0.15088835
v -0.02588835 0.9375 0.15088835
v -0.02588835 0.4375 0.15088835
v -0.02588835 0.4375 0.15088835
vt 0.04 0.96153846
vt 0.09333333 0.96153846
vt 0.09333333 0.93076923
vt 0.04 0.93076923
vn -0.70710678 0 -0.70710678
usemtl texture
f 668/1228/307 671/1227/307 669/1226/307 666/1225/307
vt 0.09333333 0.96153846
vt 0.04 0.96153846
vt 0.04 0.93076923
vt 0.09333333 0.93076923
vn 0.70710678 0 0.70710678
usemtl texture
f 672/1232/308 667/1231/308 665/1230/308 670/1229/308

o cube
v 0.15088835 0.9375 -0.02588835
v 0.15088835 0.9375 -0.02588835
v 0.15088835 0.4375 -0.02588835
v 0.15088835 0.4375 -0.02588835
v -0.02588835 0.9375 0.15088835
v -0.02588835 0.9375 0.15088835
v -0.02588835 0.4375 0.15088835
v -0.02588835 0.4375 0.15088835
vt 0.04 0.9
vt 0.09333333 0.9
vt 0.09333333 0.86923077
vt 0.04 0.86923077
vn -0.70710678 0 -0.70710678
usemtl texture
f 676/1236/309 679/1235/309 677/1234/309 674/1233/309
vt 0.09333333 0.9
vt 0.04 0.9
vt 0.04 0.86923077
vt 0.09333333 0.86923077
vn 0.70710678 0 0.70710678
usemtl texture
f 680/1240/310 675/1239/310 673/1238/310 678/1237/310

o cube
v 0.15088835 0.9375 -0.02588835
v 0.15088835 0.9375 -0.02588835
v 0.15088835 0.4375 -0.02588835
v 0.15088835 0.4375 -0.02588835
v -0.02588835 0.9375 0.15088835
v -0.02588835 0.9375 0.15088835
v -0.02588835 0.4375 0.15088835
v -0.02588835 0.4375 0.15088835
vt 0.04 0.83846154
vt 0.09333333 0.83846154
vt 0.09333333 0.80769231
vt 0.04 0.80769231
vn -0.70710678 0 -0.70710678
usemtl texture
f 684/1244/311 687/1243/311 685/1242/311 682/1241/311
vt 0.09333333 0.83846154
vt 0.04 0.83846154
vt 0.04 0.80769231
vt 0.09333333 0.80769231
vn 0.70710678 0 0.70710678
usemtl texture
f 688/1248/312 683/1247/312 681/1246/312 686/1245/312

o cube
v 0.15088835 0.9375 -0.02588835
v 0.15088835 0.9375 -0.02588835
v 0.15088835 0.4375 -0.02588835
v 0.15088835 0.4375 -0.02588835
v -0.02588835 0.9375 0.15088835
v -0.02588835 0.9375 0.15088835
v -0.02588835 0.4375 0.15088835
v -0.02588835 0.4375 0.15088835
vt 0.04 0.77692308
vt 0.09333333 0.77692308
vt 0.09333333 0.74615385
vt 0.04 0.74615385
vn -0.70710678 0 -0.70710678
usemtl texture
f 692/1252/313 695/1251/313 693/1250/313 690/1249/313
vt 0.09333333 0.77692308
vt 0.04 0.77692308
vt 0.04 0.74615385
vt 0.09333333 0.74615385
vn 0.70710678 0 0.70710678
usemtl texture
f 696/1256/314 691/1255/314 689/1254/314 694/1253/314

o cube
v 0.15088835 0.9375 -0.02588835
v 0.15088835 0.9375 -0.02588835
v 0.15088835 0.4375 -0.02588835
v 0.15088835 0.4375 -0.02588835
v -0.02588835 0.9375 0.15088835
v -0.02588835 0.9375 0.15088835
v -0.02588835 0.4375 0.15088835
v -0.02588835 0.4375 0.15088835
vt 0.04 0.71538462
vt 0.09333333 0.71538462
vt 0.09333333 0.68461538
vt 0.04 0.68461538
vn -0.70710678 0 -0.70710678
usemtl texture
f 700/1260/315 703/1259/315 701/1258/315 698/1257/315
vt 0.09333333 0.71538462
vt 0.04 0.71538462
vt 0.04 0.68461538
vt 0.09333333 0.68461538
vn 0.70710678 0 0.70710678
usemtl texture
f 704/1264/316 699/1263/316 697/1262/316 702/1261/316

o cube
v 0.15088835 0.9375 -0.02588835
v 0.15088835 0.9375 -0.02588835
v 0.15088835 0.4375 -0.02588835
v 0.15088835 0.4375 -0.02588835
v -0.02588835 0.9375 0.15088835
v -0.02588835 0.9375 0.15088835
v -0.02588835 0.4375 0.15088835
v -0.02588835 0.4375 0.15088835
vt 0.04 0.65384615
vt 0.09333333 0.65384615
vt 0.09333333 0.62307692
vt 0.04 0.62307692
vn -0.70710678 0 -0.70710678
usemtl texture
f 708/1268/317 711/1267/317 709/1266/317 706/1265/317
vt 0.09333333 0.65384615
vt 0.04 0.65384615
vt 0.04 0.62307692
vt 0.09333333 0.62307692
vn 0.70710678 0 0.70710678
usemtl texture
f 712/1272/318 707/1271/318 705/1270/318 710/1269/318

o cube
v 0.15088835 0.9375 -0.02588835
v 0.15088835 0.9375 -0.02588835
v 0.15088835 0.4375 -0.02588835
v 0.15088835 0.4375 -0.02588835
v -0.02588835 0.9375 0.15088835
v -0.02588835 0.9375 0.15088835
v -0.02588835 0.4375 0.15088835
v -0.02588835 0.4375 0.15088835
vt 0.04 0.59230769
vt 0.09333333 0.59230769
vt 0.09333333 0.56153846
vt 0.04 0.56153846
vn -0.70710678 0 -0.70710678
usemtl texture
f 716/1276/319 719/1275/319 717/1274/319 714/1273/319
vt 0.09333333 0.59230769
vt 0.04 0.59230769
vt 0.04 0.56153846
vt 0.09333333 0.56153846
vn 0.70710678 0 0.70710678
usemtl texture
f 720/1280/320 715/1279/320 713/1278/320 718/1277/320

o cube
v 0.15088835 0.9375 -0.02588835
v 0.15088835 0.9375 -0.02588835
v 0.15088835 0.4375 -0.02588835
v 0.15088835 0.4375 -0.02588835
v -0.02588835 0.9375 0.15088835
v -0.02588835 0.9375 0.15088835
v -0.02588835 0.4375 0.15088835
v -0.02588835 0.4375 0.15088835
vt 0.04 0.53076923
vt 0.09333333 0.53076923
vt 0.09333333 0.5
vt 0.04 0.5
vn -0.70710678 0 -0.70710678
usemtl texture
f 724/1284/321 727/1283/321 725/1282/321 722/1281/321
vt 0.09333333 0.53076923
vt 0.04 0.53076923
vt 0.04 0.5
vt 0.09333333 0.5
vn 0.70710678 0 0.70710678
usemtl texture
f 728/1288/322 723/1287/322 721/1286/322 726/1285/322

o cube
v 0.15088835 0.9375 -0.02588835
v 0.15088835 0.9375 -0.02588835
v 0.15088835 0.4375 -0.02588835
v 0.15088835 0.4375 -0.02588835
v -0.02588835 0.9375 0.15088835
v -0.02588835 0.9375 0.15088835
v -0.02588835 0.4375 0.15088835
v -0.02588835 0.4375 0.15088835
vt 0.04 0.46923077
vt 0.09333333 0.46923077
vt 0.09333333 0.43846154
vt 0.04 0.43846154
vn -0.70710678 0 -0.70710678
usemtl texture
f 732/1292/323 735/1291/323 733/1290/323 730/1289/323
vt 0.09333333 0.46923077
vt 0.04 0.46923077
vt 0.04 0.43846154
vt 0.09333333 0.43846154
vn 0.70710678 0 0.70710678
usemtl texture
f 736/1296/324 731/1295/324 729/1294/324 734/1293/324

o cube
v 0.15088835 0.9375 -0.02588835
v 0.15088835 0.9375 -0.02588835
v 0.15088835 0.4375 -0.02588835
v 0.15088835 0.4375 -0.02588835
v -0.02588835 0.9375 0.15088835
v -0.02588835 0.9375 0.15088835
v -0.02588835 0.4375 0.15088835
v -0.02588835 0.4375 0.15088835
vt 0.04 0.40769231
vt 0.09333333 0.40769231
vt 0.09333333 0.37692308
vt 0.04 0.37692308
vn -0.70710678 0 -0.70710678
usemtl texture
f 740/1300/325 743/1299/325 741/1298/325 738/1297/325
vt 0.09333333 0.40769231
vt 0.04 0.40769231
vt 0.04 0.37692308
vt 0.09333333 0.37692308
vn 0.70710678 0 0.70710678
usemtl texture
f 744/1304/326 739/1303/326 737/1302/326 742/1301/326

o cube
v 0.15088835 0.9375 -0.02588835
v 0.15088835 0.9375 -0.02588835
v 0.15088835 0.4375 -0.02588835
v 0.15088835 0.4375 -0.02588835
v -0.02588835 0.9375 0.15088835
v -0.02588835 0.9375 0.15088835
v -0.02588835 0.4375 0.15088835
v -0.02588835 0.4375 0.15088835
vt 0.04 0.34615385
vt 0.09333333 0.34615385
vt 0.09333333 0.31538462
vt 0.04 0.31538462
vn -0.70710678 0 -0.70710678
usemtl texture
f 748/1308/327 751/1307/327 749/1306/327 746/1305/327
vt 0.09333333 0.34615385
vt 0.04 0.34615385
vt 0.04 0.31538462
vt 0.09333333 0.31538462
vn 0.70710678 0 0.70710678
usemtl texture
f 752/1312/328 747/1311/328 745/1310/328 750/1309/328

o cube
v 0.15088835 0.9375 -0.02588835
v 0.15088835 0.9375 -0.02588835
v 0.15088835 0.4375 -0.02588835
v 0.15088835 0.4375 -0.02588835
v -0.02588835 0.9375 0.15088835
v -0.02588835 0.9375 0.15088835
v -0.02588835 0.4375 0.15088835
v -0.02588835 0.4375 0.15088835
vt 0.04 0.28461538
vt 0.09333333 0.28461538
vt 0.09333333 0.25384615
vt 0.04 0.25384615
vn -0.70710678 0 -0.70710678
usemtl texture
f 756/1316/329 759/1315/329 757/1314/329 754/1313/329
vt 0.09333333 0.28461538
vt 0.04 0.28461538
vt 0.04 0.25384615
vt 0.09333333 0.25384615
vn 0.70710678 0 0.70710678
usemtl texture
f 760/1320/330 755/1319/330 753/1318/330 758/1317/330

o cube
v 0.15088835 0.9375 -0.02588835
v 0.15088835 0.9375 -0.02588835
v 0.15088835 0.4375 -0.02588835
v 0.15088835 0.4375 -0.02588835
v -0.02588835 0.9375 0.15088835
v -0.02588835 0.9375 0.15088835
v -0.02588835 0.4375 0.15088835
v -0.02588835 0.4375 0.15088835
vt 0.04 0.22307692
vt 0.09333333 0.22307692
vt 0.09333333 0.19230769
vt 0.04 0.19230769
vn -0.70710678 0 -0.70710678
usemtl texture
f 764/1324/331 767/1323/331 765/1322/331 762/1321/331
vt 0.09333333 0.22307692
vt 0.04 0.22307692
vt 0.04 0.19230769
vt 0.09333333 0.19230769
vn 0.70710678 0 0.70710678
usemtl texture
f 768/1328/332 763/1327/332 761/1326/332 766/1325/332

o cube
v 0.15088835 0.9375 -0.02588835
v 0.15088835 0.9375 -0.02588835
v 0.15088835 0.4375 -0.02588835
v 0.15088835 0.4375 -0.02588835
v -0.02588835 0.9375 0.15088835
v -0.02588835 0.9375 0.15088835
v -0.02588835 0.4375 0.15088835
v -0.02588835 0.4375 0.15088835
vt 0.04 0.16153846
vt 0.09333333 0.16153846
vt 0.09333333 0.13076923
vt 0.04 0.13076923
vn -0.70710678 0 -0.70710678
usemtl texture
f 772/1332/333 775/1331/333 773/1330/333 770/1329/333
vt 0.09333333 0.16153846
vt 0.04 0.16153846
vt 0.04 0.13076923
vt 0.09333333 0.13076923
vn 0.70710678 0 0.70710678
usemtl texture
f 776/1336/334 771/1335/334 769/1334/334 774/1333/334

o cube
v 0.15088835 0.9375 -0.02588835
v 0.15088835 0.9375 -0.02588835
v 0.15088835 0.4375 -0.02588835
v 0.15088835 0.4375 -0.02588835
v -0.02588835 0.9375 0.15088835
v -0.02588835 0.9375 0.15088835
v -0.02588835 0.4375 0.15088835
v -0.02588835 0.4375 0.15088835
vt 0.04 0.1
vt 0.09333333 0.1
vt 0.09333333 0.06923077
vt 0.04 0.06923077
vn -0.70710678 0 -0.70710678
usemtl texture
f 780/1340/335 783/1339/335 781/1338/335 778/1337/335
vt 0.09333333 0.1
vt 0.04 0.1
vt 0.04 0.06923077
vt 0.09333333 0.06923077
vn 0.70710678 0 0.70710678
usemtl texture
f 784/1344/336 779/1343/336 777/1342/336 782/1341/336

o cube
v 0.15088835 0.9375 -0.02588835
v 0.15088835 0.9375 -0.02588835
v 0.15088835 0.4375 -0.02588835
v 0.15088835 0.4375 -0.02588835
v -0.02588835 0.9375 0.15088835
v -0.02588835 0.9375 0.15088835
v -0.02588835 0.4375 0.15088835
v -0.02588835 0.4375 0.15088835
vt 0.04 0.03846154
vt 0.09333333 0.03846154
vt 0.09333333 0.00769231
vt 0.04 0.00769231
vn -0.70710678 0 -0.70710678
usemtl texture
f 788/1348/337 791/1347/337 789/1346/337 786/1345/337
vt 0.09333333 0.03846154
vt 0.04 0.03846154
vt 0.04 0.00769231
vt 0.09333333 0.00769231
vn 0.70710678 0 0.70710678
usemtl texture
f 792/1352/338 787/1351/338 785/1350/338 790/1349/338

